<?xml version="1.0" standalone="no"?>
<!DOCTYPE svg PUBLIC "-//W3C//DTD SVG 1.1//EN" "http://www.w3.org/Graphics/SVG/1.1/DTD/svg11.dtd" >
<svg>
<metadata>
Created by FontForge 20090622 at Fri Dec 18 15:25:26 2015
 By deploy user
Copyright (c) 2004 Linotype Library GmbH, www.linotype.com. All rights reserved. This software may not be reproduced, used, displayed, modified, disclosed or transferred without the express written approval of Linotype Library GmbH. Avenir is a trademark of Heidelberger Druckmaschinen AG, exclusively licensed through Linotype Library GmbH, and may be registered in certain jurisdictions. This typeface is original artwork of Adrian Frutiger and Akira Kobayashi. The design may be protected in certain jurisdictions.
</metadata>
<defs>
<font id="AvenirNextLTPro-MediumCn" horiz-adv-x="235" >
  <font-face 
    font-family="AvenirNext LT Pro MediumCn"
    font-weight="500"
    font-stretch="normal"
    units-per-em="1000"
    panose-1="2 11 6 6 2 2 2 2 2 4"
    ascent="756"
    descent="-244"
    x-height="502"
    cap-height="708"
    bbox="-118 -250 875 955"
    underline-thickness="50"
    underline-position="-50"
    unicode-range="U+000D-U+FB02"
  />
<missing-glyph horiz-adv-x="512" 
d="M222 117h56v67h-56v-67zM225 234h46q0 52 6 72q6 19 43 52q37 34 50 60t13 60q0 59 -35 95t-89 36q-56 0 -92 -34t-43 -103l50 -8q11 95 82 95q31 0 53.5 -24.5t22.5 -60.5q0 -20 -9.5 -37t-40.5 -46q-31 -31 -46 -59q-13 -25 -13 -81zM462 50h-412v617h412v-617z
M512 718h-512v-718h512v718z" />
    <glyph glyph-name="IJ" unicode="IJ" horiz-adv-x="634" 
d="M168 0h-90v708h90v-708zM562 195q0 -103 -42.5 -157.5t-126.5 -54.5q-63 0 -104 33.5t-56 92.5l79 33q8 -32 28.5 -54t51.5 -22q80 0 80 138v504h90v-513z" />
    <glyph glyph-name="ij" unicode="ij" horiz-adv-x="457" 
d="M169 651q0 -24 -15.5 -40.5t-37.5 -16.5q-23 0 -38 16t-15 41q0 24 15.5 40.5t37.5 16.5t37.5 -16.5t15.5 -40.5zM158 0h-85v502h85v-502zM394 651q0 -25 -15 -41t-38 -16t-37.5 16t-14.5 41q0 24 15 40.5t37 16.5t37.5 -16.5t15.5 -40.5zM384 -62q0 -178 -143 -178
q-17 0 -40 5l7 78q12 -4 27 -4q64 0 64 105v558h85v-564z" />
    <glyph glyph-name="napostrophe" unicode="&#x22;n" horiz-adv-x="513" 
d="M444 0h-86v320q0 123 -71 123q-43 0 -70 -43.5t-27 -111.5v-288h-85v375q0 78 -4 127h81q6 -50 6 -87h2q15 46 48 75t78 29q39 0 65.5 -16.5t39.5 -46.5t18 -62.5t5 -73.5v-320zM123 708l-53 -185h-65l44 185h74z" />
    <glyph glyph-name="fi" unicode="fi" horiz-adv-x="482" 
d="M264 767l-6 -70q-13 5 -29 5q-67 0 -67 -109v-91h82v-69h-81v-433h-84v433h-65v69h65v92q0 82 35 131t105 49q27 0 45 -7zM408 0h-85v502h85v-502zM419 651q0 -24 -15.5 -40.5t-37.5 -16.5q-23 0 -38 16t-15 41q0 24 15.5 40.5t37.5 16.5t37.5 -16.5t15.5 -40.5z" />
    <glyph glyph-name="fl" unicode="fl" horiz-adv-x="482" 
d="M264 767l-6 -70q-13 5 -29 5q-67 0 -67 -109v-91h82v-69h-81v-433h-84v433h-65v69h65v92q0 82 35 131t105 49q27 0 45 -7zM409 0h-86v756h86v-756z" />
    <glyph glyph-name=".notdef" horiz-adv-x="512" 
d="M222 117h56v67h-56v-67zM225 234h46q0 52 6 72q6 19 43 52q37 34 50 60t13 60q0 59 -35 95t-89 36q-56 0 -92 -34t-43 -103l50 -8q11 95 82 95q31 0 53.5 -24.5t22.5 -60.5q0 -20 -9.5 -37t-40.5 -46q-31 -31 -46 -59q-13 -25 -13 -81zM462 50h-412v617h412v-617z
M512 718h-512v-718h512v718z" />
    <glyph glyph-name=".null" horiz-adv-x="190" 
 />
    <glyph glyph-name=".null" horiz-adv-x="190" 
 />
    <glyph glyph-name="nonmarkingreturn" horiz-adv-x="333" 
 />
    <glyph glyph-name="CR" unicode="&#xd;" horiz-adv-x="0" 
 />
    <glyph glyph-name="space" unicode=" " horiz-adv-x="190" 
 />
    <glyph glyph-name="exclam" unicode="!" horiz-adv-x="302" 
d="M194 218h-86v490h86v-490zM208 53q0 -25 -16.5 -42.5t-40.5 -17.5t-40 17t-16 43q0 25 16 43t40 18t40.5 -18t16.5 -43z" />
    <glyph glyph-name="quotedbl" unicode="&#x22;" horiz-adv-x="355" 
d="M277 457h-67v251h67v-251zM145 457h-67v251h67v-251z" />
    <glyph glyph-name="numbersign" unicode="#" horiz-adv-x="388" 
d="M362 425h-69l-13 -141h57v-67h-63l-19 -217h-58l19 217h-67l-20 -217h-58l18 217h-62v67h69l14 141h-64v67h69l19 216h59l-19 -216h67l20 216h58l-20 -216h63v-67zM235 425h-68l-12 -141h67z" />
    <glyph glyph-name="dollar" unicode="$" horiz-adv-x="482" 
d="M259 1v-81h-43v81q-44 2 -89.5 21t-74.5 49l47 65q51 -57 117 -59v245q-74 29 -113 70.5t-39 121.5q0 83 43.5 134.5t111.5 57.5v80h43v-79q97 -2 153 -65l-44 -63q-41 53 -109 53v-236q39 -16 62.5 -29.5t49 -36t37.5 -55.5t12 -77q0 -87 -45.5 -140.5t-118.5 -56.5z
M216 412v218q-31 -4 -52.5 -32.5t-21.5 -74.5t18.5 -69.5t55.5 -41.5zM341 192q0 48 -20.5 73t-58.5 43v-231q34 3 56.5 33.5t22.5 81.5z" />
    <glyph glyph-name="percent" unicode="%" horiz-adv-x="660" 
d="M294 537q0 -81 -35.5 -132t-96.5 -51t-96.5 51t-35.5 132q0 82 35.5 133.5t96.5 51.5t96.5 -51.5t35.5 -133.5zM223 538q0 53 -16 86.5t-45 33.5t-45 -33.5t-16 -86.5q0 -52 16 -86t45 -34t45 34t16 86zM632 173q0 -81 -35.5 -132t-96.5 -51t-96.5 51t-35.5 132
q0 82 35.5 133.5t96.5 51.5t96.5 -51.5t35.5 -133.5zM561 174q0 53 -16 86.5t-45 33.5t-45 -33.5t-16 -86.5q0 -52 16 -86t45 -34t45 34t16 86zM500 719l-283 -742l-54 18l283 742z" />
    <glyph glyph-name="ampersand" unicode="&#x26;" horiz-adv-x="535" 
d="M532 0h-105l-58 87q-50 -103 -155 -103q-80 0 -127 54t-47 150q0 130 120 206q-57 84 -57 162t43.5 124.5t110.5 46.5q64 0 104.5 -43t40.5 -115q0 -64 -35.5 -108t-99.5 -85l100 -147l59 153h88l-96 -218zM321 563q0 43 -17 68.5t-47 25.5q-31 0 -50.5 -28t-19.5 -71
q0 -62 44 -129q90 59 90 134zM323 152l-123 183q-77 -51 -77 -140q0 -61 27.5 -97t71.5 -36q36 0 61.5 26t39.5 64z" />
    <glyph glyph-name="quotesingle" unicode="'" horiz-adv-x="223" 
d="M145 457h-67v251h67v-251z" />
    <glyph glyph-name="parenleft" unicode="(" horiz-adv-x="256" 
d="M207 -137l-64 -30q-57 93 -88 213.5t-31 241.5t31 241.5t88 213.5l64 -30q-52 -85 -81 -199.5t-29 -225.5t29 -225.5t81 -199.5z" />
    <glyph glyph-name="parenright" unicode=")" horiz-adv-x="256" 
d="M49 -137q52 85 81 199.5t29 225.5t-29 225.5t-81 199.5l64 30q57 -93 88 -213.5t31 -241.5t-31 -241.5t-88 -213.5z" />
    <glyph glyph-name="asterisk" unicode="*" horiz-adv-x="435" 
d="M398 545l-127 -42l80 -121l-55 -40l-79 123l-78 -120l-56 39l81 119l-128 45l22 61l125 -46v145h69v-145l125 44z" />
    <glyph glyph-name="plus" unicode="+" horiz-adv-x="666" 
d="M374 566v-222h222v-82h-222v-222h-82v222h-222v82h222v222h82z" />
    <glyph glyph-name="comma" unicode="," horiz-adv-x="228" 
d="M174 128l-72 -256h-69l58 256h83z" />
    <glyph glyph-name="hyphen" unicode="-" horiz-adv-x="230" 
d="M194 231h-158v69h158v-69z" />
    <glyph glyph-name="period" unicode="." horiz-adv-x="228" 
d="M171 53q0 -25 -16.5 -42.5t-40.5 -17.5t-40 17t-16 43q0 25 16 43t40 18t40.5 -18t16.5 -43z" />
    <glyph glyph-name="slash" unicode="/" horiz-adv-x="250" 
d="M243 747l-179 -781l-58 12l180 781z" />
    <glyph glyph-name="zero" unicode="0" horiz-adv-x="482" 
d="M442 354q0 -69 -8.5 -128t-29.5 -116t-62.5 -90t-100.5 -33t-100.5 33t-62.5 90t-29.5 116t-8.5 128t8.5 128t29.5 116t62.5 90t100.5 33t100.5 -33t62.5 -90t29.5 -116t8.5 -128zM350 354q0 287 -109 287t-109 -287t109 -287t109 287z" />
    <glyph glyph-name="one" unicode="1" horiz-adv-x="482" 
d="M325 0h-88v605l-126 -96l-42 70l173 129h83v-708z" />
    <glyph glyph-name="two" unicode="2" horiz-adv-x="482" 
d="M413 530q0 -42 -16.5 -85.5t-34 -71t-57.5 -81.5l-156 -213h255v-79h-354v83l198 269q73 98 73 173q0 51 -23 84.5t-67 33.5q-40 0 -66 -27.5t-34 -79.5l-85 9q13 85 63.5 130.5t127.5 45.5q83 0 129.5 -53.5t46.5 -137.5z" />
    <glyph glyph-name="three" unicode="3" horiz-adv-x="482" 
d="M424 196q0 -89 -53 -149t-142 -60q-74 0 -124.5 37.5t-70.5 107.5l80 22q12 -41 41 -65.5t70 -24.5q54 0 83 41.5t29 93.5q0 64 -35 99t-94 35h-25v72h27q51 0 81 33.5t30 91.5q0 45 -24.5 80t-71.5 35q-61 0 -90 -69l-78 24q22 60 70 90.5t104 30.5q78 0 127 -50
t49 -131q0 -61 -28 -108t-79 -59v-2q56 -13 90 -60.5t34 -114.5z" />
    <glyph glyph-name="four" unicode="4" horiz-adv-x="482" 
d="M449 163h-84v-163h-81v163h-255v81l221 464h115v-469h84v-76zM286 239v382h-2l-173 -382h175z" />
    <glyph glyph-name="five" unicode="5" horiz-adv-x="482" 
d="M422 226q0 -112 -53.5 -175.5t-139.5 -63.5q-69 0 -116.5 36t-67.5 103l77 26q31 -86 105 -86q49 0 78.5 43t29.5 114q0 72 -32.5 113.5t-90.5 41.5q-67 0 -123 -33l10 363h299v-79h-222l-8 -198q36 17 73 17q88 0 134.5 -60t46.5 -162z" />
    <glyph glyph-name="six" unicode="6" horiz-adv-x="482" 
d="M440 222q0 -108 -55 -171.5t-145 -63.5q-91 0 -145 63.5t-54 170.5q0 94 53 200l144 287h97l-150 -289l1 -1q30 29 79 29q30 0 59 -11t56 -34.5t43.5 -70t16.5 -109.5zM350 223q0 70 -27.5 112.5t-79.5 42.5q-51 0 -81.5 -44.5t-30.5 -112.5q0 -73 29.5 -115.5
t80.5 -42.5q52 0 80.5 43.5t28.5 116.5z" />
    <glyph glyph-name="seven" unicode="7" horiz-adv-x="482" 
d="M415 635l-223 -635h-96l228 628h-271v80h362v-73z" />
    <glyph glyph-name="eight" unicode="8" horiz-adv-x="482" 
d="M440 194q0 -93 -53.5 -150t-144.5 -57q-90 0 -143 57t-53 150q0 70 30.5 117t83.5 65v2q-97 41 -97 160q0 78 47 130.5t132 52.5q86 0 133.5 -52.5t47.5 -130.5q0 -120 -96 -160v-2q113 -41 113 -182zM334 532q0 54 -24.5 87.5t-67.5 33.5t-67 -33.5t-24 -87.5
q0 -51 25 -87t66 -36t66.5 36t25.5 87zM348 198q0 62 -29.5 101.5t-76.5 39.5q-46 0 -75.5 -39.5t-29.5 -101.5q0 -61 28.5 -100t76.5 -39q49 0 77.5 39t28.5 100z" />
    <glyph glyph-name="nine" unicode="9" horiz-adv-x="482" 
d="M43 488q0 105 55.5 169t144.5 64q92 0 145.5 -62.5t53.5 -169.5q0 -96 -53 -202l-144 -287h-97l156 296l-1 1q-34 -28 -86 -28q-30 0 -58.5 11t-55.5 34.5t-43.5 68t-16.5 105.5zM133 490q0 -67 27.5 -108.5t79.5 -41.5q51 0 81.5 43t30.5 109q0 69 -29.5 111t-80.5 42
t-80 -43t-29 -112z" />
    <glyph glyph-name="colon" unicode=":" horiz-adv-x="268" 
d="M186 446q0 -25 -15 -41t-37 -16q-23 0 -37.5 16t-14.5 41q0 23 15 39.5t37 16.5t37 -16.5t15 -39.5zM186 57q0 -25 -15 -41t-37 -16q-23 0 -37.5 16t-14.5 41q0 23 15 39.5t37 16.5t37 -16.5t15 -39.5z" />
    <glyph glyph-name="semicolon" unicode=";" horiz-adv-x="254" 
d="M186 446q0 -25 -15 -41t-37 -16q-23 0 -37.5 16t-14.5 41q0 23 15 39.5t37 16.5t37 -16.5t15 -39.5zM182 128l-72 -256h-65l58 256h79z" />
    <glyph glyph-name="less" unicode="&#x3c;" horiz-adv-x="666" 
d="M589 564v-85l-385 -176l383 -176v-85l-508 231v60z" />
    <glyph glyph-name="equal" unicode="=" horiz-adv-x="666" 
d="M70 426h526v-81h-526v81zM70 261h526v-81h-526v81z" />
    <glyph glyph-name="greater" unicode="&#x3e;" horiz-adv-x="666" 
d="M79 479v85l508 -231v-60l-508 -231v85l383 176z" />
    <glyph glyph-name="question" unicode="?" horiz-adv-x="381" 
d="M224 254v-36h-77v47q0 88 61 148l21 24q46 53 46 104q0 50 -22 78.5t-61 28.5t-63 -30.5t-31 -74.5l-74 15q13 75 57.5 120.5t118.5 45.5q73 0 117 -46.5t44 -129.5q0 -56 -21.5 -93.5t-63.5 -78.5q-31 -33 -41.5 -58.5t-10.5 -63.5zM247 53q0 -25 -16.5 -42.5
t-40.5 -17.5t-40 17t-16 43q0 25 16 43t40 18t40.5 -18t16.5 -43z" />
    <glyph glyph-name="at" unicode="@" horiz-adv-x="640" 
d="M605 406q0 -106 -42.5 -176t-112.5 -70q-33 0 -52 18.5t-19 54.5h-1q-34 -73 -94 -73q-51 0 -78.5 44.5t-27.5 111.5q0 95 39 168.5t107 73.5q33 0 52.5 -19.5t23.5 -49.5h3l10 45h63l-33 -164q-11 -70 -11 -99q0 -43 31 -44q35 -1 58.5 50.5t23.5 127.5q0 121 -55.5 192
t-156.5 71q-103 0 -167.5 -92t-64.5 -223q0 -137 63 -224t174 -87q109 0 186 89l36 -51q-91 -99 -227 -99q-141 0 -219 103t-78 269q0 160 82.5 267t214.5 107q129 0 200.5 -85t71.5 -236zM385 406q0 86 -52 86q-39 0 -62 -55t-23 -123q0 -88 55 -88q38 0 60 62t22 118z" />
    <glyph glyph-name="A" unicode="A" horiz-adv-x="487" 
d="M479 0h-94l-40 166h-205l-41 -166h-91l178 708h119zM333 237l-87 387h-4l-90 -387h181z" />
    <glyph glyph-name="B" unicode="B" horiz-adv-x="500" 
d="M353 519q0 59 -33 86t-82 27h-75v-228h77q46 0 79.5 28.5t33.5 86.5zM372 201q0 67 -38 99.5t-88 32.5h-83v-257h87q54 0 88 31.5t34 93.5zM340 374v-2q46 -9 83.5 -54t37.5 -123q0 -100 -58.5 -147.5t-133.5 -47.5h-191v708h170q34 0 64.5 -8t60 -26.5t47 -54.5
t17.5 -86q0 -64 -27.5 -103.5t-69.5 -55.5z" />
    <glyph glyph-name="C" unicode="C" horiz-adv-x="486" 
d="M469 76q-60 -93 -171 -93q-116 0 -183.5 104t-67.5 267t68.5 267t182.5 104q115 0 173 -85l-56 -61q-42 63 -113 63q-78 0 -119 -81.5t-41 -206.5q0 -124 42 -206t120 -82q70 0 111 69z" />
    <glyph glyph-name="D" unicode="D" horiz-adv-x="553" 
d="M506 353q0 -170 -70 -261.5t-196 -91.5h-162v708h163q126 0 195.5 -92t69.5 -263zM416 353q0 135 -48.5 205.5t-127.5 70.5h-73v-550h73q78 0 127 70.5t49 203.5z" />
    <glyph glyph-name="E" unicode="E" horiz-adv-x="426" 
d="M386 0h-308v708h298v-80h-211v-223h197v-75h-197v-249h221v-81z" />
    <glyph glyph-name="F" unicode="F" horiz-adv-x="405" 
d="M375 626h-208v-228h193v-78h-193v-320h-89v708h297v-82z" />
    <glyph glyph-name="G" unicode="G" horiz-adv-x="541" 
d="M297 725q116 0 174 -85l-56 -61q-43 64 -114 64q-77 0 -118 -82t-41 -206q0 -128 43 -207.5t123 -79.5q56 0 85 24v219h-93v78h180v-345q-69 -57 -174 -57q-120 0 -189.5 100.5t-69.5 267.5q0 163 67.5 266.5t182.5 103.5z" />
    <glyph glyph-name="H" unicode="H" horiz-adv-x="583" 
d="M505 0h-90v327h-247v-327h-90v708h90v-301h247v301h90v-708z" />
    <glyph glyph-name="I" unicode="I" horiz-adv-x="246" 
d="M168 0h-90v708h90v-708z" />
    <glyph glyph-name="J" unicode="J" horiz-adv-x="395" 
d="M323 195q0 -103 -42.5 -157.5t-126.5 -54.5q-63 0 -104 33.5t-56 92.5l79 33q8 -32 28.5 -54t51.5 -22q80 0 80 138v504h90v-513z" />
    <glyph glyph-name="K" unicode="K" horiz-adv-x="499" 
d="M491 0h-107l-216 355h-2v-355h-88v708h88v-315h2l204 315h104l-226 -328z" />
    <glyph glyph-name="L" unicode="L" horiz-adv-x="373" 
d="M368 0h-290v708h90v-624h200v-84z" />
    <glyph glyph-name="M" unicode="M" horiz-adv-x="729" 
d="M651 0h-89v586h-3l-158 -586h-81l-156 586h-3v-586h-83v708h132l151 -562h4l148 562h138v-708z" />
    <glyph glyph-name="N" unicode="N" horiz-adv-x="573" 
d="M495 0h-105l-226 549h-3v-549h-83v708h108l223 -550h3v550h83v-708z" />
    <glyph glyph-name="O" unicode="O" horiz-adv-x="579" 
d="M532 355q0 -168 -65 -270t-177 -102q-113 0 -178 102t-65 270q0 169 64 269.5t179 100.5q112 0 177 -101t65 -269zM437 355q0 126 -38.5 207.5t-108.5 81.5q-71 0 -109.5 -81t-38.5 -208t38.5 -208t109.5 -81q70 0 108.5 81.5t38.5 207.5z" />
    <glyph glyph-name="P" unicode="P" horiz-adv-x="475" 
d="M445 509q0 -98 -53 -152t-129 -54h-96v-303h-89v708h179q35 0 66 -10t59.5 -31.5t45.5 -62t17 -95.5zM356 508q0 62 -29 92.5t-79 30.5h-81v-253h81q49 0 78.5 33.5t29.5 96.5z" />
    <glyph glyph-name="Q" unicode="Q" horiz-adv-x="584" 
d="M560 0h-272q-109 0 -175 97t-66 263q0 164 67 264.5t177 100.5t176.5 -100.5t66.5 -261.5q0 -92 -32 -173.5t-78 -108.5v-3h136v-78zM439 360q0 120 -39.5 199t-108.5 79t-109 -78.5t-40 -199.5q0 -120 40.5 -199t109.5 -79t108 80.5t39 197.5z" />
    <glyph glyph-name="R" unicode="R" horiz-adv-x="492" 
d="M464 0h-96l-120 316h-82v-316h-88v708h183q84 0 137 -47t53 -146q0 -79 -36 -125.5t-83 -56.5zM362 511q0 65 -32.5 93t-82.5 28h-81v-246h83q52 0 82.5 33t30.5 92z" />
    <glyph glyph-name="S" unicode="S" horiz-adv-x="440" 
d="M398 188q0 -94 -54 -149.5t-137 -55.5q-53 0 -101.5 22.5t-78.5 59.5l53 65q50 -64 127 -64q46 0 74.5 31t28.5 86q0 49 -29.5 80.5t-85.5 59.5q-68 34 -105.5 78.5t-37.5 122.5q0 97 55.5 149t132.5 52q105 0 159 -68l-54 -64q-38 50 -102 50q-43 0 -73.5 -29.5
t-30.5 -87.5q0 -48 27 -77t79 -56q70 -35 111.5 -81t41.5 -124z" />
    <glyph glyph-name="T" unicode="T" horiz-adv-x="359" 
d="M359 631h-135v-631h-89v631h-135v77h359v-77z" />
    <glyph glyph-name="U" unicode="U" horiz-adv-x="557" 
d="M489 243q0 -117 -50.5 -188.5t-161.5 -71.5q-110 0 -159.5 71.5t-49.5 188.5v465h90v-456q0 -186 121 -186q120 0 120 186v456h90v-465z" />
    <glyph glyph-name="V" unicode="V" horiz-adv-x="477" 
d="M472 708l-177 -708h-116l-174 708h99l135 -604h2l135 604h96z" />
    <glyph glyph-name="W" unicode="W" horiz-adv-x="744" 
d="M732 708l-137 -708h-115l-106 573h-2l-106 -573h-115l-136 708h92l104 -590h3l109 590h105l111 -590h2l103 590h88z" />
    <glyph glyph-name="X" unicode="X" horiz-adv-x="469" 
d="M118 708l118 -264l116 264h93l-161 -335l180 -373h-98l-133 298l-133 -298h-95l179 374l-161 334h95z" />
    <glyph glyph-name="Y" unicode="Y" horiz-adv-x="437" 
d="M440 708l-178 -425v-283h-89v283l-176 425h98l123 -333l126 333h96z" />
    <glyph glyph-name="Z" unicode="Z" horiz-adv-x="411" 
d="M374 0h-349v76l253 552h-238v80h334v-76l-251 -550h251v-82z" />
    <glyph glyph-name="bracketleft" unicode="[" horiz-adv-x="254" 
d="M205 -156h-166v888h166v-63h-90v-762h90v-63z" />
    <glyph glyph-name="backslash" unicode="\" horiz-adv-x="250" 
d="M7 747l57 12l180 -781l-58 -12z" />
    <glyph glyph-name="bracketright" unicode="]" horiz-adv-x="254" 
d="M52 -156v63h90v762h-90v63h165v-888h-165z" />
    <glyph glyph-name="asciicircum" unicode="^" horiz-adv-x="666" 
d="M74 309l226 399h66l226 -399h-91l-169 300l-167 -300h-91z" />
    <glyph glyph-name="underscore" unicode="_" horiz-adv-x="500" 
d="M0 -138v63h500v-63h-500z" />
    <glyph glyph-name="grave" unicode="`" 
d="M174 571h-67l-107 144h84z" />
    <glyph glyph-name="a" unicode="a" horiz-adv-x="415" 
d="M359 0h-70q-8 48 -8 83h-2q-22 -96 -118 -96q-49 0 -86 37.5t-37 111.5q0 42 13 74t33 51t48 31t54 16t55 4h33v22q0 112 -83 112q-56 0 -93 -51l-43 53q24 33 64 52t80 19q83 0 118 -53t35 -158v-203q0 -63 7 -105zM276 218v29h-37q-121 0 -121 -102q0 -43 19 -66
t47 -23q47 0 69.5 50t22.5 112z" />
    <glyph glyph-name="b" unicode="b" horiz-adv-x="480" 
d="M73 0v756h85v-326h2q12 40 42.5 64.5t72.5 24.5q77 0 118.5 -72.5t41.5 -192.5t-42.5 -195.5t-117.5 -75.5q-89 0 -117 96h-2v-79h-83zM156 251q0 -85 25 -139t72 -54t70.5 53.5t23.5 139.5q0 87 -23.5 140.5t-70.5 53.5q-46 0 -71.5 -54.5t-25.5 -139.5z" />
    <glyph glyph-name="c" unicode="c" horiz-adv-x="344" 
d="M339 29q-41 -46 -113 -46q-88 0 -134.5 72.5t-46.5 195.5q0 122 47.5 195t134.5 73q68 0 111 -43l-43 -64q-28 31 -67 31q-46 0 -70.5 -52.5t-24.5 -139.5q0 -189 100 -189q42 0 68 33z" />
    <glyph glyph-name="d" unicode="d" horiz-adv-x="480" 
d="M407 0h-83v79h-2q-28 -96 -117 -96q-75 0 -117.5 75.5t-42.5 195.5t41.5 192.5t118.5 72.5q42 0 72.5 -24.5t42.5 -64.5h2v326h85v-756zM324 251q0 85 -25.5 139.5t-71.5 54.5q-47 0 -70.5 -53.5t-23.5 -140.5q0 -86 23.5 -139.5t70.5 -53.5t72 54t25 139z" />
    <glyph glyph-name="e" unicode="e" horiz-adv-x="439" 
d="M397 229h-266q1 -75 27 -122.5t74 -47.5q56 0 86 71l64 -37q-45 -110 -153 -110q-86 0 -135 71t-49 196q0 120 50.5 194.5t132.5 74.5q87 0 128 -68t41 -181v-41zM311 298q0 68 -21.5 107.5t-63.5 39.5q-32 0 -54 -26.5t-30.5 -58t-8.5 -62.5h178z" />
    <glyph glyph-name="f" unicode="f" horiz-adv-x="250" 
d="M264 767l-6 -70q-13 5 -29 5q-67 0 -67 -109v-91h82v-69h-81v-433h-84v433h-65v69h65v92q0 82 35 131t105 49q27 0 45 -7z" />
    <glyph glyph-name="g" unicode="g" horiz-adv-x="480" 
d="M324 251q0 85 -25.5 139.5t-71.5 54.5q-47 0 -70.5 -53.5t-23.5 -140.5q0 -86 23.5 -139.5t70.5 -53.5t72 54t25 139zM324 430v72h83v-502q0 -240 -190 -240q-50 0 -96 21.5t-75 57.5l53 60q50 -62 121 -62q104 0 104 163v79h-2q-28 -96 -117 -96q-75 0 -117.5 75.5
t-42.5 195.5t41.5 192.5t118.5 72.5q43 0 73.5 -24.5t42.5 -64.5h3z" />
    <glyph glyph-name="h" unicode="h" horiz-adv-x="482" 
d="M159 288v-288h-86v756h86v-339h2q13 44 46 73t78 29q39 0 65.5 -16.5t39.5 -46.5t18 -62.5t5 -73.5v-320h-86v320q0 123 -71 123q-43 0 -70 -43.5t-27 -111.5z" />
    <glyph glyph-name="i" unicode="i" horiz-adv-x="232" 
d="M169 651q0 -24 -15.5 -40.5t-37.5 -16.5q-23 0 -38 16t-15 41q0 24 15.5 40.5t37.5 16.5t37.5 -16.5t15.5 -40.5zM158 0h-85v502h85v-502z" />
    <glyph glyph-name="j" unicode="j" horiz-adv-x="233" 
d="M170 651q0 -25 -15 -41t-38 -16t-37.5 16t-14.5 41q0 24 15 40.5t37 16.5t37.5 -16.5t15.5 -40.5zM160 -62q0 -178 -143 -178q-17 0 -40 5l7 78q12 -4 27 -4q64 0 64 105v558h85v-564z" />
    <glyph glyph-name="k" unicode="k" horiz-adv-x="421" 
d="M416 0h-101l-155 248h-2v-248h-85v756h85v-472h2l147 218h100l-172 -232z" />
    <glyph glyph-name="l" unicode="l" horiz-adv-x="232" 
d="M159 0h-86v756h86v-756z" />
    <glyph glyph-name="m" unicode="m" horiz-adv-x="729" 
d="M160 415q12 46 44.5 75t79.5 29q90 0 114 -104h2q16 43 49 73.5t83 30.5q39 0 65.5 -16.5t39.5 -46.5t18 -62.5t5 -73.5v-320h-86v320q0 123 -71 123q-42 0 -68.5 -43.5t-26.5 -111.5v-288h-84v320q0 123 -71 123q-42 0 -68 -43.5t-26 -111.5v-288h-84v375q0 78 -4 127
h81q6 -50 6 -87h2z" />
    <glyph glyph-name="n" unicode="n" horiz-adv-x="483" 
d="M414 0h-86v320q0 123 -71 123q-43 0 -70 -43.5t-27 -111.5v-288h-85v375q0 78 -4 127h81q6 -50 6 -87h2q15 46 48 75t78 29q39 0 65.5 -16.5t39.5 -46.5t18 -62.5t5 -73.5v-320z" />
    <glyph glyph-name="o" unicode="o" horiz-adv-x="455" 
d="M410 250q0 -121 -49 -194t-134 -73q-84 0 -133 73.5t-49 193.5q0 122 48.5 195.5t133.5 73.5t134 -73.5t49 -195.5zM322 251q0 87 -24 140.5t-71 53.5t-70.5 -53.5t-23.5 -140.5q0 -86 23.5 -139.5t70.5 -53.5t71 53t24 140z" />
    <glyph glyph-name="p" unicode="p" horiz-adv-x="480" 
d="M73 502h83v-78h2q28 95 117 95q75 0 117.5 -75t42.5 -195t-41.5 -193t-118.5 -73q-42 0 -72.5 25t-42.5 65h-2v-313h-85v742zM156 252q0 -85 25.5 -139.5t71.5 -54.5q47 0 70.5 53.5t23.5 140.5q0 86 -23.5 139.5t-70.5 53.5t-72 -54t-25 -139z" />
    <glyph glyph-name="q" unicode="q" horiz-adv-x="480" 
d="M407 502v-742h-85v313h-2q-12 -40 -42.5 -65t-72.5 -25q-77 0 -118.5 73t-41.5 193t42.5 195t117.5 75q89 0 117 -95h2v78h83zM324 252q0 85 -25 139t-72 54t-70.5 -53.5t-23.5 -139.5q0 -87 23.5 -140.5t70.5 -53.5q46 0 71.5 54.5t25.5 139.5z" />
    <glyph glyph-name="r" unicode="r" horiz-adv-x="285" 
d="M160 398q12 60 41 90.5t68 30.5q8 0 12 -1l-4 -89q-10 2 -17 2q-45 0 -72 -53.5t-27 -123.5v-254h-86v375q0 78 -4 127h81q6 -50 6 -104h2z" />
    <glyph glyph-name="s" unicode="s" horiz-adv-x="353" 
d="M321 463l-49 -56q-30 44 -82 44q-29 0 -48 -21t-19 -55q0 -33 17.5 -49t61.5 -33q115 -43 115 -150q0 -76 -42.5 -118t-110.5 -42q-89 0 -144 68l50 55q41 -52 97 -52q32 0 50.5 23t18.5 60q0 39 -22 58t-68 36q-48 18 -76 49t-28 92q0 65 42.5 106t105.5 41
q83 0 131 -56z" />
    <glyph glyph-name="t" unicode="t" horiz-adv-x="264" 
d="M252 1q-26 -14 -65 -14q-107 0 -107 140v306h-64v69h63v134h83v-134h89v-69h-89v-289q0 -83 52 -83q18 0 36 8z" />
    <glyph glyph-name="u" unicode="u" horiz-adv-x="483" 
d="M69 502h86v-320q0 -123 71 -123q43 0 70 43.5t27 111.5v288h85v-375q0 -78 4 -127h-81q-6 50 -6 87h-2q-15 -46 -48 -75t-78 -29q-39 0 -65.5 16.5t-39.5 46.5t-18 62.5t-5 73.5v320z" />
    <glyph glyph-name="v" unicode="v" horiz-adv-x="396" 
d="M382 502l-133 -502h-100l-135 502h90l96 -412h2l92 412h88z" />
    <glyph glyph-name="w" unicode="w" horiz-adv-x="600" 
d="M580 502l-107 -502h-98l-77 380h-1l-78 -380h-95l-104 502h87l70 -404h2l81 404h79l83 -404h1l71 404h86z" />
    <glyph glyph-name="x" unicode="x" horiz-adv-x="392" 
d="M14 0l133 264l-122 238h94l78 -175l77 175h91l-121 -237l134 -265h-95l-88 196l-89 -196h-92z" />
    <glyph glyph-name="y" unicode="y" horiz-adv-x="396" 
d="M382 502l-155 -593q-20 -74 -51.5 -111.5t-90.5 -37.5q-33 0 -59 8l11 77q19 -7 40 -7q27 0 42 17t24 51l19 79l-148 517h90l99 -402h2l90 402h87z" />
    <glyph glyph-name="z" unicode="z" horiz-adv-x="347" 
d="M318 0h-292v73l202 356h-187v73h276v-71l-202 -358h203v-73z" />
    <glyph glyph-name="braceleft" unicode="{" horiz-adv-x="254" 
d="M212 -156h-54q-104 0 -104 145v169q0 55 -14 75.5t-40 20.5v68q26 0 40 20.5t14 75.5v169q0 145 104 145h54v-63h-34q-52 0 -52 -86v-177q0 -55 -18.5 -83.5t-44.5 -33.5v-2q26 -5 44.5 -33.5t18.5 -83.5v-177q0 -86 52 -86h34v-63z" />
    <glyph glyph-name="bar" unicode="|" horiz-adv-x="222" 
d="M70 750h82v-1000h-82v1000z" />
    <glyph glyph-name="braceright" unicode="}" horiz-adv-x="254" 
d="M44 -156v63h34q52 0 52 86v177q0 55 18.5 83.5t44.5 33.5v2q-26 5 -44.5 33.5t-18.5 83.5v177q0 86 -52 86h-34v63h54q104 0 104 -145v-169q0 -54 14 -75t40 -21v-68q-26 0 -40 -21t-14 -75v-169q0 -145 -104 -145h-54z" />
    <glyph glyph-name="asciitilde" unicode="~" horiz-adv-x="666" 
d="M340 346q38 -24 57.5 -31.5t41.5 -7.5q50 0 87 68l59 -55q-58 -97 -144 -97q-54 0 -116 38q-37 23 -56.5 30.5t-41.5 7.5q-50 0 -87 -68l-59 55q59 98 144 98q56 0 115 -38z" />
    <glyph glyph-name="uni00A0" unicode="&#xa0;" horiz-adv-x="190" 
 />
    <glyph glyph-name="exclamdown" unicode="&#xa1;" horiz-adv-x="302" 
d="M194 297v-490h-86v490h86zM208 462q0 -25 -16.5 -43t-40.5 -18t-40 18t-16 43q0 26 16 43t40 17t40.5 -17.5t16.5 -42.5z" />
    <glyph glyph-name="cent" unicode="&#xa2;" horiz-adv-x="482" 
d="M396 43q-38 -51 -109 -54v-61h-44v61q-81 5 -125 76.5t-44 183.5t44 183.5t125 78.5v66h44v-66q70 -3 111 -47l-38 -59q-26 30 -73 34v-380q43 1 75 40zM244 58v381q-44 -5 -66 -59t-22 -133t21.5 -131.5t66.5 -57.5z" />
    <glyph glyph-name="sterling" unicode="&#xa3;" horiz-adv-x="482" 
d="M217 401h130v-69h-130v-251h197v-81h-376v81h92v251h-85v69h85v102q0 93 48 158.5t141 65.5q75 0 123 -44l-48 -65q-27 29 -72 29q-105 0 -105 -153v-93z" />
    <glyph glyph-name="currency" unicode="&#xa4;" horiz-adv-x="890" 
d="M661 465q48 -63 48 -156q0 -95 -51 -161l93 -93q-27 -29 -56 -56l-96 94q-64 -47 -153 -47q-86 0 -154 49l-98 -96l-17.5 17.5l-21 21l-17.5 17.5l95 96q-49 65 -49 158q0 87 46 154l-92 92l57 56l93 -92q67 50 158 50t157 -49l91 91l57 -56zM446 478q-72 0 -117.5 -49
t-45.5 -120q0 -72 45 -121.5t118 -49.5t118.5 49.5t45.5 121.5q0 71 -45.5 120t-118.5 49z" />
    <glyph glyph-name="yen" unicode="&#xa5;" horiz-adv-x="482" 
d="M316 393h108v-60h-142v-103h142v-60h-142v-170h-85v170h-141v60h141v103h-141v61h111l-143 314h90l128 -311l128 311h88z" />
    <glyph glyph-name="brokenbar" unicode="&#xa6;" horiz-adv-x="222" 
d="M70 675h82v-350h-82v350zM70 175h82v-350h-82v350z" />
    <glyph glyph-name="section" unicode="&#xa7;" horiz-adv-x="488" 
d="M352 280q0 20 -7 36t-22 28t-28.5 20t-37.5 19l-43 20q-33 -6 -57 -30.5t-24 -64.5q0 -41 22.5 -62.5t67.5 -39.5l47 -20q34 5 58 29t24 65zM183 144q-66 27 -95.5 61.5t-29.5 96.5q0 52 30 87.5t70 48.5q-38 23 -57 51t-19 75q0 72 51 118t128 46q107 0 157 -73l-52 -49
q-31 52 -104 52q-41 0 -70.5 -24.5t-29.5 -70.5q0 -20 6.5 -35t23.5 -27.5t30.5 -19.5t41.5 -20l30 -14q67 -32 99.5 -68.5t32.5 -93.5q0 -53 -29 -87.5t-72 -46.5q79 -42 79 -124q0 -83 -54 -125.5t-128 -42.5q-115 0 -177 76l48 57q51 -62 129 -62q43 0 72 23.5t29 67.5
q0 39 -25 62t-80 46z" />
    <glyph glyph-name="dieresis" unicode="&#xa8;" 
d="M243 650q0 -22 -14 -37t-34 -15t-34.5 15t-14.5 37t14.5 37.5t34.5 15.5q21 0 34.5 -15.5t13.5 -37.5zM90 650q0 -22 -14.5 -37t-34.5 -15q-22 0 -35 14.5t-13 37.5q0 22 13.5 37.5t34.5 15.5q20 0 34.5 -15.5t14.5 -37.5z" />
    <glyph glyph-name="copyright" unicode="&#xa9;" horiz-adv-x="640" 
d="M393 241l44 -51q-37 -61 -105 -61q-71 0 -113 62.5t-42 165.5q0 104 41 166t112 62q72 0 106 -56l-43 -52q-19 38 -63 38q-38 0 -58 -44t-20 -114q0 -69 20 -112.5t58 -43.5q41 0 63 40zM320 -20q-127 0 -205.5 102t-78.5 273t78.5 273t205.5 102t205.5 -102t78.5 -273
t-78.5 -273t-205.5 -102zM320 686q-106 0 -169 -92.5t-63 -238.5t63 -238.5t169 -92.5t169 92.5t63 238.5t-63 238.5t-169 92.5z" />
    <glyph glyph-name="ordfeminine" unicode="&#xaa;" horiz-adv-x="304" 
d="M248 408h-48q-4 21 -4 46h-1q-15 -55 -71 -55q-30 0 -52.5 22.5t-22.5 67.5q0 58 36 82.5t86 24.5h20v12q0 61 -48 61q-31 0 -55 -29l-29 38q35 43 90 43q52 0 74 -31.5t22 -92.5v-127q0 -32 3 -62zM192 535v17h-21q-67 0 -67 -57q0 -24 10.5 -36.5t25.5 -12.5
q26 0 39 27.5t13 61.5z" />
    <glyph glyph-name="guillemotleft" unicode="&#xab;" horiz-adv-x="362" 
d="M34 252l103 216l52 -28l-88 -188l88 -189l-52 -28zM173 252l102 216l52 -28l-88 -188l88 -189l-52 -28z" />
    <glyph glyph-name="logicalnot" unicode="&#xac;" horiz-adv-x="666" 
d="M596 426v-287h-81v206h-445v81h526z" />
    <glyph glyph-name="uni00AD" unicode="&#xad;" horiz-adv-x="230" 
d="M194 231h-158v69h158v-69z" />
    <glyph glyph-name="registered" unicode="&#xae;" horiz-adv-x="480" 
d="M332 372h-52l-38 102h-25v-102h-48v258h80q34 0 55.5 -19t21.5 -59q0 -55 -40 -68zM278 551q0 37 -34 37h-27v-76h26q35 0 35 39zM240 274q-76 0 -123 61t-47 164t47 164t123 61t123 -61t47 -164t-47 -164t-123 -61zM240 698q-64 0 -101.5 -55.5t-37.5 -143.5
t37.5 -143.5t101.5 -55.5t101.5 55.5t37.5 143.5t-37.5 143.5t-101.5 55.5z" />
    <glyph glyph-name="macron" unicode="&#xaf;" 
d="M246 614h-258v57h258v-57z" />
    <glyph glyph-name="degree" unicode="&#xb0;" horiz-adv-x="320" 
d="M280 565q0 -66 -32.5 -114t-87.5 -48t-88 48t-33 114t33 112.5t88 46.5t87.5 -47t32.5 -112zM228 565q0 47 -19 78.5t-49 31.5t-49 -31.5t-19 -78.5q0 -49 19 -81t49 -32t49 32t19 81z" />
    <glyph glyph-name="plusminus" unicode="&#xb1;" horiz-adv-x="666" 
d="M70 338v81h223v150h81v-150h222v-81h-222v-147h-81v147h-223zM70 40v81h526v-81h-526z" />
    <glyph glyph-name="twosuperior" unicode="&#xb2;" horiz-adv-x="320" 
d="M289 595q0 -26 -11.5 -53t-22.5 -42.5t-36 -46.5l-93 -116h156v-65h-242v68l130 161q42 53 42 92q0 27 -12.5 44t-37.5 17q-47 0 -55 -62l-73 8q9 58 43.5 88.5t88.5 30.5q58 0 90.5 -34t32.5 -90z" />
    <glyph glyph-name="threesuperior" unicode="&#xb3;" horiz-adv-x="320" 
d="M296 398q0 -59 -37 -96t-95 -37q-108 0 -134 100l67 17q16 -53 64 -53q30 0 46 21.5t16 50.5q0 34 -20.5 52.5t-54.5 18.5h-18v57h20q29 0 46.5 18.5t17.5 49.5q0 24 -13.5 42t-39.5 18q-37 0 -52 -41l-66 18q14 44 48 66t74 22q52 0 86 -31.5t34 -84.5q0 -38 -17.5 -66
t-48.5 -36v-1q35 -9 56 -37t21 -68z" />
    <glyph glyph-name="acute" unicode="&#xb4;" 
d="M235 715l-107 -144h-67l90 144h84z" />
    <glyph glyph-name="mu" unicode="&#xb5;" horiz-adv-x="578" 
d="M502 0h-89q-4 48 -4 78h-2q-19 -39 -62 -65t-93 -26q-55 0 -83 30v-257h-94v714h94v-262q0 -146 108 -146q57 0 92 43t35 113v252h94v-372q0 -61 4 -102z" />
    <glyph glyph-name="paragraph" unicode="&#xb6;" horiz-adv-x="600" 
d="M523 708v-834h-78v771h-115v-771h-79v453q-93 0 -152.5 52.5t-59.5 131.5q0 97 61.5 147t169.5 50h253z" />
    <glyph glyph-name="periodcentered" unicode="&#xb7;" horiz-adv-x="228" 
d="M171 261q0 -25 -16.5 -42.5t-40.5 -17.5t-40 17t-16 43q0 25 16 43t40 18t40.5 -18t16.5 -43z" />
    <glyph glyph-name="cedilla" unicode="&#xb8;" 
d="M154 0l-43 -72q8 3 30 3q31 0 54.5 -18t23.5 -54q0 -47 -34.5 -68t-79.5 -21q-52 0 -91 19l17 41q28 -14 68 -14q19 0 37.5 10t18.5 31q0 37 -47 37q-22 0 -41 -8l-19 17l58 97h48z" />
    <glyph glyph-name="onesuperior" unicode="&#xb9;" horiz-adv-x="320" 
d="M227 271h-75v352l-79 -54l-34 57l118 82h70v-437z" />
    <glyph glyph-name="ordmasculine" unicode="&#xba;" horiz-adv-x="304" 
d="M267 559q0 -72 -30.5 -116.5t-83.5 -44.5q-52 0 -82.5 44.5t-30.5 116.5q0 74 30 118.5t83 44.5t83.5 -44.5t30.5 -118.5zM206 560q0 48 -13.5 78t-39.5 30q-52 0 -52 -108q0 -109 52 -109q26 0 39.5 30t13.5 79z" />
    <glyph glyph-name="guillemotright" unicode="&#xbb;" horiz-adv-x="362" 
d="M189 252l-103 -217l-52 28l88 189l-88 188l52 28zM327 252l-102 -217l-52 28l88 189l-88 188l52 28z" />
    <glyph glyph-name="onequarter" unicode="&#xbc;" horiz-adv-x="740" 
d="M691 94h-49v-94h-69v94h-165v66l136 277h98v-280h49v-63zM575 157v210h-1l-98 -210h99zM534 722l-277 -745l-55 15l278 745zM227 271h-75v352l-79 -54l-34 57l118 82h70v-437z" />
    <glyph glyph-name="onehalf" unicode="&#xbd;" horiz-adv-x="740" 
d="M691 323q0 -26 -11.5 -53t-22.5 -42.5t-36 -46.5l-93 -116h156v-65h-242v68l130 161q42 53 42 92q0 27 -12.5 44t-37.5 17q-47 0 -55 -62l-73 8q9 58 43.5 88.5t88.5 30.5q58 0 90.5 -34t32.5 -90zM534 722l-277 -745l-55 15l278 745zM227 271h-75v352l-79 -54l-34 57
l118 82h70v-437z" />
    <glyph glyph-name="threequarters" unicode="&#xbe;" horiz-adv-x="740" 
d="M691 94h-49v-94h-69v94h-165v66l136 277h98v-280h49v-63zM575 157v210h-1l-98 -210h99zM296 398q0 -59 -37 -96t-95 -37q-108 0 -134 100l67 17q16 -53 64 -53q30 0 46 21.5t16 50.5q0 34 -20.5 52.5t-54.5 18.5h-18v57h20q29 0 46.5 18.5t17.5 49.5q0 24 -13.5 42
t-39.5 18q-37 0 -52 -41l-66 18q14 44 48 66t74 22q52 0 86 -31.5t34 -84.5q0 -38 -17.5 -66t-48.5 -36v-1q35 -9 56 -37t21 -68zM534 722l-277 -745l-55 15l278 745z" />
    <glyph glyph-name="questiondown" unicode="&#xbf;" horiz-adv-x="381" 
d="M157 261v36h77v-47q0 -88 -61 -148l-21 -24q-46 -53 -46 -104q0 -50 22 -78.5t61 -28.5t63 30.5t31 74.5l74 -15q-13 -75 -57.5 -120.5t-118.5 -45.5q-73 0 -117 46.5t-44 129.5q0 56 21.5 93.5t63.5 78.5q31 33 41.5 58.5t10.5 63.5zM134 462q0 25 16.5 42.5t40.5 17.5
t40 -17t16 -43q0 -25 -16 -43t-40 -18t-40.5 18t-16.5 43z" />
    <glyph glyph-name="Agrave" unicode="&#xc0;" horiz-adv-x="487" 
d="M479 0h-94l-40 166h-205l-41 -166h-91l178 708h119zM333 237l-87 387h-4l-90 -387h181zM296 764h-67l-107 144h84z" />
    <glyph glyph-name="Aacute" unicode="&#xc1;" horiz-adv-x="487" 
d="M479 0h-94l-40 166h-205l-41 -166h-91l178 708h119zM333 237l-87 387h-4l-90 -387h181zM371 908l-107 -144h-67l90 144h84z" />
    <glyph glyph-name="Acircumflex" unicode="&#xc2;" horiz-adv-x="487" 
d="M479 0h-94l-40 166h-205l-41 -166h-91l178 708h119zM333 237l-87 387h-4l-90 -387h181zM390 764h-74l-71 101l-71 -101h-73l105 144h80z" />
    <glyph glyph-name="Atilde" unicode="&#xc3;" horiz-adv-x="487" 
d="M479 0h-94l-40 166h-205l-41 -166h-91l178 708h119zM333 237l-87 387h-4l-90 -387h181zM383 882q-3 -50 -23.5 -78t-53.5 -28q-29 0 -65 24q-33 22 -55 22q-28 0 -34 -46h-45q3 49 23.5 77.5t53.5 28.5q29 0 66 -24q36 -23 56 -23q15 0 22.5 11t10.5 36h44z" />
    <glyph glyph-name="Adieresis" unicode="&#xc4;" horiz-adv-x="487" 
d="M479 0h-94l-40 166h-205l-41 -166h-91l178 708h119zM333 237l-87 387h-4l-90 -387h181zM218 843q0 -22 -14.5 -37t-34.5 -15q-22 0 -35 14.5t-13 37.5q0 22 13.5 37.5t34.5 15.5q20 0 34.5 -15.5t14.5 -37.5zM371 843q0 -22 -14 -37t-34 -15t-34.5 15t-14.5 37t14.5 37.5
t34.5 15.5q21 0 34.5 -15.5t13.5 -37.5z" />
    <glyph glyph-name="Aring" unicode="&#xc5;" horiz-adv-x="487" 
d="M479 0h-94l-40 166h-205l-41 -166h-91l178 708h119zM333 237l-87 387h-4l-90 -387h181zM340 852q0 -44 -27.5 -73.5t-68.5 -29.5t-67.5 29.5t-26.5 73.5t26.5 73.5t67.5 29.5t68.5 -29.5t27.5 -73.5zM300 852q0 28 -15 47t-41 19q-25 0 -39.5 -19t-14.5 -47t14.5 -47
t39.5 -19q26 0 41 19t15 47z" />
    <glyph glyph-name="AE" unicode="&#xc6;" horiz-adv-x="649" 
d="M609 0h-294v164h-168l-58 -164h-95l257 708h349v-80h-201v-223h186v-75h-186v-249h210v-81zM315 237v393h-8l-136 -393h144z" />
    <glyph glyph-name="Ccedilla" unicode="&#xc7;" horiz-adv-x="486" 
d="M469 76q-54 -84 -151 -92l-33 -56q8 3 30 3q31 0 54.5 -18t23.5 -54q0 -47 -34.5 -68t-79.5 -21q-52 0 -91 19l17 41q28 -14 68 -14q19 0 37.5 10t18.5 31q0 37 -47 37q-22 0 -41 -8l-19 17l49 82q-104 12 -164 114t-60 255q0 163 68 266.5t183 103.5t173 -85l-56 -61
q-42 63 -113 63q-78 0 -119 -81t-41 -206q0 -124 42 -206t120 -82q70 0 111 69z" />
    <glyph glyph-name="Egrave" unicode="&#xc8;" horiz-adv-x="426" 
d="M386 0h-308v708h298v-80h-211v-223h197v-75h-197v-249h221v-81zM283 764h-67l-107 144h84z" />
    <glyph glyph-name="Eacute" unicode="&#xc9;" horiz-adv-x="426" 
d="M386 0h-308v708h298v-80h-211v-223h197v-75h-197v-249h221v-81zM354 908l-107 -144h-67l90 144h84z" />
    <glyph glyph-name="Ecircumflex" unicode="&#xca;" horiz-adv-x="426" 
d="M386 0h-308v708h298v-80h-211v-223h197v-75h-197v-249h221v-81zM373 764h-74l-71 101l-71 -101h-73l105 144h80z" />
    <glyph glyph-name="Edieresis" unicode="&#xcb;" horiz-adv-x="426" 
d="M386 0h-308v708h298v-80h-211v-223h197v-75h-197v-249h221v-81zM199 843q0 -22 -14.5 -37t-34.5 -15q-22 0 -35 14.5t-13 37.5q0 22 13.5 37.5t34.5 15.5q20 0 34.5 -15.5t14.5 -37.5zM352 843q0 -22 -14 -37t-34 -15t-34.5 15t-14.5 37t14.5 37.5t34.5 15.5
q21 0 34.5 -15.5t13.5 -37.5z" />
    <glyph glyph-name="Igrave" unicode="&#xcc;" horiz-adv-x="246" 
d="M168 0h-90v708h90v-708zM166 764h-67l-107 144h84z" />
    <glyph glyph-name="Iacute" unicode="&#xcd;" horiz-adv-x="246" 
d="M168 0h-90v708h90v-708zM254 908l-107 -144h-67l90 144h84z" />
    <glyph glyph-name="Icircumflex" unicode="&#xce;" horiz-adv-x="246" 
d="M168 0h-90v708h90v-708zM268 764h-74l-71 101l-71 -101h-73l105 144h80z" />
    <glyph glyph-name="Idieresis" unicode="&#xcf;" horiz-adv-x="246" 
d="M168 0h-90v708h90v-708zM96 843q0 -22 -14.5 -37t-34.5 -15q-22 0 -35 14.5t-13 37.5q0 22 13.5 37.5t34.5 15.5q20 0 34.5 -15.5t14.5 -37.5zM249 843q0 -22 -14 -37t-34 -15t-34.5 15t-14.5 37t14.5 37.5t34.5 15.5q21 0 34.5 -15.5t13.5 -37.5z" />
    <glyph glyph-name="Eth" unicode="&#xd0;" horiz-adv-x="551" 
d="M78 334h-57v61h57v313h163q126 0 195.5 -92t69.5 -263q0 -170 -70 -261.5t-196 -91.5h-162v334zM167 395h133v-61h-133v-255h73q78 0 127 70.5t49 203.5q0 135 -48.5 205.5t-127.5 70.5h-73v-234z" />
    <glyph glyph-name="Ntilde" unicode="&#xd1;" horiz-adv-x="573" 
d="M495 0h-105l-226 549h-3v-549h-83v708h108l223 -550h3v550h83v-708zM424 882q-3 -50 -23.5 -78t-53.5 -28q-29 0 -65 24q-33 22 -55 22q-28 0 -34 -46h-45q3 49 23.5 77.5t53.5 28.5q29 0 66 -24q36 -23 56 -23q15 0 22.5 11t10.5 36h44z" />
    <glyph glyph-name="Ograve" unicode="&#xd2;" horiz-adv-x="579" 
d="M532 355q0 -168 -65 -270t-177 -102q-113 0 -178 102t-65 270q0 169 64 269.5t179 100.5q112 0 177 -101t65 -269zM437 355q0 126 -38.5 207.5t-108.5 81.5q-71 0 -109.5 -81t-38.5 -208t38.5 -208t109.5 -81q70 0 108.5 81.5t38.5 207.5zM334 764h-67l-107 144h84z" />
    <glyph glyph-name="Oacute" unicode="&#xd3;" horiz-adv-x="579" 
d="M532 355q0 -168 -65 -270t-177 -102q-113 0 -178 102t-65 270q0 169 64 269.5t179 100.5q112 0 177 -101t65 -269zM437 355q0 126 -38.5 207.5t-108.5 81.5q-71 0 -109.5 -81t-38.5 -208t38.5 -208t109.5 -81q70 0 108.5 81.5t38.5 207.5zM427 908l-107 -144h-67l90 144
h84z" />
    <glyph glyph-name="Ocircumflex" unicode="&#xd4;" horiz-adv-x="579" 
d="M532 355q0 -168 -65 -270t-177 -102q-113 0 -178 102t-65 270q0 169 64 269.5t179 100.5q112 0 177 -101t65 -269zM437 355q0 126 -38.5 207.5t-108.5 81.5q-71 0 -109.5 -81t-38.5 -208t38.5 -208t109.5 -81q70 0 108.5 81.5t38.5 207.5zM433 764h-74l-71 101l-71 -101
h-73l105 144h80z" />
    <glyph glyph-name="Otilde" unicode="&#xd5;" horiz-adv-x="579" 
d="M532 355q0 -168 -65 -270t-177 -102q-113 0 -178 102t-65 270q0 169 64 269.5t179 100.5q112 0 177 -101t65 -269zM437 355q0 126 -38.5 207.5t-108.5 81.5q-71 0 -109.5 -81t-38.5 -208t38.5 -208t109.5 -81q70 0 108.5 81.5t38.5 207.5zM426 882q-3 -50 -23.5 -78
t-53.5 -28q-29 0 -65 24q-33 22 -55 22q-28 0 -34 -46h-45q3 49 23.5 77.5t53.5 28.5q29 0 66 -24q36 -23 56 -23q15 0 22.5 11t10.5 36h44z" />
    <glyph glyph-name="Odieresis" unicode="&#xd6;" horiz-adv-x="579" 
d="M532 355q0 -168 -65 -270t-177 -102q-113 0 -178 102t-65 270q0 169 64 269.5t179 100.5q112 0 177 -101t65 -269zM437 355q0 126 -38.5 207.5t-108.5 81.5q-71 0 -109.5 -81t-38.5 -208t38.5 -208t109.5 -81q70 0 108.5 81.5t38.5 207.5zM260 843q0 -22 -14.5 -37
t-34.5 -15q-22 0 -35 14.5t-13 37.5q0 22 13.5 37.5t34.5 15.5q20 0 34.5 -15.5t14.5 -37.5zM413 843q0 -22 -14 -37t-34 -15t-34.5 15t-14.5 37t14.5 37.5t34.5 15.5q21 0 34.5 -15.5t13.5 -37.5z" />
    <glyph glyph-name="multiply" unicode="&#xd7;" horiz-adv-x="666" 
d="M162 531l171 -171l170 171l57 -56l-170 -171l172 -173l-59 -58l-171 170l-170 -170l-58 58l172 170l-171 174z" />
    <glyph glyph-name="Oslash" unicode="&#xd8;" horiz-adv-x="579" 
d="M504 724l-46 -87q74 -100 74 -282q0 -168 -65 -270t-177 -102q-82 0 -140 55l-36 -74l-53 22l52 97q-66 100 -66 272q0 169 64 269.5t179 100.5q73 0 129 -47l34 68zM438 355q0 112 -31 191l-212 -427q38 -55 95 -55q71 0 109.5 82t38.5 209zM141 355q0 -107 25 -179
l210 424q-38 46 -86 46q-72 0 -110.5 -81.5t-38.5 -209.5z" />
    <glyph glyph-name="Ugrave" unicode="&#xd9;" horiz-adv-x="557" 
d="M489 243q0 -117 -50.5 -188.5t-161.5 -71.5q-110 0 -159.5 71.5t-49.5 188.5v465h90v-456q0 -186 121 -186q120 0 120 186v456h90v-465zM322 764h-67l-107 144h84z" />
    <glyph glyph-name="Uacute" unicode="&#xda;" horiz-adv-x="557" 
d="M489 243q0 -117 -50.5 -188.5t-161.5 -71.5q-110 0 -159.5 71.5t-49.5 188.5v465h90v-456q0 -186 121 -186q120 0 120 186v456h90v-465zM407 908l-107 -144h-67l90 144h84z" />
    <glyph glyph-name="Ucircumflex" unicode="&#xdb;" horiz-adv-x="557" 
d="M489 243q0 -117 -50.5 -188.5t-161.5 -71.5q-110 0 -159.5 71.5t-49.5 188.5v465h90v-456q0 -186 121 -186q120 0 120 186v456h90v-465zM426 764h-74l-71 101l-71 -101h-73l105 144h80z" />
    <glyph glyph-name="Udieresis" unicode="&#xdc;" horiz-adv-x="557" 
d="M489 243q0 -117 -50.5 -188.5t-161.5 -71.5q-110 0 -159.5 71.5t-49.5 188.5v465h90v-456q0 -186 121 -186q120 0 120 186v456h90v-465zM253 843q0 -22 -14.5 -37t-34.5 -15q-22 0 -35 14.5t-13 37.5q0 22 13.5 37.5t34.5 15.5q20 0 34.5 -15.5t14.5 -37.5zM406 843
q0 -22 -14 -37t-34 -15t-34.5 15t-14.5 37t14.5 37.5t34.5 15.5q21 0 34.5 -15.5t13.5 -37.5z" />
    <glyph glyph-name="Yacute" unicode="&#xdd;" horiz-adv-x="437" 
d="M440 708l-178 -425v-283h-89v283l-176 425h98l123 -333l126 333h96zM348 908l-107 -144h-67l90 144h84z" />
    <glyph glyph-name="Thorn" unicode="&#xde;" horiz-adv-x="492" 
d="M78 0v708h89v-146h74q98 0 154 -50t56 -147q0 -103 -58 -151.5t-156 -48.5h-70v-165h-89zM167 477v-227h62q131 0 131 114q0 113 -130 113h-63z" />
    <glyph glyph-name="germandbls" unicode="&#xdf;" horiz-adv-x="467" 
d="M295 422v-1q59 -9 96 -62.5t37 -142.5q0 -99 -43.5 -161.5t-134.5 -62.5q-25 0 -51 6v72q19 -4 35 -4q57 0 84.5 43t27.5 112q0 74 -32 117t-91 43h-15v72h15q44 0 72.5 35.5t28.5 91.5q0 47 -20.5 80.5t-61.5 33.5q-91 0 -91 -171v-523h-83v522q0 246 176 246
q77 0 118 -51t41 -132q0 -64 -31.5 -108t-76.5 -55z" />
    <glyph glyph-name="agrave" unicode="&#xe0;" horiz-adv-x="415" 
d="M359 0h-70q-8 48 -8 83h-2q-22 -96 -118 -96q-49 0 -86 37.5t-37 111.5q0 42 13 74t33 51t48 31t54 16t55 4h33v22q0 112 -83 112q-56 0 -93 -51l-43 53q24 33 64 52t80 19q83 0 118 -53t35 -158v-203q0 -63 7 -105zM276 218v29h-37q-121 0 -121 -102q0 -43 19 -66
t47 -23q47 0 69.5 50t22.5 112zM249 571h-67l-107 144h84z" />
    <glyph glyph-name="aacute" unicode="&#xe1;" horiz-adv-x="415" 
d="M359 0h-70q-8 48 -8 83h-2q-22 -96 -118 -96q-49 0 -86 37.5t-37 111.5q0 42 13 74t33 51t48 31t54 16t55 4h33v22q0 112 -83 112q-56 0 -93 -51l-43 53q24 33 64 52t80 19q83 0 118 -53t35 -158v-203q0 -63 7 -105zM276 218v29h-37q-121 0 -121 -102q0 -43 19 -66
t47 -23q47 0 69.5 50t22.5 112zM340 715l-107 -144h-67l90 144h84z" />
    <glyph glyph-name="acircumflex" unicode="&#xe2;" horiz-adv-x="415" 
d="M359 0h-70q-8 48 -8 83h-2q-22 -96 -118 -96q-49 0 -86 37.5t-37 111.5q0 42 13 74t33 51t48 31t54 16t55 4h33v22q0 112 -83 112q-56 0 -93 -51l-43 53q24 33 64 52t80 19q83 0 118 -53t35 -158v-203q0 -63 7 -105zM276 218v29h-37q-121 0 -121 -102q0 -43 19 -66
t47 -23q47 0 69.5 50t22.5 112zM350 571h-74l-71 101l-71 -101h-73l105 144h80z" />
    <glyph glyph-name="atilde" unicode="&#xe3;" horiz-adv-x="415" 
d="M359 0h-70q-8 48 -8 83h-2q-22 -96 -118 -96q-49 0 -86 37.5t-37 111.5q0 42 13 74t33 51t48 31t54 16t55 4h33v22q0 112 -83 112q-56 0 -93 -51l-43 53q24 33 64 52t80 19q83 0 118 -53t35 -158v-203q0 -63 7 -105zM276 218v29h-37q-121 0 -121 -102q0 -43 19 -66
t47 -23q47 0 69.5 50t22.5 112zM346 689q-3 -50 -23.5 -78t-53.5 -28q-29 0 -65 24q-33 22 -55 22q-28 0 -34 -46h-45q3 49 23.5 77.5t53.5 28.5q29 0 66 -24q36 -23 56 -23q15 0 22.5 11t10.5 36h44z" />
    <glyph glyph-name="adieresis" unicode="&#xe4;" horiz-adv-x="415" 
d="M359 0h-70q-8 48 -8 83h-2q-22 -96 -118 -96q-49 0 -86 37.5t-37 111.5q0 42 13 74t33 51t48 31t54 16t55 4h33v22q0 112 -83 112q-56 0 -93 -51l-43 53q24 33 64 52t80 19q83 0 118 -53t35 -158v-203q0 -63 7 -105zM276 218v29h-37q-121 0 -121 -102q0 -43 19 -66
t47 -23q47 0 69.5 50t22.5 112zM329 650q0 -22 -14 -37t-34 -15t-34.5 15t-14.5 37t14.5 37.5t34.5 15.5q21 0 34.5 -15.5t13.5 -37.5zM176 650q0 -22 -14.5 -37t-34.5 -15q-22 0 -35 14.5t-13 37.5q0 22 13.5 37.5t34.5 15.5q20 0 34.5 -15.5t14.5 -37.5z" />
    <glyph glyph-name="aring" unicode="&#xe5;" horiz-adv-x="415" 
d="M359 0h-70q-8 48 -8 83h-2q-22 -96 -118 -96q-49 0 -86 37.5t-37 111.5q0 42 13 74t33 51t48 31t54 16t55 4h33v22q0 112 -83 112q-56 0 -93 -51l-43 53q24 33 64 52t80 19q83 0 118 -53t35 -158v-203q0 -63 7 -105zM276 218v29h-37q-121 0 -121 -102q0 -43 19 -66
t47 -23q47 0 69.5 50t22.5 112zM303 659q0 -44 -27.5 -73.5t-68.5 -29.5t-67.5 29.5t-26.5 73.5t26.5 73.5t67.5 29.5t68.5 -29.5t27.5 -73.5zM263 659q0 28 -15 47t-41 19q-25 0 -39.5 -19t-14.5 -47t14.5 -47t39.5 -19q26 0 41 19t15 47z" />
    <glyph glyph-name="ae" unicode="&#xe6;" horiz-adv-x="665" 
d="M454 519q87 0 128 -68t41 -181v-41h-266q1 -75 27 -122.5t74 -47.5q56 0 86 71l64 -37q-45 -110 -153 -110q-115 0 -141 118q-24 -118 -149 -118q-51 0 -89 36.5t-38 111.5q0 40 13 71t33 48.5t48 28.5t54 15t55 4h33v21q0 58 -22.5 92.5t-60.5 34.5q-56 0 -93 -51
l-43 53q24 33 64 52t80 19q103 0 124 -101q35 101 131 101zM276 203v29h-37q-52 0 -86.5 -21.5t-34.5 -71.5q0 -43 18.5 -63t47.5 -20q48 0 70 43.5t22 103.5zM537 298q0 68 -21.5 107.5t-63.5 39.5q-45 0 -69 -48t-24 -99h178z" />
    <glyph glyph-name="ccedilla" unicode="&#xe7;" horiz-adv-x="344" 
d="M339 29q-38 -43 -103 -46l-33 -55q8 3 30 3q31 0 54.5 -18t23.5 -54q0 -47 -34.5 -68t-79.5 -21q-52 0 -91 19l17 41q28 -14 68 -14q19 0 37.5 10t18.5 31q0 37 -47 37q-22 0 -41 -8l-19 17l50 84q-71 14 -108 84t-37 180q0 122 47.5 195t134.5 73q68 0 111 -43l-43 -64
q-28 31 -67 31q-46 0 -70.5 -52.5t-24.5 -139.5q0 -189 100 -189q42 0 68 33z" />
    <glyph glyph-name="egrave" unicode="&#xe8;" horiz-adv-x="439" 
d="M397 229h-266q1 -75 27 -122.5t74 -47.5q56 0 86 71l64 -37q-45 -110 -153 -110q-86 0 -135 71t-49 196q0 120 50.5 194.5t132.5 74.5q87 0 128 -68t41 -181v-41zM311 298q0 68 -21.5 107.5t-63.5 39.5q-32 0 -54 -26.5t-30.5 -58t-8.5 -62.5h178zM285 571h-67l-107 144
h84z" />
    <glyph glyph-name="eacute" unicode="&#xe9;" horiz-adv-x="439" 
d="M397 229h-266q1 -75 27 -122.5t74 -47.5q56 0 86 71l64 -37q-45 -110 -153 -110q-86 0 -135 71t-49 196q0 120 50.5 194.5t132.5 74.5q87 0 128 -68t41 -181v-41zM311 298q0 68 -21.5 107.5t-63.5 39.5q-32 0 -54 -26.5t-30.5 -58t-8.5 -62.5h178zM352 715l-107 -144h-67
l90 144h84z" />
    <glyph glyph-name="ecircumflex" unicode="&#xea;" horiz-adv-x="439" 
d="M397 229h-266q1 -75 27 -122.5t74 -47.5q56 0 86 71l64 -37q-45 -110 -153 -110q-86 0 -135 71t-49 196q0 120 50.5 194.5t132.5 74.5q87 0 128 -68t41 -181v-41zM311 298q0 68 -21.5 107.5t-63.5 39.5q-32 0 -54 -26.5t-30.5 -58t-8.5 -62.5h178zM377 571h-74l-71 101
l-71 -101h-73l105 144h80z" />
    <glyph glyph-name="edieresis" unicode="&#xeb;" horiz-adv-x="439" 
d="M397 229h-266q1 -75 27 -122.5t74 -47.5q56 0 86 71l64 -37q-45 -110 -153 -110q-86 0 -135 71t-49 196q0 120 50.5 194.5t132.5 74.5q87 0 128 -68t41 -181v-41zM311 298q0 68 -21.5 107.5t-63.5 39.5q-32 0 -54 -26.5t-30.5 -58t-8.5 -62.5h178zM357 650q0 -22 -14 -37
t-34 -15t-34.5 15t-14.5 37t14.5 37.5t34.5 15.5q21 0 34.5 -15.5t13.5 -37.5zM204 650q0 -22 -14.5 -37t-34.5 -15q-22 0 -35 14.5t-13 37.5q0 22 13.5 37.5t34.5 15.5q20 0 34.5 -15.5t14.5 -37.5z" />
    <glyph glyph-name="igrave" unicode="&#xec;" horiz-adv-x="232" 
d="M158 0h-85v502h85v-502zM158 571h-67l-107 144h84z" />
    <glyph glyph-name="iacute" unicode="&#xed;" horiz-adv-x="232" 
d="M158 0h-85v502h85v-502zM248 715l-107 -144h-67l90 144h84z" />
    <glyph glyph-name="icircumflex" unicode="&#xee;" horiz-adv-x="232" 
d="M158 0h-85v502h85v-502zM261 571h-74l-71 101l-71 -101h-73l105 144h80z" />
    <glyph glyph-name="idieresis" unicode="&#xef;" horiz-adv-x="232" 
d="M158 0h-85v502h85v-502zM240 650q0 -22 -14 -37t-34 -15t-34.5 15t-14.5 37t14.5 37.5t34.5 15.5q21 0 34.5 -15.5t13.5 -37.5zM87 650q0 -22 -14.5 -37t-34.5 -15q-22 0 -35 14.5t-13 37.5q0 22 13.5 37.5t34.5 15.5q20 0 34.5 -15.5t14.5 -37.5z" />
    <glyph glyph-name="eth" unicode="&#xf0;" horiz-adv-x="450" 
d="M404 249q0 -119 -49.5 -192.5t-130.5 -73.5q-82 0 -131.5 73.5t-49.5 194.5q0 115 47.5 187t126.5 72q38 0 63 -25l2 2q-36 87 -89 147l-96 -55l-35 38l98 55q-30 35 -79 71l71 35q53 -46 78 -76l89 50l38 -37l-96 -53q56 -71 99.5 -183t43.5 -230zM320 251
q0 86 -24.5 140.5t-70.5 54.5t-70.5 -54.5t-24.5 -140.5t24.5 -140.5t70.5 -54.5t70.5 54.5t24.5 140.5z" />
    <glyph glyph-name="ntilde" unicode="&#xf1;" horiz-adv-x="483" 
d="M414 0h-86v320q0 123 -71 123q-43 0 -70 -43.5t-27 -111.5v-288h-85v375q0 78 -4 127h81q6 -50 6 -87h2q15 46 48 75t78 29q39 0 65.5 -16.5t39.5 -46.5t18 -62.5t5 -73.5v-320zM380 689q-3 -50 -23.5 -78t-53.5 -28q-29 0 -65 24q-33 22 -55 22q-28 0 -34 -46h-45
q3 49 23.5 77.5t53.5 28.5q29 0 66 -24q36 -23 56 -23q15 0 22.5 11t10.5 36h44z" />
    <glyph glyph-name="ograve" unicode="&#xf2;" horiz-adv-x="455" 
d="M410 250q0 -121 -49 -194t-134 -73q-84 0 -133 73.5t-49 193.5q0 122 48.5 195.5t133.5 73.5t134 -73.5t49 -195.5zM322 251q0 87 -24 140.5t-71 53.5t-70.5 -53.5t-23.5 -140.5q0 -86 23.5 -139.5t70.5 -53.5t71 53t24 140zM273 571h-67l-107 144h84z" />
    <glyph glyph-name="oacute" unicode="&#xf3;" horiz-adv-x="455" 
d="M410 250q0 -121 -49 -194t-134 -73q-84 0 -133 73.5t-49 193.5q0 122 48.5 195.5t133.5 73.5t134 -73.5t49 -195.5zM322 251q0 87 -24 140.5t-71 53.5t-70.5 -53.5t-23.5 -140.5q0 -86 23.5 -139.5t70.5 -53.5t71 53t24 140zM345 715l-107 -144h-67l90 144h84z" />
    <glyph glyph-name="ocircumflex" unicode="&#xf4;" horiz-adv-x="455" 
d="M410 250q0 -121 -49 -194t-134 -73q-84 0 -133 73.5t-49 193.5q0 122 48.5 195.5t133.5 73.5t134 -73.5t49 -195.5zM322 251q0 87 -24 140.5t-71 53.5t-70.5 -53.5t-23.5 -140.5q0 -86 23.5 -139.5t70.5 -53.5t71 53t24 140zM372 571h-74l-71 101l-71 -101h-73l105 144
h80z" />
    <glyph glyph-name="otilde" unicode="&#xf5;" horiz-adv-x="455" 
d="M410 250q0 -121 -49 -194t-134 -73q-84 0 -133 73.5t-49 193.5q0 122 48.5 195.5t133.5 73.5t134 -73.5t49 -195.5zM322 251q0 87 -24 140.5t-71 53.5t-70.5 -53.5t-23.5 -140.5q0 -86 23.5 -139.5t70.5 -53.5t71 53t24 140zM365 689q-3 -50 -23.5 -78t-53.5 -28
q-29 0 -65 24q-33 22 -55 22q-28 0 -34 -46h-45q3 49 23.5 77.5t53.5 28.5q29 0 66 -24q36 -23 56 -23q15 0 22.5 11t10.5 36h44z" />
    <glyph glyph-name="odieresis" unicode="&#xf6;" horiz-adv-x="455" 
d="M410 250q0 -121 -49 -194t-134 -73q-84 0 -133 73.5t-49 193.5q0 122 48.5 195.5t133.5 73.5t134 -73.5t49 -195.5zM322 251q0 87 -24 140.5t-71 53.5t-70.5 -53.5t-23.5 -140.5q0 -86 23.5 -139.5t70.5 -53.5t71 53t24 140zM352 650q0 -22 -14 -37t-34 -15t-34.5 15
t-14.5 37t14.5 37.5t34.5 15.5q21 0 34.5 -15.5t13.5 -37.5zM199 650q0 -22 -14.5 -37t-34.5 -15q-22 0 -35 14.5t-13 37.5q0 22 13.5 37.5t34.5 15.5q20 0 34.5 -15.5t14.5 -37.5z" />
    <glyph glyph-name="divide" unicode="&#xf7;" horiz-adv-x="666" 
d="M596 344v-82h-526v82h526zM398 132q0 -27 -19 -46t-46 -19t-46 19t-19 46q0 26 19 45.5t46 19.5t46 -19.5t19 -45.5zM398 469q0 -27 -19 -46t-46 -19t-46 19t-19 46q0 26 19 45.5t46 19.5t46 -19.5t19 -45.5z" />
    <glyph glyph-name="oslash" unicode="&#xf8;" horiz-adv-x="455" 
d="M398 525l-39 -76q51 -77 51 -199q0 -121 -49 -194t-134 -73q-54 0 -96 37l-29 -57l-40 22l37 68q-54 69 -54 197q0 122 48.5 195.5t133.5 73.5q58 0 99 -37l31 62zM130 251q0 -75 15 -118l143 283q-20 32 -61 32q-48 0 -72.5 -54t-24.5 -143zM325 251q0 67 -14 115
l-143 -276q23 -35 59 -35q49 0 73.5 54t24.5 142z" />
    <glyph glyph-name="ugrave" unicode="&#xf9;" horiz-adv-x="483" 
d="M69 502h86v-320q0 -123 71 -123q43 0 70 43.5t27 111.5v288h85v-375q0 -78 4 -127h-81q-6 50 -6 87h-2q-15 -46 -48 -75t-78 -29q-39 0 -65.5 16.5t-39.5 46.5t-18 62.5t-5 73.5v320zM280 571h-67l-107 144h84z" />
    <glyph glyph-name="uacute" unicode="&#xfa;" horiz-adv-x="483" 
d="M69 502h86v-320q0 -123 71 -123q43 0 70 43.5t27 111.5v288h85v-375q0 -78 4 -127h-81q-6 50 -6 87h-2q-15 -46 -48 -75t-78 -29q-39 0 -65.5 16.5t-39.5 46.5t-18 62.5t-5 73.5v320zM359 715l-107 -144h-67l90 144h84z" />
    <glyph glyph-name="ucircumflex" unicode="&#xfb;" horiz-adv-x="483" 
d="M69 502h86v-320q0 -123 71 -123q43 0 70 43.5t27 111.5v288h85v-375q0 -78 4 -127h-81q-6 50 -6 87h-2q-15 -46 -48 -75t-78 -29q-39 0 -65.5 16.5t-39.5 46.5t-18 62.5t-5 73.5v320zM386 571h-74l-71 101l-71 -101h-73l105 144h80z" />
    <glyph glyph-name="udieresis" unicode="&#xfc;" horiz-adv-x="483" 
d="M69 502h86v-320q0 -123 71 -123q43 0 70 43.5t27 111.5v288h85v-375q0 -78 4 -127h-81q-6 50 -6 87h-2q-15 -46 -48 -75t-78 -29q-39 0 -65.5 16.5t-39.5 46.5t-18 62.5t-5 73.5v320zM366 650q0 -22 -14 -37t-34 -15t-34.5 15t-14.5 37t14.5 37.5t34.5 15.5
q21 0 34.5 -15.5t13.5 -37.5zM213 650q0 -22 -14.5 -37t-34.5 -15q-22 0 -35 14.5t-13 37.5q0 22 13.5 37.5t34.5 15.5q20 0 34.5 -15.5t14.5 -37.5z" />
    <glyph glyph-name="yacute" unicode="&#xfd;" horiz-adv-x="396" 
d="M382 502l-155 -593q-20 -74 -51.5 -111.5t-90.5 -37.5q-33 0 -59 8l11 77q19 -7 40 -7q27 0 42 17t24 51l19 79l-148 517h90l99 -402h2l90 402h87zM330 715l-107 -144h-67l90 144h84z" />
    <glyph glyph-name="thorn" unicode="&#xfe;" horiz-adv-x="480" 
d="M73 756h83v-332h2q28 95 117 95q75 0 117.5 -75t42.5 -195t-41.5 -193t-118.5 -73q-42 0 -72.5 25t-42.5 65h-2v-313h-85v996zM156 252q0 -85 25.5 -139.5t71.5 -54.5q47 0 70.5 53.5t23.5 140.5q0 86 -23.5 139.5t-70.5 53.5t-72 -54t-25 -139z" />
    <glyph glyph-name="ydieresis" unicode="&#xff;" horiz-adv-x="396" 
d="M382 502l-155 -593q-20 -74 -51.5 -111.5t-90.5 -37.5q-33 0 -59 8l11 77q19 -7 40 -7q27 0 42 17t24 51l19 79l-148 517h90l99 -402h2l90 402h87zM330 650q0 -22 -14 -37t-34 -15t-34.5 15t-14.5 37t14.5 37.5t34.5 15.5q21 0 34.5 -15.5t13.5 -37.5zM177 650
q0 -22 -14.5 -37t-34.5 -15q-22 0 -35 14.5t-13 37.5q0 22 13.5 37.5t34.5 15.5q20 0 34.5 -15.5t14.5 -37.5z" />
    <glyph glyph-name="Amacron" unicode="&#x100;" horiz-adv-x="487" 
d="M479 0h-94l-40 166h-205l-41 -166h-91l178 708h119zM333 237l-87 387h-4l-90 -387h181zM373 807h-258v57h258v-57z" />
    <glyph glyph-name="amacron" unicode="&#x101;" horiz-adv-x="415" 
d="M359 0h-70q-8 48 -8 83h-2q-22 -96 -118 -96q-49 0 -86 37.5t-37 111.5q0 42 13 74t33 51t48 31t54 16t55 4h33v22q0 112 -83 112q-56 0 -93 -51l-43 53q24 33 64 52t80 19q83 0 118 -53t35 -158v-203q0 -63 7 -105zM276 218v29h-37q-121 0 -121 -102q0 -43 19 -66
t47 -23q47 0 69.5 50t22.5 112zM326 614h-258v57h258v-57z" />
    <glyph glyph-name="Abreve" unicode="&#x102;" horiz-adv-x="487" 
d="M479 0h-94l-40 166h-205l-41 -166h-91l178 708h119zM333 237l-87 387h-4l-90 -387h181zM378 901q-8 -68 -44.5 -100.5t-91.5 -32.5q-53 0 -90 33t-43 100h56q5 -37 26.5 -55.5t50.5 -18.5q68 0 80 74h56z" />
    <glyph glyph-name="abreve" unicode="&#x103;" horiz-adv-x="415" 
d="M359 0h-70q-8 48 -8 83h-2q-22 -96 -118 -96q-49 0 -86 37.5t-37 111.5q0 42 13 74t33 51t48 31t54 16t55 4h33v22q0 112 -83 112q-56 0 -93 -51l-43 53q24 33 64 52t80 19q83 0 118 -53t35 -158v-203q0 -63 7 -105zM276 218v29h-37q-121 0 -121 -102q0 -43 19 -66
t47 -23q47 0 69.5 50t22.5 112zM341 708q-8 -68 -44.5 -100.5t-91.5 -32.5q-53 0 -90 33t-43 100h56q5 -37 26.5 -55.5t50.5 -18.5q68 0 80 74h56z" />
    <glyph glyph-name="Aogonek" unicode="&#x104;" horiz-adv-x="487" 
d="M460 -144l20 -42q-36 -36 -85 -36q-39 0 -64.5 21.5t-25.5 61.5q0 66 86 139h-6l-40 166h-205l-41 -166h-91l178 708h119l174 -708h-34q-41 -42 -58.5 -68.5t-17.5 -52.5q0 -19 12.5 -31.5t30.5 -12.5q28 0 48 21zM333 237l-87 387h-4l-90 -387h181z" />
    <glyph glyph-name="aogonek" unicode="&#x105;" horiz-adv-x="415" 
d="M356 0h-17q-41 -42 -58.5 -68.5t-17.5 -52.5q0 -19 12.5 -31.5t30.5 -12.5q28 0 48 21l20 -42q-36 -36 -85 -36q-39 0 -64.5 21.5t-25.5 61.5q0 66 86 139h-1q-3 27 -3 83h-2q-22 -96 -118 -96q-49 0 -86 37.5t-37 111.5q0 42 13 74t33 51t48 31t54 16t55 4h33v22
q0 112 -83 112q-56 0 -93 -51l-43 53q24 33 64 52t80 19q83 0 118 -53t35 -158v-203q0 -69 4 -105zM276 218v29h-37q-121 0 -121 -102q0 -43 19 -66t47 -23q47 0 69.5 50t22.5 112z" />
    <glyph glyph-name="Cacute" unicode="&#x106;" horiz-adv-x="486" 
d="M469 76q-60 -93 -171 -93q-116 0 -183.5 104t-67.5 267t68.5 267t182.5 104q115 0 173 -85l-56 -61q-42 63 -113 63q-78 0 -119 -81.5t-41 -206.5q0 -124 42 -206t120 -82q70 0 111 69zM410 908l-107 -144h-67l90 144h84z" />
    <glyph glyph-name="cacute" unicode="&#x107;" horiz-adv-x="344" 
d="M339 29q-41 -46 -113 -46q-88 0 -134.5 72.5t-46.5 195.5q0 122 47.5 195t134.5 73q68 0 111 -43l-43 -64q-28 31 -67 31q-46 0 -70.5 -52.5t-24.5 -139.5q0 -189 100 -189q42 0 68 33zM342 715l-107 -144h-67l90 144h84z" />
    <glyph glyph-name="Ccircumflex" unicode="&#x108;" horiz-adv-x="486" 
d="M469 76q-60 -93 -171 -93q-116 0 -183.5 104t-67.5 267t68.5 267t182.5 104q115 0 173 -85l-56 -61q-42 63 -113 63q-78 0 -119 -81.5t-41 -206.5q0 -124 42 -206t120 -82q70 0 111 69zM447 764h-74l-71 101l-71 -101h-73l105 144h80z" />
    <glyph glyph-name="ccircumflex" unicode="&#x109;" horiz-adv-x="344" 
d="M339 29q-41 -46 -113 -46q-88 0 -134.5 72.5t-46.5 195.5q0 122 47.5 195t134.5 73q68 0 111 -43l-43 -64q-28 31 -67 31q-46 0 -70.5 -52.5t-24.5 -139.5q0 -189 100 -189q42 0 68 33zM369 571h-74l-71 101l-71 -101h-73l105 144h80z" />
    <glyph glyph-name="Cdotaccent" unicode="&#x10a;" horiz-adv-x="486" 
d="M469 76q-60 -93 -171 -93q-116 0 -183.5 104t-67.5 267t68.5 267t182.5 104q115 0 173 -85l-56 -61q-42 63 -113 63q-78 0 -119 -81.5t-41 -206.5q0 -124 42 -206t120 -82q70 0 111 69zM353 843q0 -24 -15 -40t-37 -16t-37 16t-15 40t15 40.5t37 16.5t37 -16.5t15 -40.5z
" />
    <glyph glyph-name="cdotaccent" unicode="&#x10b;" horiz-adv-x="344" 
d="M339 29q-41 -46 -113 -46q-88 0 -134.5 72.5t-46.5 195.5q0 122 47.5 195t134.5 73q68 0 111 -43l-43 -64q-28 31 -67 31q-46 0 -70.5 -52.5t-24.5 -139.5q0 -189 100 -189q42 0 68 33zM280 650q0 -24 -15 -40t-37 -16t-37 16t-15 40t15 40.5t37 16.5t37 -16.5t15 -40.5z
" />
    <glyph glyph-name="Ccaron" unicode="&#x10c;" horiz-adv-x="486" 
d="M469 76q-60 -93 -171 -93q-116 0 -183.5 104t-67.5 267t68.5 267t182.5 104q115 0 173 -85l-56 -61q-42 63 -113 63q-78 0 -119 -81.5t-41 -206.5q0 -124 42 -206t120 -82q70 0 111 69zM445 907l-104 -144h-80l-105 144h73l71 -101l71 101h74z" />
    <glyph glyph-name="ccaron" unicode="&#x10d;" horiz-adv-x="344" 
d="M339 29q-41 -46 -113 -46q-88 0 -134.5 72.5t-46.5 195.5q0 122 47.5 195t134.5 73q68 0 111 -43l-43 -64q-28 31 -67 31q-46 0 -70.5 -52.5t-24.5 -139.5q0 -189 100 -189q42 0 68 33zM370 714l-104 -144h-80l-105 144h73l71 -101l71 101h74z" />
    <glyph glyph-name="Dcaron" unicode="&#x10e;" horiz-adv-x="553" 
d="M506 353q0 -170 -70 -261.5t-196 -91.5h-162v708h163q126 0 195.5 -92t69.5 -263zM416 353q0 135 -48.5 205.5t-127.5 70.5h-73v-550h73q78 0 127 70.5t49 203.5zM385 907l-104 -144h-80l-105 144h73l71 -101l71 101h74z" />
    <glyph glyph-name="dcaron" unicode="&#x10f;" horiz-adv-x="530" 
d="M407 0h-83v79h-2q-28 -96 -117 -96q-75 0 -117.5 75.5t-42.5 195.5t41.5 192.5t118.5 72.5q42 0 72.5 -24.5t42.5 -64.5h2v326h85v-756zM324 251q0 85 -25.5 139.5t-71.5 54.5q-47 0 -70.5 -53.5t-23.5 -140.5q0 -86 23.5 -139.5t70.5 -53.5t72 54t25 139zM556 708
l-53 -185h-65l44 185h74z" />
    <glyph glyph-name="Dcroat" unicode="&#x110;" horiz-adv-x="551" 
d="M78 334h-57v61h57v313h163q126 0 195.5 -92t69.5 -263q0 -170 -70 -261.5t-196 -91.5h-162v334zM167 395h133v-61h-133v-255h73q78 0 127 70.5t49 203.5q0 135 -48.5 205.5t-127.5 70.5h-73v-234z" />
    <glyph glyph-name="dcroat" unicode="&#x111;" horiz-adv-x="480" 
d="M407 0h-83v79h-2q-28 -96 -117 -96q-75 0 -117.5 75.5t-42.5 195.5t41.5 192.5t118.5 72.5q42 0 72.5 -24.5t42.5 -64.5h2v150h-131v57h131v119h85v-119h42v-57h-42v-580zM324 251q0 85 -25.5 139.5t-71.5 54.5q-47 0 -70.5 -53.5t-23.5 -140.5q0 -86 23.5 -139.5
t70.5 -53.5t72 54t25 139z" />
    <glyph glyph-name="Emacron" unicode="&#x112;" horiz-adv-x="426" 
d="M386 0h-308v708h298v-80h-211v-223h197v-75h-197v-249h221v-81zM358 807h-258v57h258v-57z" />
    <glyph glyph-name="emacron" unicode="&#x113;" horiz-adv-x="439" 
d="M397 229h-266q1 -75 27 -122.5t74 -47.5q56 0 86 71l64 -37q-45 -110 -153 -110q-86 0 -135 71t-49 196q0 120 50.5 194.5t132.5 74.5q87 0 128 -68t41 -181v-41zM311 298q0 68 -21.5 107.5t-63.5 39.5q-32 0 -54 -26.5t-30.5 -58t-8.5 -62.5h178zM364 614h-258v57h258
v-57z" />
    <glyph glyph-name="Ebreve" unicode="&#x114;" horiz-adv-x="426" 
d="M386 0h-308v708h298v-80h-211v-223h197v-75h-197v-249h221v-81zM364 901q-8 -68 -44.5 -100.5t-91.5 -32.5q-53 0 -90 33t-43 100h56q5 -37 26.5 -55.5t50.5 -18.5q68 0 80 74h56z" />
    <glyph glyph-name="ebreve" unicode="&#x115;" horiz-adv-x="439" 
d="M397 229h-266q1 -75 27 -122.5t74 -47.5q56 0 86 71l64 -37q-45 -110 -153 -110q-86 0 -135 71t-49 196q0 120 50.5 194.5t132.5 74.5q87 0 128 -68t41 -181v-41zM311 298q0 68 -21.5 107.5t-63.5 39.5q-32 0 -54 -26.5t-30.5 -58t-8.5 -62.5h178zM366 708
q-8 -68 -44.5 -100.5t-91.5 -32.5q-53 0 -90 33t-43 100h56q5 -37 26.5 -55.5t50.5 -18.5q68 0 80 74h56z" />
    <glyph glyph-name="Edotaccent" unicode="&#x116;" horiz-adv-x="426" 
d="M386 0h-308v708h298v-80h-211v-223h197v-75h-197v-249h221v-81zM283 843q0 -24 -15 -40t-37 -16t-37 16t-15 40t15 40.5t37 16.5t37 -16.5t15 -40.5z" />
    <glyph glyph-name="edotaccent" unicode="&#x117;" horiz-adv-x="439" 
d="M397 229h-266q1 -75 27 -122.5t74 -47.5q56 0 86 71l64 -37q-45 -110 -153 -110q-86 0 -135 71t-49 196q0 120 50.5 194.5t132.5 74.5q87 0 128 -68t41 -181v-41zM311 298q0 68 -21.5 107.5t-63.5 39.5q-32 0 -54 -26.5t-30.5 -58t-8.5 -62.5h178zM282 650q0 -24 -15 -40
t-37 -16t-37 16t-15 40t15 40.5t37 16.5t37 -16.5t15 -40.5z" />
    <glyph glyph-name="Eogonek" unicode="&#x118;" horiz-adv-x="426" 
d="M386 -144l20 -42q-36 -36 -85 -36q-39 0 -64.5 21.5t-25.5 61.5q0 66 86 139h-239v708h298v-80h-211v-223h197v-75h-197v-249h221v-81h-15q-41 -42 -58.5 -68.5t-17.5 -52.5q0 -19 12.5 -31.5t30.5 -12.5q28 0 48 21z" />
    <glyph glyph-name="eogonek" unicode="&#x119;" horiz-adv-x="439" 
d="M397 229h-266q1 -75 27 -122.5t74 -47.5q56 0 86 71l64 -37q-37 -88 -114 -105q-63 -66 -63 -109q0 -19 12.5 -31.5t30.5 -12.5q28 0 48 21l20 -42q-36 -36 -85 -36q-39 0 -64.5 21.5t-25.5 61.5q0 60 67 123q-77 9 -120 79t-43 187q0 120 50.5 194.5t132.5 74.5
q87 0 128 -68t41 -181v-41zM311 298q0 68 -21.5 107.5t-63.5 39.5q-32 0 -54 -26.5t-30.5 -58t-8.5 -62.5h178z" />
    <glyph glyph-name="Ecaron" unicode="&#x11a;" horiz-adv-x="426" 
d="M386 0h-308v708h298v-80h-211v-223h197v-75h-197v-249h221v-81zM374 907l-104 -144h-80l-105 144h73l71 -101l71 101h74z" />
    <glyph glyph-name="ecaron" unicode="&#x11b;" horiz-adv-x="439" 
d="M397 229h-266q1 -75 27 -122.5t74 -47.5q56 0 86 71l64 -37q-45 -110 -153 -110q-86 0 -135 71t-49 196q0 120 50.5 194.5t132.5 74.5q87 0 128 -68t41 -181v-41zM311 298q0 68 -21.5 107.5t-63.5 39.5q-32 0 -54 -26.5t-30.5 -58t-8.5 -62.5h178zM375 714l-104 -144h-80
l-105 144h73l71 -101l71 101h74z" />
    <glyph glyph-name="Gcircumflex" unicode="&#x11c;" horiz-adv-x="541" 
d="M297 725q116 0 174 -85l-56 -61q-43 64 -114 64q-77 0 -118 -82t-41 -206q0 -128 43 -207.5t123 -79.5q56 0 85 24v219h-93v78h180v-345q-69 -57 -174 -57q-120 0 -189.5 100.5t-69.5 267.5q0 163 67.5 266.5t182.5 103.5zM446 764h-74l-71 101l-71 -101h-73l105 144h80z
" />
    <glyph glyph-name="gcircumflex" unicode="&#x11d;" horiz-adv-x="480" 
d="M324 251q0 85 -25.5 139.5t-71.5 54.5q-47 0 -70.5 -53.5t-23.5 -140.5q0 -86 23.5 -139.5t70.5 -53.5t72 54t25 139zM324 430v72h83v-502q0 -240 -190 -240q-50 0 -96 21.5t-75 57.5l53 60q50 -62 121 -62q104 0 104 163v79h-2q-28 -96 -117 -96q-75 0 -117.5 75.5
t-42.5 195.5t41.5 192.5t118.5 72.5q43 0 73.5 -24.5t42.5 -64.5h3zM388 571h-74l-71 101l-71 -101h-73l105 144h80z" />
    <glyph glyph-name="Gbreve" unicode="&#x11e;" horiz-adv-x="541" 
d="M297 725q116 0 174 -85l-56 -61q-43 64 -114 64q-77 0 -118 -82t-41 -206q0 -128 43 -207.5t123 -79.5q56 0 85 24v219h-93v78h180v-345q-69 -57 -174 -57q-120 0 -189.5 100.5t-69.5 267.5q0 163 67.5 266.5t182.5 103.5zM434 901q-8 -68 -44.5 -100.5t-91.5 -32.5
q-53 0 -90 33t-43 100h56q5 -37 26.5 -55.5t50.5 -18.5q68 0 80 74h56z" />
    <glyph glyph-name="gbreve" unicode="&#x11f;" horiz-adv-x="480" 
d="M324 251q0 85 -25.5 139.5t-71.5 54.5q-47 0 -70.5 -53.5t-23.5 -140.5q0 -86 23.5 -139.5t70.5 -53.5t72 54t25 139zM324 430v72h83v-502q0 -240 -190 -240q-50 0 -96 21.5t-75 57.5l53 60q50 -62 121 -62q104 0 104 163v79h-2q-28 -96 -117 -96q-75 0 -117.5 75.5
t-42.5 195.5t41.5 192.5t118.5 72.5q43 0 73.5 -24.5t42.5 -64.5h3zM376 708q-8 -68 -44.5 -100.5t-91.5 -32.5q-53 0 -90 33t-43 100h56q5 -37 26.5 -55.5t50.5 -18.5q68 0 80 74h56z" />
    <glyph glyph-name="Gdotaccent" unicode="&#x120;" horiz-adv-x="541" 
d="M297 725q116 0 174 -85l-56 -61q-43 64 -114 64q-77 0 -118 -82t-41 -206q0 -128 43 -207.5t123 -79.5q56 0 85 24v219h-93v78h180v-345q-69 -57 -174 -57q-120 0 -189.5 100.5t-69.5 267.5q0 163 67.5 266.5t182.5 103.5zM352 843q0 -24 -15 -40t-37 -16t-37 16t-15 40
t15 40.5t37 16.5t37 -16.5t15 -40.5z" />
    <glyph glyph-name="gdotaccent" unicode="&#x121;" horiz-adv-x="480" 
d="M324 251q0 85 -25.5 139.5t-71.5 54.5q-47 0 -70.5 -53.5t-23.5 -140.5q0 -86 23.5 -139.5t70.5 -53.5t72 54t25 139zM324 430v72h83v-502q0 -240 -190 -240q-50 0 -96 21.5t-75 57.5l53 60q50 -62 121 -62q104 0 104 163v79h-2q-28 -96 -117 -96q-75 0 -117.5 75.5
t-42.5 195.5t41.5 192.5t118.5 72.5q43 0 73.5 -24.5t42.5 -64.5h3zM298 650q0 -24 -15 -40t-37 -16t-37 16t-15 40t15 40.5t37 16.5t37 -16.5t15 -40.5z" />
    <glyph glyph-name="Gcommaaccent" unicode="&#x122;" horiz-adv-x="541" 
d="M297 725q116 0 174 -85l-56 -61q-43 64 -114 64q-77 0 -118 -82t-41 -206q0 -128 43 -207.5t123 -79.5q56 0 85 24v219h-93v78h180v-345q-69 -57 -174 -57q-120 0 -189.5 100.5t-69.5 267.5q0 163 67.5 266.5t182.5 103.5zM342 -45l-53 -185h-65l44 185h74z" />
    <glyph glyph-name="gcommaaccent" unicode="&#x123;" horiz-adv-x="480" 
d="M324 251q0 85 -25.5 139.5t-71.5 54.5q-47 0 -70.5 -53.5t-23.5 -140.5q0 -86 23.5 -139.5t70.5 -53.5t72 54t25 139zM324 430v72h83v-502q0 -240 -190 -240q-50 0 -96 21.5t-75 57.5l53 60q50 -62 121 -62q104 0 104 163v79h-2q-28 -96 -117 -96q-75 0 -117.5 75.5
t-42.5 195.5t41.5 192.5t118.5 72.5q43 0 73.5 -24.5t42.5 -64.5h3zM196 571l53 185h65l-44 -185h-74z" />
    <glyph glyph-name="Hcircumflex" unicode="&#x124;" horiz-adv-x="583" 
d="M505 0h-90v327h-247v-327h-90v708h90v-301h247v301h90v-708zM438 764h-74l-71 101l-71 -101h-73l105 144h80z" />
    <glyph glyph-name="hcircumflex" unicode="&#x125;" horiz-adv-x="482" 
d="M159 288v-288h-86v756h86v-339h2q13 44 46 73t78 29q39 0 65.5 -16.5t39.5 -46.5t18 -62.5t5 -73.5v-320h-86v320q0 123 -71 123q-43 0 -70 -43.5t-27 -111.5zM388 796h-74l-71 101l-71 -101h-73l105 144h80z" />
    <glyph glyph-name="Hbar" unicode="&#x126;" horiz-adv-x="583" 
d="M505 0h-90v327h-247v-327h-90v708h90v-141h247v141h90v-708zM168 407h247v103h-247v-103z" />
    <glyph glyph-name="hbar" unicode="&#x127;" horiz-adv-x="482" 
d="M282 580h-123v-163h2q13 44 46 73t78 29q39 0 65.5 -16.5t39.5 -46.5t18 -62.5t5 -73.5v-320h-86v320q0 123 -71 123q-43 0 -70 -43.5t-27 -111.5v-288h-86v580h-49v57h49v119h86v-119h123v-57z" />
    <glyph glyph-name="Itilde" unicode="&#x128;" horiz-adv-x="246" 
d="M168 0h-90v708h90v-708zM261 882q-3 -50 -23.5 -78t-53.5 -28q-29 0 -65 24q-33 22 -55 22q-28 0 -34 -46h-45q3 49 23.5 77.5t53.5 28.5q29 0 66 -24q36 -23 56 -23q15 0 22.5 11t10.5 36h44z" />
    <glyph glyph-name="itilde" unicode="&#x129;" horiz-adv-x="232" 
d="M158 0h-85v502h85v-502zM254 689q-3 -50 -23.5 -78t-53.5 -28q-29 0 -65 24q-33 22 -55 22q-28 0 -34 -46h-45q3 49 23.5 77.5t53.5 28.5q29 0 66 -24q36 -23 56 -23q15 0 22.5 11t10.5 36h44z" />
    <glyph glyph-name="Imacron" unicode="&#x12a;" horiz-adv-x="246" 
d="M168 0h-90v708h90v-708zM251 807h-258v57h258v-57z" />
    <glyph glyph-name="imacron" unicode="&#x12b;" horiz-adv-x="232" 
d="M158 0h-85v502h85v-502zM245 614h-258v57h258v-57z" />
    <glyph glyph-name="Iogonek" unicode="&#x12e;" horiz-adv-x="246" 
d="M177 -144l20 -42q-36 -36 -85 -36q-39 0 -64.5 21.5t-25.5 61.5q0 66 86 139h-30v708h90v-708h-6q-41 -42 -58.5 -68.5t-17.5 -52.5q0 -19 12.5 -31.5t30.5 -12.5q29 0 48 21z" />
    <glyph glyph-name="iogonek" unicode="&#x12f;" horiz-adv-x="232" 
d="M169 -144l20 -42q-36 -36 -85 -36q-39 0 -64.5 21.5t-25.5 61.5q0 66 86 139h-27v502h85v-502h-4q-41 -42 -58.5 -68.5t-17.5 -52.5q0 -19 12.5 -31.5t30.5 -12.5q29 0 48 21zM169 651q0 -24 -15.5 -40.5t-37.5 -16.5q-23 0 -38 16t-15 41q0 24 15.5 40.5t37.5 16.5
t37.5 -16.5t15.5 -40.5z" />
    <glyph glyph-name="Idotaccent" unicode="&#x130;" horiz-adv-x="246" 
d="M168 0h-90v708h90v-708zM175 843q0 -24 -15 -40t-37 -16t-37 16t-15 40t15 40.5t37 16.5t37 -16.5t15 -40.5z" />
    <glyph glyph-name="dotlessi" unicode="&#x131;" horiz-adv-x="232" 
d="M158 0h-85v502h85v-502z" />
    <glyph glyph-name="Jcircumflex" unicode="&#x134;" horiz-adv-x="395" 
d="M323 195q0 -103 -42.5 -157.5t-126.5 -54.5q-63 0 -104 33.5t-56 92.5l79 33q8 -32 28.5 -54t51.5 -22q80 0 80 138v504h90v-513zM422 764h-74l-71 101l-71 -101h-73l105 144h80z" />
    <glyph glyph-name="jcircumflex" unicode="&#x135;" horiz-adv-x="233" 
d="M160 -62q0 -178 -143 -178q-17 0 -40 5l7 78q12 -4 27 -4q64 0 64 105v558h85v-564zM263 571h-74l-71 101l-71 -101h-73l105 144h80z" />
    <glyph glyph-name="Kcommaaccent" unicode="&#x136;" horiz-adv-x="499" 
d="M491 0h-107l-216 355h-2v-355h-88v708h88v-315h2l204 315h104l-226 -328zM306 -45l-53 -185h-65l44 185h74z" />
    <glyph glyph-name="kcommaaccent" unicode="&#x137;" horiz-adv-x="421" 
d="M416 0h-101l-155 248h-2v-248h-85v756h85v-472h2l147 218h100l-172 -232zM270 -45l-53 -185h-65l44 185h74z" />
    <glyph glyph-name="Lacute" unicode="&#x139;" horiz-adv-x="373" 
d="M368 0h-290v708h90v-624h200v-84zM265 908l-107 -144h-67l90 144h84z" />
    <glyph glyph-name="lacute" unicode="&#x13a;" horiz-adv-x="232" 
d="M159 0h-86v756h86v-756zM247 943l-107 -144h-67l90 144h84z" />
    <glyph glyph-name="Lcommaaccent" unicode="&#x13b;" horiz-adv-x="373" 
d="M368 0h-290v708h90v-624h200v-84zM266 -45l-53 -185h-65l44 185h74z" />
    <glyph glyph-name="lcommaaccent" unicode="&#x13c;" horiz-adv-x="232" 
d="M159 0h-86v756h86v-756zM156 -45l-53 -185h-65l44 185h74z" />
    <glyph glyph-name="Lcaron" unicode="&#x13d;" horiz-adv-x="373" 
d="M368 0h-290v708h90v-624h200v-84zM345 708l-53 -185h-65l44 185h74z" />
    <glyph glyph-name="lcaron" unicode="&#x13e;" horiz-adv-x="282" 
d="M159 0h-86v756h86v-756zM318 708l-53 -185h-65l44 185h74z" />
    <glyph glyph-name="Ldot" unicode="&#x13f;" horiz-adv-x="373" 
d="M368 0h-290v708h90v-624h200v-84zM341 430q0 -24 -15 -40t-37 -16t-37 16t-15 40t15 40.5t37 16.5t37 -16.5t15 -40.5z" />
    <glyph glyph-name="ldot" unicode="&#x140;" horiz-adv-x="320" 
d="M159 0h-86v756h86v-756zM311 460q0 -24 -15 -40t-37 -16t-37 16t-15 40t15 40.5t37 16.5t37 -16.5t15 -40.5z" />
    <glyph glyph-name="Lslash" unicode="&#x141;" horiz-adv-x="369" 
d="M368 0h-290v229l-43 -44v81l43 44v398h90v-333l128 128v-81l-128 -128v-210h200v-84z" />
    <glyph glyph-name="lslash" unicode="&#x142;" horiz-adv-x="236" 
d="M209 434l-50 -52v-382h-86v319l-43 -44v77l43 43v361h86v-298l50 52v-76z" />
    <glyph glyph-name="Nacute" unicode="&#x143;" horiz-adv-x="573" 
d="M495 0h-105l-226 549h-3v-549h-83v708h108l223 -550h3v550h83v-708zM408 908l-107 -144h-67l90 144h84z" />
    <glyph glyph-name="nacute" unicode="&#x144;" horiz-adv-x="483" 
d="M414 0h-86v320q0 123 -71 123q-43 0 -70 -43.5t-27 -111.5v-288h-85v375q0 78 -4 127h81q6 -50 6 -87h2q15 46 48 75t78 29q39 0 65.5 -16.5t39.5 -46.5t18 -62.5t5 -73.5v-320zM362 715l-107 -144h-67l90 144h84z" />
    <glyph glyph-name="Ncommaaccent" unicode="&#x145;" horiz-adv-x="573" 
d="M495 0h-105l-226 549h-3v-549h-83v708h108l223 -550h3v550h83v-708zM324 -45l-53 -185h-65l44 185h74z" />
    <glyph glyph-name="ncommaaccent" unicode="&#x146;" horiz-adv-x="483" 
d="M414 0h-86v320q0 123 -71 123q-43 0 -70 -43.5t-27 -111.5v-288h-85v375q0 78 -4 127h81q6 -50 6 -87h2q15 46 48 75t78 29q39 0 65.5 -16.5t39.5 -46.5t18 -62.5t5 -73.5v-320zM276 -45l-53 -185h-65l44 185h74z" />
    <glyph glyph-name="Ncaron" unicode="&#x147;" horiz-adv-x="573" 
d="M495 0h-105l-226 549h-3v-549h-83v708h108l223 -550h3v550h83v-708zM431 907l-104 -144h-80l-105 144h73l71 -101l71 101h74z" />
    <glyph glyph-name="ncaron" unicode="&#x148;" horiz-adv-x="483" 
d="M414 0h-86v320q0 123 -71 123q-43 0 -70 -43.5t-27 -111.5v-288h-85v375q0 78 -4 127h81q6 -50 6 -87h2q15 46 48 75t78 29q39 0 65.5 -16.5t39.5 -46.5t18 -62.5t5 -73.5v-320zM389 714l-104 -144h-80l-105 144h73l71 -101l71 101h74z" />
    <glyph glyph-name="Omacron" unicode="&#x14c;" horiz-adv-x="579" 
d="M532 355q0 -168 -65 -270t-177 -102q-113 0 -178 102t-65 270q0 169 64 269.5t179 100.5q112 0 177 -101t65 -269zM437 355q0 126 -38.5 207.5t-108.5 81.5q-71 0 -109.5 -81t-38.5 -208t38.5 -208t109.5 -81q70 0 108.5 81.5t38.5 207.5zM419 807h-258v57h258v-57z" />
    <glyph glyph-name="omacron" unicode="&#x14d;" horiz-adv-x="455" 
d="M410 250q0 -121 -49 -194t-134 -73q-84 0 -133 73.5t-49 193.5q0 122 48.5 195.5t133.5 73.5t134 -73.5t49 -195.5zM322 251q0 87 -24 140.5t-71 53.5t-70.5 -53.5t-23.5 -140.5q0 -86 23.5 -139.5t70.5 -53.5t71 53t24 140zM355 614h-258v57h258v-57z" />
    <glyph glyph-name="Obreve" unicode="&#x14e;" horiz-adv-x="579" 
d="M532 355q0 -168 -65 -270t-177 -102q-113 0 -178 102t-65 270q0 169 64 269.5t179 100.5q112 0 177 -101t65 -269zM437 355q0 126 -38.5 207.5t-108.5 81.5q-71 0 -109.5 -81t-38.5 -208t38.5 -208t109.5 -81q70 0 108.5 81.5t38.5 207.5zM423 901q-8 -68 -44.5 -100.5
t-91.5 -32.5q-53 0 -90 33t-43 100h56q5 -37 26.5 -55.5t50.5 -18.5q68 0 80 74h56z" />
    <glyph glyph-name="obreve" unicode="&#x14f;" horiz-adv-x="455" 
d="M410 250q0 -121 -49 -194t-134 -73q-84 0 -133 73.5t-49 193.5q0 122 48.5 195.5t133.5 73.5t134 -73.5t49 -195.5zM322 251q0 87 -24 140.5t-71 53.5t-70.5 -53.5t-23.5 -140.5q0 -86 23.5 -139.5t70.5 -53.5t71 53t24 140zM362 708q-8 -68 -44.5 -100.5t-91.5 -32.5
q-53 0 -90 33t-43 100h56q5 -37 26.5 -55.5t50.5 -18.5q68 0 80 74h56z" />
    <glyph glyph-name="Ohungarumlaut" unicode="&#x150;" horiz-adv-x="579" 
d="M532 355q0 -168 -65 -270t-177 -102q-113 0 -178 102t-65 270q0 169 64 269.5t179 100.5q112 0 177 -101t65 -269zM437 355q0 126 -38.5 207.5t-108.5 81.5q-71 0 -109.5 -81t-38.5 -208t38.5 -208t109.5 -81q70 0 108.5 81.5t38.5 207.5zM359 908l-108 -144h-65l90 144
h83zM496 908l-107 -144h-65l90 144h82z" />
    <glyph glyph-name="ohungarumlaut" unicode="&#x151;" horiz-adv-x="455" 
d="M410 250q0 -121 -49 -194t-134 -73q-84 0 -133 73.5t-49 193.5q0 122 48.5 195.5t133.5 73.5t134 -73.5t49 -195.5zM322 251q0 87 -24 140.5t-71 53.5t-70.5 -53.5t-23.5 -140.5q0 -86 23.5 -139.5t70.5 -53.5t71 53t24 140zM293 715l-108 -144h-65l90 144h83zM430 715
l-107 -144h-65l90 144h82z" />
    <glyph glyph-name="OE" unicode="&#x152;" horiz-adv-x="684" 
d="M644 0h-331q-126 0 -196 92t-70 263q0 170 70 261.5t196 91.5h322v-80h-201v-223h187v-75h-187v-249h210v-81zM349 79v550h-35q-78 0 -127 -70.5t-49 -203.5q0 -135 48.5 -205.5t127.5 -70.5h35z" />
    <glyph glyph-name="oe" unicode="&#x153;" horiz-adv-x="711" 
d="M364 74q-39 -91 -137 -91q-84 0 -133 73.5t-49 193.5q0 122 48.5 195.5t133.5 73.5q48 0 84.5 -24.5t55.5 -69.5q17 43 52 68.5t81 25.5q87 0 128 -68t41 -181v-41h-266q1 -75 27 -122.5t74 -47.5q56 0 86 71l64 -37q-45 -110 -153 -110q-97 0 -137 91zM322 251
q0 87 -24 140.5t-71 53.5t-70.5 -53.5t-23.5 -140.5q0 -86 23.5 -139.5t70.5 -53.5t71 53t24 140zM583 298q0 68 -21.5 107.5t-63.5 39.5q-45 0 -69 -48t-24 -99h178z" />
    <glyph glyph-name="Racute" unicode="&#x154;" horiz-adv-x="492" 
d="M464 0h-96l-120 316h-82v-316h-88v708h183q84 0 137 -47t53 -146q0 -79 -36 -125.5t-83 -56.5zM362 511q0 65 -32.5 93t-82.5 28h-81v-246h83q52 0 82.5 33t30.5 92zM358 908l-107 -144h-67l90 144h84z" />
    <glyph glyph-name="racute" unicode="&#x155;" horiz-adv-x="285" 
d="M160 398q12 60 41 90.5t68 30.5q8 0 12 -1l-4 -89q-10 2 -17 2q-45 0 -72 -53.5t-27 -123.5v-254h-86v375q0 78 -4 127h81q6 -50 6 -104h2zM265 715l-107 -144h-67l90 144h84z" />
    <glyph glyph-name="Rcommaaccent" unicode="&#x156;" horiz-adv-x="492" 
d="M464 0h-96l-120 316h-82v-316h-88v708h183q84 0 137 -47t53 -146q0 -79 -36 -125.5t-83 -56.5zM362 511q0 65 -32.5 93t-82.5 28h-81v-246h83q52 0 82.5 33t30.5 92zM299 -45l-53 -185h-65l44 185h74z" />
    <glyph glyph-name="rcommaaccent" unicode="&#x157;" horiz-adv-x="285" 
d="M160 398q12 60 41 90.5t68 30.5q8 0 12 -1l-4 -89q-10 2 -17 2q-45 0 -72 -53.5t-27 -123.5v-254h-86v375q0 78 -4 127h81q6 -50 6 -104h2zM158 -45l-53 -185h-65l44 185h74z" />
    <glyph glyph-name="Rcaron" unicode="&#x158;" horiz-adv-x="492" 
d="M464 0h-96l-120 316h-82v-316h-88v708h183q84 0 137 -47t53 -146q0 -79 -36 -125.5t-83 -56.5zM362 511q0 65 -32.5 93t-82.5 28h-81v-246h83q52 0 82.5 33t30.5 92zM388 907l-104 -144h-80l-105 144h73l71 -101l71 101h74z" />
    <glyph glyph-name="rcaron" unicode="&#x159;" horiz-adv-x="285" 
d="M160 398q12 60 41 90.5t68 30.5q8 0 12 -1l-4 -89q-10 2 -17 2q-45 0 -72 -53.5t-27 -123.5v-254h-86v375q0 78 -4 127h81q6 -50 6 -104h2zM317 714l-104 -144h-80l-105 144h73l71 -101l71 101h74z" />
    <glyph glyph-name="Sacute" unicode="&#x15a;" horiz-adv-x="440" 
d="M398 188q0 -94 -54 -149.5t-137 -55.5q-53 0 -101.5 22.5t-78.5 59.5l53 65q50 -64 127 -64q46 0 74.5 31t28.5 86q0 49 -29.5 80.5t-85.5 59.5q-68 34 -105.5 78.5t-37.5 122.5q0 97 55.5 149t132.5 52q105 0 159 -68l-54 -64q-38 50 -102 50q-43 0 -73.5 -29.5
t-30.5 -87.5q0 -48 27 -77t79 -56q70 -35 111.5 -81t41.5 -124zM359 908l-107 -144h-67l90 144h84z" />
    <glyph glyph-name="sacute" unicode="&#x15b;" horiz-adv-x="353" 
d="M321 463l-49 -56q-30 44 -82 44q-29 0 -48 -21t-19 -55q0 -33 17.5 -49t61.5 -33q115 -43 115 -150q0 -76 -42.5 -118t-110.5 -42q-89 0 -144 68l50 55q41 -52 97 -52q32 0 50.5 23t18.5 60q0 39 -22 58t-68 36q-48 18 -76 49t-28 92q0 65 42.5 106t105.5 41
q83 0 131 -56zM306 715l-107 -144h-67l90 144h84z" />
    <glyph glyph-name="Scircumflex" unicode="&#x15c;" horiz-adv-x="440" 
d="M398 188q0 -94 -54 -149.5t-137 -55.5q-53 0 -101.5 22.5t-78.5 59.5l53 65q50 -64 127 -64q46 0 74.5 31t28.5 86q0 49 -29.5 80.5t-85.5 59.5q-68 34 -105.5 78.5t-37.5 122.5q0 97 55.5 149t132.5 52q105 0 159 -68l-54 -64q-38 50 -102 50q-43 0 -73.5 -29.5
t-30.5 -87.5q0 -48 27 -77t79 -56q70 -35 111.5 -81t41.5 -124zM377 764h-74l-71 101l-71 -101h-73l105 144h80z" />
    <glyph glyph-name="scircumflex" unicode="&#x15d;" horiz-adv-x="353" 
d="M321 463l-49 -56q-30 44 -82 44q-29 0 -48 -21t-19 -55q0 -33 17.5 -49t61.5 -33q115 -43 115 -150q0 -76 -42.5 -118t-110.5 -42q-89 0 -144 68l50 55q41 -52 97 -52q32 0 50.5 23t18.5 60q0 39 -22 58t-68 36q-48 18 -76 49t-28 92q0 65 42.5 106t105.5 41
q83 0 131 -56zM335 571h-74l-71 101l-71 -101h-73l105 144h80z" />
    <glyph glyph-name="Scedilla" unicode="&#x15e;" horiz-adv-x="440" 
d="M398 188q0 -86 -45.5 -140t-118.5 -63l-34 -57q8 3 30 3q31 0 54.5 -18t23.5 -54q0 -47 -34.5 -68t-79.5 -21q-52 0 -91 19l17 41q28 -14 68 -14q19 0 37.5 10t18.5 31q0 37 -47 37q-22 0 -41 -8l-19 17l48 81q-48 4 -90 26t-68 55l53 65q50 -64 127 -64q46 0 74.5 31
t28.5 86q0 49 -29.5 80.5t-85.5 59.5q-68 34 -105.5 78.5t-37.5 122.5q0 97 55.5 148.5t132.5 51.5q105 0 159 -68l-54 -64q-38 50 -102 50q-43 0 -73.5 -29t-30.5 -87q0 -48 27 -77t79 -56q70 -35 111.5 -81t41.5 -124z" />
    <glyph glyph-name="scedilla" unicode="&#x15f;" horiz-adv-x="353" 
d="M321 463l-49 -56q-30 44 -82 44q-29 0 -48 -21t-19 -55q0 -33 17.5 -49t61.5 -33q115 -43 115 -150q0 -64 -31 -104.5t-83 -51.5l-35 -59q8 3 30 3q31 0 54.5 -18t23.5 -54q0 -47 -34.5 -68t-79.5 -21q-52 0 -91 19l17 41q28 -14 68 -14q19 0 37.5 10t18.5 31
q0 37 -47 37q-22 0 -41 -8l-19 17l48 80q-83 5 -133 68l50 55q41 -52 97 -52q32 0 50.5 23t18.5 60q0 39 -22 58t-68 36q-48 18 -76 49t-28 92q0 65 42.5 106t105.5 41q83 0 131 -56z" />
    <glyph glyph-name="Scaron" unicode="&#x160;" horiz-adv-x="440" 
d="M398 188q0 -94 -54 -149.5t-137 -55.5q-53 0 -101.5 22.5t-78.5 59.5l53 65q50 -64 127 -64q46 0 74.5 31t28.5 86q0 49 -29.5 80.5t-85.5 59.5q-68 34 -105.5 78.5t-37.5 122.5q0 97 55.5 149t132.5 52q105 0 159 -68l-54 -64q-38 50 -102 50q-43 0 -73.5 -29.5
t-30.5 -87.5q0 -48 27 -77t79 -56q70 -35 111.5 -81t41.5 -124zM375 907l-104 -144h-80l-105 144h73l71 -101l71 101h74z" />
    <glyph glyph-name="scaron" unicode="&#x161;" horiz-adv-x="353" 
d="M321 463l-49 -56q-30 44 -82 44q-29 0 -48 -21t-19 -55q0 -33 17.5 -49t61.5 -33q115 -43 115 -150q0 -76 -42.5 -118t-110.5 -42q-89 0 -144 68l50 55q41 -52 97 -52q32 0 50.5 23t18.5 60q0 39 -22 58t-68 36q-48 18 -76 49t-28 92q0 65 42.5 106t105.5 41
q83 0 131 -56zM332 714l-104 -144h-80l-105 144h73l71 -101l71 101h74z" />
    <glyph glyph-name="Tcommaaccent" unicode="&#x162;" horiz-adv-x="359" 
d="M359 631h-135v-631h-89v631h-135v77h359v-77zM220 -45l-53 -185h-65l44 185h74z" />
    <glyph glyph-name="tcommaaccent" unicode="&#x163;" horiz-adv-x="264" 
d="M252 1q-26 -14 -65 -14q-107 0 -107 140v306h-64v69h63v134h83v-134h89v-69h-89v-289q0 -83 52 -83q18 0 36 8zM206 -45l-53 -185h-65l44 185h74z" />
    <glyph glyph-name="Tcaron" unicode="&#x164;" horiz-adv-x="359" 
d="M359 631h-135v-631h-89v631h-135v77h359v-77zM325 907l-104 -144h-80l-105 144h73l71 -101l71 101h74z" />
    <glyph glyph-name="tcaron" unicode="&#x165;" horiz-adv-x="302" 
d="M252 1q-26 -14 -65 -14q-107 0 -107 140v306h-64v69h63v134h83v-134h89v-69h-89v-289q0 -83 52 -83q18 0 36 8zM314 731l-53 -185h-65l44 185h74z" />
    <glyph glyph-name="Tbar" unicode="&#x166;" horiz-adv-x="355" 
d="M304 469h-82v-469h-89v469h-87v57h87v105h-135v77h359v-77h-135v-105h82v-57z" />
    <glyph glyph-name="tbar" unicode="&#x167;" horiz-adv-x="264" 
d="M236 270h-74v-126q0 -83 52 -83q18 0 36 8l2 -68q-26 -14 -65 -14q-107 0 -107 140v143h-47v57h47v106h-64v69h63v134h83v-134h89v-69h-89v-106h74v-57z" />
    <glyph glyph-name="Utilde" unicode="&#x168;" horiz-adv-x="557" 
d="M489 243q0 -117 -50.5 -188.5t-161.5 -71.5q-110 0 -159.5 71.5t-49.5 188.5v465h90v-456q0 -186 121 -186q120 0 120 186v456h90v-465zM417 882q-3 -50 -23.5 -78t-53.5 -28q-29 0 -65 24q-33 22 -55 22q-28 0 -34 -46h-45q3 49 23.5 77.5t53.5 28.5q29 0 66 -24
q36 -23 56 -23q15 0 22.5 11t10.5 36h44z" />
    <glyph glyph-name="utilde" unicode="&#x169;" horiz-adv-x="483" 
d="M69 502h86v-320q0 -123 71 -123q43 0 70 43.5t27 111.5v288h85v-375q0 -78 4 -127h-81q-6 50 -6 87h-2q-15 -46 -48 -75t-78 -29q-39 0 -65.5 16.5t-39.5 46.5t-18 62.5t-5 73.5v320zM377 689q-3 -50 -23.5 -78t-53.5 -28q-29 0 -65 24q-33 22 -55 22q-28 0 -34 -46h-45
q3 49 23.5 77.5t53.5 28.5q29 0 66 -24q36 -23 56 -23q15 0 22.5 11t10.5 36h44z" />
    <glyph glyph-name="Umacron" unicode="&#x16a;" horiz-adv-x="557" 
d="M489 243q0 -117 -50.5 -188.5t-161.5 -71.5q-110 0 -159.5 71.5t-49.5 188.5v465h90v-456q0 -186 121 -186q120 0 120 186v456h90v-465zM408 807h-258v57h258v-57z" />
    <glyph glyph-name="umacron" unicode="&#x16b;" horiz-adv-x="483" 
d="M69 502h86v-320q0 -123 71 -123q43 0 70 43.5t27 111.5v288h85v-375q0 -78 4 -127h-81q-6 50 -6 87h-2q-15 -46 -48 -75t-78 -29q-39 0 -65.5 16.5t-39.5 46.5t-18 62.5t-5 73.5v320zM368 614h-258v57h258v-57z" />
    <glyph glyph-name="Ubreve" unicode="&#x16c;" horiz-adv-x="557" 
d="M489 243q0 -117 -50.5 -188.5t-161.5 -71.5q-110 0 -159.5 71.5t-49.5 188.5v465h90v-456q0 -186 121 -186q120 0 120 186v456h90v-465zM413 901q-8 -68 -44.5 -100.5t-91.5 -32.5q-53 0 -90 33t-43 100h56q5 -37 26.5 -55.5t50.5 -18.5q68 0 80 74h56z" />
    <glyph glyph-name="ubreve" unicode="&#x16d;" horiz-adv-x="483" 
d="M69 502h86v-320q0 -123 71 -123q43 0 70 43.5t27 111.5v288h85v-375q0 -78 4 -127h-81q-6 50 -6 87h-2q-15 -46 -48 -75t-78 -29q-39 0 -65.5 16.5t-39.5 46.5t-18 62.5t-5 73.5v320zM375 708q-8 -68 -44.5 -100.5t-91.5 -32.5q-53 0 -90 33t-43 100h56q5 -37 26.5 -55.5
t50.5 -18.5q68 0 80 74h56z" />
    <glyph glyph-name="Uring" unicode="&#x16e;" horiz-adv-x="557" 
d="M489 243q0 -117 -50.5 -188.5t-161.5 -71.5q-110 0 -159.5 71.5t-49.5 188.5v465h90v-456q0 -186 121 -186q120 0 120 186v456h90v-465zM374 852q0 -44 -27.5 -73.5t-68.5 -29.5t-67.5 29.5t-26.5 73.5t26.5 73.5t67.5 29.5t68.5 -29.5t27.5 -73.5zM334 852q0 28 -15 47
t-41 19q-25 0 -39.5 -19t-14.5 -47t14.5 -47t39.5 -19q26 0 41 19t15 47z" />
    <glyph glyph-name="uring" unicode="&#x16f;" horiz-adv-x="483" 
d="M69 502h86v-320q0 -123 71 -123q43 0 70 43.5t27 111.5v288h85v-375q0 -78 4 -127h-81q-6 50 -6 87h-2q-15 -46 -48 -75t-78 -29q-39 0 -65.5 16.5t-39.5 46.5t-18 62.5t-5 73.5v320zM333 659q0 -44 -27.5 -73.5t-68.5 -29.5t-67.5 29.5t-26.5 73.5t26.5 73.5t67.5 29.5
t68.5 -29.5t27.5 -73.5zM293 659q0 28 -15 47t-41 19q-25 0 -39.5 -19t-14.5 -47t14.5 -47t39.5 -19q26 0 41 19t15 47z" />
    <glyph glyph-name="Uhungarumlaut" unicode="&#x170;" horiz-adv-x="557" 
d="M489 243q0 -117 -50.5 -188.5t-161.5 -71.5q-110 0 -159.5 71.5t-49.5 188.5v465h90v-456q0 -186 121 -186q120 0 120 186v456h90v-465zM346 908l-108 -144h-65l90 144h83zM483 908l-107 -144h-65l90 144h82z" />
    <glyph glyph-name="uhungarumlaut" unicode="&#x171;" horiz-adv-x="483" 
d="M69 502h86v-320q0 -123 71 -123q43 0 70 43.5t27 111.5v288h85v-375q0 -78 4 -127h-81q-6 50 -6 87h-2q-15 -46 -48 -75t-78 -29q-39 0 -65.5 16.5t-39.5 46.5t-18 62.5t-5 73.5v320zM306 715l-108 -144h-65l90 144h83zM443 715l-107 -144h-65l90 144h82z" />
    <glyph glyph-name="Uogonek" unicode="&#x172;" horiz-adv-x="557" 
d="M353 -144l20 -42q-36 -36 -85 -36q-39 0 -64.5 21.5t-25.5 61.5q0 61 67 122q-71 3 -116 39.5t-63 91.5t-18 129v465h90v-456q0 -186 121 -186q120 0 120 186v456h90v-465q0 -103 -39.5 -171.5t-124.5 -83.5q-63 -66 -63 -109q0 -19 12.5 -31.5t30.5 -12.5q29 0 48 21z
" />
    <glyph glyph-name="uogonek" unicode="&#x173;" horiz-adv-x="483" 
d="M69 502h86v-320q0 -123 71 -123q43 0 70 43.5t27 111.5v288h85v-375q0 -78 4 -127h-26q-41 -42 -58.5 -68.5t-17.5 -52.5q0 -19 12.5 -31.5t30.5 -12.5q29 0 48 21l20 -42q-36 -36 -85 -36q-39 0 -64.5 21.5t-25.5 61.5q0 66 86 139h-1q-6 50 -6 87h-2q-15 -46 -48 -75
t-78 -29q-39 0 -65.5 16.5t-39.5 46.5t-18 62.5t-5 73.5v320z" />
    <glyph glyph-name="Wcircumflex" unicode="&#x174;" horiz-adv-x="744" 
d="M732 708l-137 -708h-115l-106 573h-2l-106 -573h-115l-136 708h92l104 -590h3l109 590h105l111 -590h2l103 590h88zM520 764h-74l-71 101l-71 -101h-73l105 144h80z" />
    <glyph glyph-name="wcircumflex" unicode="&#x175;" horiz-adv-x="600" 
d="M580 502l-107 -502h-98l-77 380h-1l-78 -380h-95l-104 502h87l70 -404h2l81 404h79l83 -404h1l71 404h86zM446 571h-74l-71 101l-71 -101h-73l105 144h80z" />
    <glyph glyph-name="Ycircumflex" unicode="&#x176;" horiz-adv-x="437" 
d="M440 708l-178 -425v-283h-89v283l-176 425h98l123 -333l126 333h96zM364 764h-74l-71 101l-71 -101h-73l105 144h80z" />
    <glyph glyph-name="ycircumflex" unicode="&#x177;" horiz-adv-x="396" 
d="M382 502l-155 -593q-20 -74 -51.5 -111.5t-90.5 -37.5q-33 0 -59 8l11 77q19 -7 40 -7q27 0 42 17t24 51l19 79l-148 517h90l99 -402h2l90 402h87zM349 571h-74l-71 101l-71 -101h-73l105 144h80z" />
    <glyph glyph-name="Ydieresis" unicode="&#x178;" horiz-adv-x="437" 
d="M440 708l-178 -425v-283h-89v283l-176 425h98l123 -333l126 333h96zM190 839q0 -22 -14.5 -37t-34.5 -15q-22 0 -35 14.5t-13 37.5q0 22 13.5 37.5t34.5 15.5q20 0 34.5 -15.5t14.5 -37.5zM343 839q0 -22 -14 -37t-34 -15t-34.5 15t-14.5 37t14.5 37.5t34.5 15.5
q21 0 34.5 -15.5t13.5 -37.5z" />
    <glyph glyph-name="Zacute" unicode="&#x179;" horiz-adv-x="411" 
d="M374 0h-349v76l253 552h-238v80h334v-76l-251 -550h251v-82zM326 908l-107 -144h-67l90 144h84z" />
    <glyph glyph-name="zacute" unicode="&#x17a;" horiz-adv-x="347" 
d="M318 0h-292v73l202 356h-187v73h276v-71l-202 -358h203v-73zM290 715l-107 -144h-67l90 144h84z" />
    <glyph glyph-name="Zdotaccent" unicode="&#x17b;" horiz-adv-x="411" 
d="M374 0h-349v76l253 552h-238v80h334v-76l-251 -550h251v-82zM260 843q0 -24 -15 -40t-37 -16t-37 16t-15 40t15 40.5t37 16.5t37 -16.5t15 -40.5z" />
    <glyph glyph-name="zdotaccent" unicode="&#x17c;" horiz-adv-x="347" 
d="M318 0h-292v73l202 356h-187v73h276v-71l-202 -358h203v-73zM234 650q0 -24 -15 -40t-37 -16t-37 16t-15 40t15 40.5t37 16.5t37 -16.5t15 -40.5z" />
    <glyph glyph-name="Zcaron" unicode="&#x17d;" horiz-adv-x="411" 
d="M374 0h-349v76l253 552h-238v80h334v-76l-251 -550h251v-82zM355 907l-104 -144h-80l-105 144h73l71 -101l71 101h74z" />
    <glyph glyph-name="zcaron" unicode="&#x17e;" horiz-adv-x="347" 
d="M318 0h-292v73l202 356h-187v73h276v-71l-202 -358h203v-73zM327 714l-104 -144h-80l-105 144h73l71 -101l71 101h74z" />
    <glyph glyph-name="florin" unicode="&#x192;" horiz-adv-x="482" 
d="M450 700l-25 -69q-22 16 -49 16q-35 0 -52 -24.5t-25 -69.5l-22 -130h105v-64h-115l-59 -355q-24 -146 -136 -146q-40 0 -63 11l18 72q14 -8 31 -8q35 0 48.5 25.5t22.5 81.5l52 319h-95v64h103l20 122q6 40 15.5 69t27 55.5t45.5 40t67 13.5q52 0 86 -23z" />
    <glyph glyph-name="Scommaaccent" unicode="&#x218;" horiz-adv-x="440" 
d="M398 188q0 -94 -54 -149.5t-137 -55.5q-53 0 -101.5 22.5t-78.5 59.5l53 65q50 -64 127 -64q46 0 74.5 31t28.5 86q0 49 -29.5 80.5t-85.5 59.5q-68 34 -105.5 78.5t-37.5 122.5q0 97 55.5 149t132.5 52q105 0 159 -68l-54 -64q-38 50 -102 50q-43 0 -73.5 -29.5
t-30.5 -87.5q0 -48 27 -77t79 -56q70 -35 111.5 -81t41.5 -124zM249 -45l-53 -185h-65l44 185h74z" />
    <glyph glyph-name="scommaaccent" unicode="&#x219;" horiz-adv-x="353" 
d="M321 463l-49 -56q-30 44 -82 44q-29 0 -48 -21t-19 -55q0 -33 17.5 -49t61.5 -33q115 -43 115 -150q0 -76 -42.5 -118t-110.5 -42q-89 0 -144 68l50 55q41 -52 97 -52q32 0 50.5 23t18.5 60q0 39 -22 58t-68 36q-48 18 -76 49t-28 92q0 65 42.5 106t105.5 41
q83 0 131 -56zM208 -45l-53 -185h-65l44 185h74z" />
    <glyph glyph-name="uni021A" unicode="&#x21a;" horiz-adv-x="359" 
d="M359 631h-135v-631h-89v631h-135v77h359v-77zM219 -45l-53 -185h-65l44 185h74z" />
    <glyph glyph-name="uni021B" unicode="&#x21b;" horiz-adv-x="264" 
d="M252 1q-26 -14 -65 -14q-107 0 -107 140v306h-64v69h63v134h83v-134h89v-69h-89v-289q0 -83 52 -83q18 0 36 8zM204 -45l-53 -185h-65l44 185h74z" />
    <glyph glyph-name="circumflex" unicode="&#x2c6;" 
d="M262 571h-74l-71 101l-71 -101h-73l105 144h80z" />
    <glyph glyph-name="caron" unicode="&#x2c7;" 
d="M262 714l-104 -144h-80l-105 144h73l71 -101l71 101h74z" />
    <glyph glyph-name="uni02C9" unicode="&#x2c9;" 
d="M246 807h-258v57h258v-57z" />
    <glyph glyph-name="breve" unicode="&#x2d8;" 
d="M252 708q-8 -68 -44.5 -100.5t-91.5 -32.5q-53 0 -90 33t-43 100h56q5 -37 26.5 -55.5t50.5 -18.5q68 0 80 74h56z" />
    <glyph glyph-name="dotaccent" unicode="&#x2d9;" 
d="M169 650q0 -24 -15 -40t-37 -16t-37 16t-15 40t15 40.5t37 16.5t37 -16.5t15 -40.5z" />
    <glyph glyph-name="ring" unicode="&#x2da;" 
d="M213 659q0 -44 -27.5 -73.5t-68.5 -29.5t-67.5 29.5t-26.5 73.5t26.5 73.5t67.5 29.5t68.5 -29.5t27.5 -73.5zM173 659q0 28 -15 47t-41 19q-25 0 -39.5 -19t-14.5 -47t14.5 -47t39.5 -19q26 0 41 19t15 47z" />
    <glyph glyph-name="ogonek" unicode="&#x2db;" 
d="M187 -144l20 -42q-36 -36 -85 -36q-39 0 -64.5 21.5t-25.5 61.5q0 66 86 139h54q-41 -42 -58.5 -68.5t-17.5 -52.5q0 -19 12.5 -31.5t30.5 -12.5q29 0 48 21z" />
    <glyph glyph-name="tilde" unicode="&#x2dc;" 
d="M253 689q-3 -50 -23.5 -78t-53.5 -28q-29 0 -65 24q-33 22 -55 22q-28 0 -34 -46h-45q3 49 23.5 77.5t53.5 28.5q29 0 66 -24q36 -23 56 -23q15 0 22.5 11t10.5 36h44z" />
    <glyph glyph-name="hungarumlaut" unicode="&#x2dd;" 
d="M158 715l-108 -144h-65l90 144h83zM295 715l-107 -144h-65l90 144h82z" />
    <glyph glyph-name="uni0394" unicode="&#x394;" horiz-adv-x="678" 
d="M667 0h-656l276 712h95zM540 83l-207 530l-199 -530h406z" />
    <glyph glyph-name="uni03A9" unicode="&#x3a9;" horiz-adv-x="752" 
d="M693 0h-264v185q82 15 126.5 76t44.5 145q0 99 -65 165.5t-164 66.5t-165 -67t-66 -166q0 -85 43.5 -144t125.5 -76v-185h-263v77h190v62q-90 26 -140 100.5t-50 170.5q0 134 94.5 222.5t229.5 88.5q136 0 229.5 -87.5t93.5 -221.5q0 -99 -49 -173t-141 -100v-62h190v-77
z" />
    <glyph glyph-name="uni03BC" unicode="&#x3bc;" horiz-adv-x="578" 
d="M502 0h-89q-4 48 -4 78h-2q-19 -39 -62 -65t-93 -26q-55 0 -83 30v-257h-94v714h94v-262q0 -146 108 -146q57 0 92 43t35 113v252h94v-372q0 -61 4 -102z" />
    <glyph glyph-name="pi" unicode="&#x3c0;" horiz-adv-x="578" 
d="M545 12q-40 -19 -74 -19q-57 0 -75 31.5t-18 93.5v275h-191v-393h-86v393h-70v81h511v-81h-78v-270q0 -18 1.5 -28t10.5 -19t26 -9q21 0 43 10v-65z" />
    <glyph glyph-name="endash" unicode="&#x2013;" horiz-adv-x="360" 
d="M336 229h-312v71h312v-71z" />
    <glyph glyph-name="emdash" unicode="&#x2014;" horiz-adv-x="460" 
d="M436 229h-412v71h412v-71z" />
    <glyph glyph-name="quoteleft" unicode="&#x2018;" horiz-adv-x="198" 
d="M158 708l-44 -242h-74l54 242h64z" />
    <glyph glyph-name="quoteright" unicode="&#x2019;" horiz-adv-x="198" 
d="M40 466l44 242h74l-54 -242h-64z" />
    <glyph glyph-name="quotesinglbase" unicode="&#x201a;" horiz-adv-x="198" 
d="M158 115l-53 -242h-65l44 242h74z" />
    <glyph glyph-name="quotedblleft" unicode="&#x201c;" horiz-adv-x="335" 
d="M295 708l-44 -242h-74l53 242h65zM158 708l-44 -242h-74l54 242h64z" />
    <glyph glyph-name="quotedblright" unicode="&#x201d;" horiz-adv-x="333" 
d="M293 708l-53 -242h-65l44 242h74zM158 708l-53 -242h-65l44 242h74z" />
    <glyph glyph-name="quotedblbase" unicode="&#x201e;" horiz-adv-x="333" 
d="M293 115l-53 -242h-65l44 242h74zM158 115l-53 -242h-65l44 242h74z" />
    <glyph glyph-name="dagger" unicode="&#x2020;" horiz-adv-x="379" 
d="M370 432h-142v-560h-75v560h-142v72h142v204h75v-204h142v-72z" />
    <glyph glyph-name="daggerdbl" unicode="&#x2021;" horiz-adv-x="379" 
d="M370 65h-142v-193h-75v193h-142v71h142v308h-142v70h142v194h75v-194h142v-70h-142v-308h142v-71z" />
    <glyph glyph-name="bullet" unicode="&#x2022;" horiz-adv-x="500" 
d="M73 354q0 74 51.5 125.5t125.5 51.5t125.5 -51.5t51.5 -125.5t-51.5 -125.5t-125.5 -51.5t-125.5 51.5t-51.5 125.5z" />
    <glyph glyph-name="ellipsis" unicode="&#x2026;" horiz-adv-x="900" 
d="M207 53q0 -25 -16.5 -42.5t-40.5 -17.5t-40 17t-16 43q0 25 16 43t40 18t40.5 -18t16.5 -43zM807 53q0 -25 -16.5 -42.5t-40.5 -17.5t-40 17t-16 43q0 25 16 43t40 18t40.5 -18t16.5 -43zM507 53q0 -25 -16.5 -42.5t-40.5 -17.5t-40 17t-16 43q0 25 16 43t40 18t40.5 -18
t16.5 -43z" />
    <glyph glyph-name="perthousand" unicode="&#x2030;" horiz-adv-x="900" 
d="M289 544q0 -79 -34 -128t-93 -49q-58 0 -92.5 49t-34.5 128t34 128.5t93 49.5t93 -49.5t34 -128.5zM221 545q0 51 -15.5 83t-43.5 32t-43.5 -32.5t-15.5 -82.5q0 -51 15.5 -83.5t43.5 -32.5t43.5 32.5t15.5 83.5zM585 165q0 -79 -34 -128t-93 -49q-58 0 -92.5 49
t-34.5 128t34 128.5t93 49.5t93 -49.5t34 -128.5zM517 166q0 51 -15.5 83t-43.5 32t-43.5 -32.5t-15.5 -82.5q0 -51 15.5 -83.5t43.5 -32.5t43.5 32.5t15.5 83.5zM875 165q0 -79 -34 -128t-93 -49q-58 0 -92.5 49t-34.5 128t34 128.5t93 49.5t93 -49.5t34 -128.5zM807 166
q0 51 -15.5 83t-43.5 32t-43.5 -32.5t-15.5 -82.5q0 -51 15.5 -83.5t43.5 -32.5t43.5 32.5t15.5 83.5zM477 719l-283 -742l-53 18l284 742z" />
    <glyph glyph-name="guilsinglleft" unicode="&#x2039;" horiz-adv-x="224" 
d="M34 252l103 216l52 -28l-88 -188l88 -189l-52 -28z" />
    <glyph glyph-name="guilsinglright" unicode="&#x203a;" horiz-adv-x="224" 
d="M189 252l-103 -217l-52 28l88 189l-88 188l52 28z" />
    <glyph glyph-name="fraction" unicode="&#x2044;" horiz-adv-x="100" 
d="M214 722l-277 -745l-55 15l278 745z" />
    <glyph glyph-name="Euro" unicode="&#x20ac;" horiz-adv-x="482" 
d="M435 635q-32 17 -85 17q-64 0 -107.5 -47.5t-59.5 -136.5h216l-15 -60h-212q-4 -21 -4 -57q0 -21 2 -49h196l-14 -60h-174q12 -85 56.5 -134t107.5 -49q54 0 97 25l13 -73q-47 -28 -119 -28q-99 0 -161.5 70.5t-80.5 188.5h-66l14 60h47q-2 28 -2 49q0 31 3 57h-60l13 60
h53q24 127 90 192t164 65q62 0 108 -20z" />
    <glyph glyph-name="afii61289" unicode="&#x2113;" horiz-adv-x="500" 
d="M424 44q-64 -58 -139 -58q-62 0 -99 34.5t-37 97.5v98l-57 -59h-2l-31 46l90 84v254q0 82 40 131t101 49q54 0 86.5 -36t32.5 -97q0 -143 -176 -316v-140q0 -44 21 -63.5t51 -19.5q45 0 88 39h2zM340 582q0 36 -14.5 58.5t-35.5 22.5q-24 0 -40.5 -27.5t-16.5 -79.5v-210
q107 124 107 236z" />
    <glyph glyph-name="trademark" unicode="&#x2122;" horiz-adv-x="760" 
d="M684 296h-60v321h-1l-94 -321h-49l-91 321h-2v-321h-58v412h91l86 -308l88 308h90v-412zM275 648h-84v-352h-67v352h-84v60h235v-60z" />
    <glyph glyph-name="Omega" unicode="&#x2126;" horiz-adv-x="752" 
d="M693 0h-264v185q82 15 126.5 76t44.5 145q0 99 -65 165.5t-164 66.5t-165 -67t-66 -166q0 -85 43.5 -144t125.5 -76v-185h-263v77h190v62q-90 26 -140 100.5t-50 170.5q0 134 94.5 222.5t229.5 88.5q136 0 229.5 -87.5t93.5 -221.5q0 -99 -49 -173t-141 -100v-62h190v-77
z" />
    <glyph glyph-name="estimated" unicode="&#x212e;" horiz-adv-x="500" 
d="M157 259h404q-1 122 -72.5 199t-186.5 77q-116 0 -187 -78.5t-71 -197.5q0 -118 71.5 -197t186.5 -79q78 0 130 31.5t98 103.5l-35 21q-71 -120 -193 -120q-86 0 -145 59v181zM448 295h-291v145q60 60 144 60t147 -60v-145z" />
    <glyph glyph-name="partialdiff" unicode="&#x2202;" horiz-adv-x="523" 
d="M481 360q0 -52 -5.5 -99.5t-21 -99t-41 -88.5t-69.5 -61t-101 -24q-94 0 -151 65t-57 160q0 93 55.5 154.5t147.5 61.5q89 0 156 -70q0 6 0.5 20t0.5 21q0 43 -8 84t-26 80t-52.5 63t-80.5 24q-57 0 -116 -47l-47 55q78 62 159 62q71 0 123.5 -32.5t80 -87t40.5 -114.5
t13 -127zM391 271q-23 42 -60.5 66t-81.5 24q-62 0 -96.5 -44t-34.5 -108q0 -62 33 -108.5t94 -46.5q49 0 83.5 37.5t48 84t14.5 95.5z" />
    <glyph glyph-name="Delta" unicode="&#x2206;" horiz-adv-x="678" 
d="M667 0h-656l276 712h95zM540 83l-207 530l-199 -530h406z" />
    <glyph glyph-name="product" unicode="&#x220f;" horiz-adv-x="726" 
d="M660 -214h-90v917h-413v-917h-91v1000h594v-1000z" />
    <glyph glyph-name="summation" unicode="&#x2211;" horiz-adv-x="626" 
d="M601 -214h-576v72l316 433l-303 422v73h551v-83h-432l292 -412l-311 -423h463v-82z" />
    <glyph glyph-name="minus" unicode="&#x2212;" horiz-adv-x="666" 
d="M596 344v-82h-526v82h526z" />
    <glyph glyph-name="uni2215" unicode="&#x2215;" horiz-adv-x="100" 
d="M214 722l-277 -745l-55 15l278 745z" />
    <glyph glyph-name="uni2219" unicode="&#x2219;" horiz-adv-x="228" 
d="M171 261q0 -25 -16.5 -42.5t-40.5 -17.5t-40 17t-16 43q0 25 16 43t40 18t40.5 -18t16.5 -43z" />
    <glyph glyph-name="radical" unicode="&#x221a;" horiz-adv-x="515" 
d="M526 786l-211 -1000h-86l-158 328l-48 -23l-33 70l124 58l144 -302l178 869h90z" />
    <glyph glyph-name="infinity" unicode="&#x221e;" horiz-adv-x="778" 
d="M681 260q0 38 -22 63.5t-60 25.5q-25 0 -54.5 -17t-45.5 -31.5t-43 -41.5q26 -25 43.5 -40t46.5 -29.5t56 -14.5q37 0 58 24t21 61zM361 259l-44.5 40.5t-47 31.5t-55.5 17q-35 0 -56.5 -26t-21.5 -62q0 -38 22 -61.5t60 -23.5q61 0 143 84zM754 263q0 -75 -43.5 -124.5
t-117.5 -49.5q-54 0 -96.5 28t-88.5 79q-33 -35 -53.5 -54t-55.5 -35.5t-74 -16.5q-74 0 -119 48.5t-45 123.5q0 73 43.5 122t116.5 49q56 0 98.5 -29.5t88.5 -84.5q30 36 52.5 57t58.5 39.5t75 18.5q72 0 116 -49t44 -122z" />
    <glyph glyph-name="integral" unicode="&#x222b;" horiz-adv-x="574" 
d="M442 723q0 -19 -12.5 -30.5t-31.5 -11.5q-16 0 -26.5 8.5t-14.5 19t-9.5 19t-12.5 8.5q-26 0 -26 -86q0 -19 1 -48.5t1 -37.5v-568q0 -41 -5 -73t-18 -65.5t-40.5 -52t-68.5 -18.5q-32 0 -57.5 14.5t-25.5 45.5q0 17 12.5 29t29.5 12q16 0 26 -8.5t13.5 -18.5t9 -18.5
t12.5 -8.5q25 0 25 89q0 15 -1 37t-1 28q0 2 0.5 6t0.5 6v499q0 10 -0.5 35.5t-0.5 39.5q0 34 2 60t10 56.5t22 50t39 32.5t59 13q29 0 58.5 -16.5t29.5 -46.5z" />
    <glyph glyph-name="approxequal" unicode="&#x2248;" horiz-adv-x="666" 
d="M599 440q-7 -67 -40.5 -111t-96.5 -44q-44 0 -140 36q-99 35 -125 35q-29 0 -47.5 -22t-23.5 -52h-59q8 66 41 111t95 45q47 0 136 -35q97 -35 132 -35q57 0 70 72h58zM599 240q-7 -67 -40.5 -111t-96.5 -44q-44 0 -140 36q-99 35 -125 35q-29 0 -47.5 -22t-23.5 -52h-59
q8 66 41 111t95 45q47 0 136 -35q97 -35 132 -35q57 0 70 72h58z" />
    <glyph glyph-name="notequal" unicode="&#x2260;" horiz-adv-x="666" 
d="M552 108h-286l-77 -149l-73 38l58 111h-134v84h177l63 123h-240v84h284l77 149l74 -37l-59 -112h136v-84h-179l-64 -123h243v-84z" />
    <glyph glyph-name="lessequal" unicode="&#x2264;" horiz-adv-x="666" 
d="M589 130l-512 179v86l512 183v-89l-397 -137l397 -134v-88zM589 8h-512v84h512v-84z" />
    <glyph glyph-name="greaterequal" unicode="&#x2265;" horiz-adv-x="666" 
d="M589 309l-512 -179v88l397 134l-397 137v89l512 -183v-86zM589 8h-512v84h512v-84z" />
    <glyph glyph-name="lozenge" unicode="&#x25ca;" horiz-adv-x="593" 
d="M511 356l-174 -391h-82l-173 391l173 391h82zM424 356l-128 305l-127 -305l127 -305z" />
    <glyph glyph-name="uniF8FF" unicode="&#xf8ff;" horiz-adv-x="512" 
d="M222 117h56v67h-56v-67zM225 234h46q0 52 6 72q6 19 43 52q37 34 50 60t13 60q0 59 -35 95t-89 36q-56 0 -92 -34t-43 -103l50 -8q11 95 82 95q31 0 53.5 -24.5t22.5 -60.5q0 -20 -9.5 -37t-40.5 -46q-31 -31 -46 -59q-13 -25 -13 -81zM462 50h-412v617h412v-617z
M512 718h-512v-718h512v718z" />
    <glyph glyph-name="ydieresis.sc" horiz-adv-x="373" 
d="M229 222v-222h-86v222l-143 334h95l92 -243l93 243h93zM312 695q0 -22 -14 -37t-34 -15t-34.5 15t-14.5 37t14.5 37.5t34.5 15.5q21 0 34.5 -15.5t13.5 -37.5zM159 695q0 -22 -14.5 -37t-34.5 -15q-22 0 -35 14.5t-13 37.5q0 22 13.5 37.5t34.5 15.5q20 0 34.5 -15.5
t14.5 -37.5z" />
    <glyph glyph-name="n.sc" horiz-adv-x="497" 
d="M422 0h-103l-161 417h-2v-417h-81v556h108l158 -429h2v429h79v-556z" />
    <glyph glyph-name="umacron.sc" horiz-adv-x="487" 
d="M242 -16q-91 0 -131.5 57t-40.5 149v366h88v-359q0 -134 86 -134t86 134v359h87v-366q0 -92 -42 -149t-133 -57zM372 659h-258v57h258v-57z" />
    <glyph glyph-name="ohungarumlaut.sc" horiz-adv-x="488" 
d="M245 -16q-93 0 -146.5 81.5t-53.5 213.5t52.5 212.5t147.5 80.5q93 0 145.5 -80.5t52.5 -212.5t-52.5 -213.5t-145.5 -81.5zM245 497q-52 0 -81 -60t-29 -158t29 -158t81 -60q51 0 79.5 60t28.5 158q0 97 -29 157.5t-79 60.5zM313 760l-108 -144h-65l90 144h83zM450 760
l-107 -144h-65l90 144h82z" />
    <glyph glyph-name="iogonek.sc" horiz-adv-x="237" 
d="M75 0v556h87v-556q-41 -42 -58.5 -68.5t-17.5 -52.5q0 -19 12.5 -31.5t30.5 -12.5q29 0 48 21l20 -42q-36 -36 -85 -36q-39 0 -64.5 21.5t-25.5 61.5q0 66 86 139h-33z" />
    <glyph glyph-name="p.sc" horiz-adv-x="407" 
d="M228 231h-66v-231h-87v556h149q63 0 109.5 -38t46.5 -122q0 -78 -44.5 -121.5t-107.5 -43.5zM217 481h-55v-177h55q35 0 55.5 23t20.5 68q0 86 -76 86z" />
    <glyph glyph-name="macron.sc" 
d="M246 659h-258v57h258v-57z" />
    <glyph glyph-name="ugrave.sc" horiz-adv-x="487" 
d="M242 -16q-91 0 -131.5 57t-40.5 149v366h88v-359q0 -134 86 -134t86 134v359h87v-366q0 -92 -42 -149t-133 -57zM286 616h-67l-107 144h84z" />
    <glyph glyph-name="oe.sc" horiz-adv-x="556" 
d="M246 0q-104 0 -161 73t-57 206q0 132 57 204.5t161 72.5h261v-78h-158v-153h147v-74h-147v-173h165v-78h-268zM265 479h-19q-57 0 -93 -50.5t-36 -149.5q0 -101 36 -151.5t93 -50.5h19v402z" />
    <glyph glyph-name="udieresis.sc" horiz-adv-x="487" 
d="M242 -16q-91 0 -131.5 57t-40.5 149v366h88v-359q0 -134 86 -134t86 134v359h87v-366q0 -92 -42 -149t-133 -57zM371 695q0 -22 -14 -37t-34 -15t-34.5 15t-14.5 37t14.5 37.5t34.5 15.5q21 0 34.5 -15.5t13.5 -37.5zM218 695q0 -22 -14.5 -37t-34.5 -15q-22 0 -35 14.5
t-13 37.5q0 22 13.5 37.5t34.5 15.5q20 0 34.5 -15.5t14.5 -37.5z" />
    <glyph glyph-name="grave.sc" 
d="M174 616h-67l-107 144h84z" />
    <glyph glyph-name="hungarumlaut.cap" 
d="M158 908l-108 -144h-65l90 144h83zM295 908l-107 -144h-65l90 144h82z" />
    <glyph glyph-name="otilde.sc" horiz-adv-x="488" 
d="M245 -16q-93 0 -146.5 81.5t-53.5 213.5t52.5 212.5t147.5 80.5q93 0 145.5 -80.5t52.5 -212.5t-52.5 -213.5t-145.5 -81.5zM245 497q-52 0 -81 -60t-29 -158t29 -158t81 -60q51 0 79.5 60t28.5 158q0 97 -29 157.5t-79 60.5zM382 734q-3 -50 -23.5 -78t-53.5 -28
q-29 0 -65 24q-33 22 -55 22q-28 0 -34 -46h-45q3 49 23.5 77.5t53.5 28.5q29 0 66 -24q36 -23 56 -23q15 0 22.5 11t10.5 36h44z" />
    <glyph glyph-name="imacron.sc" horiz-adv-x="237" 
d="M75 0v556h87v-556h-87zM248 659h-258v57h258v-57z" />
    <glyph glyph-name="ocircumflex.sc" horiz-adv-x="488" 
d="M245 -16q-93 0 -146.5 81.5t-53.5 213.5t52.5 212.5t147.5 80.5q93 0 145.5 -80.5t52.5 -212.5t-52.5 -213.5t-145.5 -81.5zM245 497q-52 0 -81 -60t-29 -158t29 -158t81 -60q51 0 79.5 60t28.5 158q0 97 -29 157.5t-79 60.5zM390 616h-74l-71 101l-71 -101h-73l105 144
h80z" />
    <glyph glyph-name="perthousand.sc" horiz-adv-x="832" 
d="M137 270q-52 0 -82 42t-30 106q0 65 30 107t82 42t82 -42t30 -107q0 -64 -30 -106t-82 -42zM137 508q-19 0 -31.5 -24t-12.5 -66t12.5 -65.5t31.5 -23.5t31.5 24t12.5 65t-12.5 65.5t-31.5 24.5zM437 -8q-52 0 -82 42t-30 106q0 65 30 107t82 42t82 -42t30 -107
q0 -64 -30 -106t-82 -42zM437 230q-19 0 -31.5 -24t-12.5 -66t12.5 -65.5t31.5 -23.5t31.5 24t12.5 65t-12.5 65.5t-31.5 24.5zM690 -8q-52 0 -82 42t-30 106q0 65 30 107t82 42t82 -42t30 -107q0 -64 -30 -106t-82 -42zM690 230q-19 0 -31.5 -24t-12.5 -66t12.5 -65.5
t31.5 -23.5t31.5 24t12.5 65t-12.5 65.5t-31.5 24.5zM200 -20l-58 19l228 582l59 -19z" />
    <glyph glyph-name="napostrophe.sc" horiz-adv-x="564" 
d="M108 556l-53 -185h-65l44 185h74zM490 0h-103l-161 417h-2v-417h-81v556h108l158 -429h2v429h79v-556z" />
    <glyph glyph-name="ij.sc" horiz-adv-x="575" 
d="M75 0v556h87v-556h-87zM366 -16q-108 0 -136 109l78 31q15 -61 58 -61q54 0 54 97v396h87v-402q0 -81 -35.5 -125.5t-105.5 -44.5z" />
    <glyph glyph-name="percent.sc" horiz-adv-x="584" 
d="M142 270q-52 0 -82 42t-30 106q0 65 30 107t82 42t82 -42t30 -107q0 -64 -30 -106t-82 -42zM142 508q-19 0 -31.5 -24t-12.5 -66t12.5 -65.5t31.5 -23.5t31.5 24t12.5 65t-12.5 65.5t-31.5 24.5zM442 -8q-52 0 -82 42t-30 106q0 65 30 107t82 42t82 -42t30 -107
q0 -64 -30 -106t-82 -42zM442 230q-19 0 -31.5 -24t-12.5 -66t12.5 -65.5t31.5 -23.5t31.5 24t12.5 65t-12.5 65.5t-31.5 24.5zM205 -20l-58 19l228 582l59 -19z" />
    <glyph glyph-name="obreve.sc" horiz-adv-x="488" 
d="M245 -16q-93 0 -146.5 81.5t-53.5 213.5t52.5 212.5t147.5 80.5q93 0 145.5 -80.5t52.5 -212.5t-52.5 -213.5t-145.5 -81.5zM245 497q-52 0 -81 -60t-29 -158t29 -158t81 -60q51 0 79.5 60t28.5 158q0 97 -29 157.5t-79 60.5zM379 753q-8 -68 -44.5 -100.5t-91.5 -32.5
q-53 0 -90 33t-43 100h56q5 -37 26.5 -55.5t50.5 -18.5q68 0 80 74h56z" />
    <glyph glyph-name="two.onum" horiz-adv-x="450" 
d="M58 0v75l115.5 108.5t72.5 77t50 72t12 59.5q0 47 -23 75.5t-67 28.5q-66 0 -105 -82l-66 36q55 122 173 122q86 0 130 -47t44 -126q0 -33 -13 -67.5t-29 -60t-52 -63.5t-59 -60t-74 -67v-3h229v-78h-338z" />
    <glyph glyph-name="nine.sc" horiz-adv-x="436" 
d="M247 219q-23 -10 -46 -10q-58 0 -103 42.5t-45 137.5q0 83 46.5 133t121.5 50q76 0 119 -50.5t43 -135.5q0 -75 -42 -157l-116 -229h-93l118 218zM218 278q36 0 60 31.5t24 80.5q0 52 -22.5 80t-59.5 28q-36 0 -58.5 -29t-22.5 -81q0 -51 21 -80.5t58 -29.5z" />
    <glyph glyph-name="oacute.sc" horiz-adv-x="488" 
d="M245 -16q-93 0 -146.5 81.5t-53.5 213.5t52.5 212.5t147.5 80.5q93 0 145.5 -80.5t52.5 -212.5t-52.5 -213.5t-145.5 -81.5zM245 497q-52 0 -81 -60t-29 -158t29 -158t81 -60q51 0 79.5 60t28.5 158q0 97 -29 157.5t-79 60.5zM377 760l-107 -144h-67l90 144h84z" />
    <glyph glyph-name="idotaccent.sc" horiz-adv-x="237" 
d="M75 0v556h87v-556h-87zM169 695q0 -24 -15 -40t-37 -16t-37 16t-15 40t15 40.5t37 16.5t37 -16.5t15 -40.5z" />
    <glyph glyph-name="ucircumflex.sc" horiz-adv-x="487" 
d="M242 -16q-91 0 -131.5 57t-40.5 149v366h88v-359q0 -134 86 -134t86 134v359h87v-366q0 -92 -42 -149t-133 -57zM390 616h-74l-71 101l-71 -101h-73l105 144h80z" />
    <glyph glyph-name="macron.cap" 
d="M246 807h-258v57h258v-57z" />
    <glyph glyph-name="oslash.sc" horiz-adv-x="488" 
d="M420 567l-35 -68q58 -82 58 -220q0 -132 -52.5 -213.5t-145.5 -81.5q-59 0 -107 37l-32 -65l-44 21l42 80q-59 80 -59 222q0 132 52.5 212.5t147.5 80.5q60 0 105 -37l26 53zM354 279q0 77 -18 130l-158 -311q27 -36 67 -36q50 0 79.5 60.5t29.5 156.5zM245 500
q-52 0 -82 -61t-30 -159q0 -71 18 -132l158 315q-26 37 -64 37z" />
    <glyph glyph-name="yacute.sc" horiz-adv-x="373" 
d="M229 222v-222h-86v222l-143 334h95l92 -243l93 243h93zM323 760l-107 -144h-67l90 144h84z" />
    <glyph glyph-name="uhungarumlaut.sc" horiz-adv-x="487" 
d="M242 -16q-91 0 -131.5 57t-40.5 149v366h88v-359q0 -134 86 -134t86 134v359h87v-366q0 -92 -42 -149t-133 -57zM316 760l-108 -144h-65l90 144h83zM453 760l-107 -144h-65l90 144h82z" />
    <glyph glyph-name="omacron.sc" horiz-adv-x="488" 
d="M245 -16q-93 0 -146.5 81.5t-53.5 213.5t52.5 212.5t147.5 80.5q93 0 145.5 -80.5t52.5 -212.5t-52.5 -213.5t-145.5 -81.5zM245 497q-52 0 -81 -60t-29 -158t29 -158t81 -60q51 0 79.5 60t28.5 158q0 97 -29 157.5t-79 60.5zM373 659h-258v57h258v-57z" />
    <glyph glyph-name="z.sc" horiz-adv-x="360" 
d="M33 0v68l199 413h-187v75h279v-68l-196 -410h196v-78h-291z" />
    <glyph glyph-name="questiondown.sc" horiz-adv-x="335" 
d="M104 267q24 23 31.5 41t7.5 46v36h77v-44q0 -41 -16 -70.5t-50 -66.5q-37 -41 -37 -77q0 -76 59 -76q27 0 45 24t22 60l75 -15q-9 -65 -47.5 -103t-100.5 -38q-64 0 -100 37t-36 104q0 74 70 142zM123 505q0 25 15.5 41.5t38.5 16.5t38.5 -16.5t15.5 -41.5
q0 -24 -15.5 -41t-38.5 -17t-38.5 17t-15.5 41z" />
    <glyph glyph-name="idieresis.sc" horiz-adv-x="237" 
d="M75 0v556h87v-556h-87zM243 695q0 -22 -14 -37t-34 -15t-34.5 15t-14.5 37t14.5 37.5t34.5 15.5q21 0 34.5 -15.5t13.5 -37.5zM90 695q0 -22 -14.5 -37t-34.5 -15q-22 0 -35 14.5t-13 37.5q0 22 13.5 37.5t34.5 15.5q20 0 34.5 -15.5t14.5 -37.5z" />
    <glyph glyph-name="one.sc" horiz-adv-x="436" 
d="M211 0v452l-93 -68l-42 67l144 105h77v-556h-86z" />
    <glyph glyph-name="question.sc" horiz-adv-x="335" 
d="M248 289q-24 -23 -31.5 -41t-7.5 -46v-36h-77v44q0 41 16 70.5t50 66.5q37 41 37 77q0 76 -59 76q-27 0 -45 -24t-22 -60l-75 15q9 65 47.5 103t100.5 38q64 0 100 -37t36 -104q0 -74 -70 -142zM229 51q0 -25 -15.5 -41.5t-38.5 -16.5t-38.5 16.5t-15.5 41.5
q0 24 15.5 41t38.5 17t38.5 -17t15.5 -41z" />
    <glyph glyph-name="iacute.sc" horiz-adv-x="237" 
d="M75 0v556h87v-556h-87zM249 760l-107 -144h-67l90 144h84z" />
    <glyph glyph-name="three.sc" horiz-adv-x="436" 
d="M288 296v-3q41 -11 64.5 -48.5t23.5 -89.5q0 -72 -44.5 -121.5t-118.5 -49.5q-132 0 -167 121l80 26q22 -71 86 -71q37 0 58.5 29.5t21.5 68.5q0 46 -25.5 70.5t-69.5 24.5h-30v72h32q38 0 59 23t21 66q0 33 -17.5 57.5t-49.5 24.5q-46 0 -70 -56l-78 24q21 55 61.5 81.5
t88.5 26.5q67 0 108 -41.5t41 -108.5q0 -42 -20 -77.5t-55 -48.5z" />
    <glyph glyph-name="ordfeminine.sc" horiz-adv-x="304" 
d="M279 407h-65l-16 67h-92l-17 -67h-62l85 317h83zM190 516l-36 157h-3l-37 -157h76z" />
    <glyph glyph-name="l.sc" horiz-adv-x="327" 
d="M75 0v556h87v-478h157v-78h-244z" />
    <glyph glyph-name="scommaaccent.sc" horiz-adv-x="367" 
d="M215 -45l-53 -185h-65l44 185h74zM281 454q-30 43 -80 43q-31 0 -52 -22.5t-21 -63.5q0 -34 19 -54t59 -41q37 -20 59.5 -36.5t43 -50.5t20.5 -78q0 -76 -44.5 -121.5t-112.5 -45.5q-94 0 -152 71l53 60q42 -54 99 -54q33 0 53 23t20 63q0 20 -6.5 35.5t-21.5 28.5
t-27 20.5t-34 19.5q-26 14 -41.5 24.5t-34 29t-27.5 45t-9 60.5q0 78 46 120t110 42q84 0 134 -60z" />
    <glyph glyph-name="uring.sc" horiz-adv-x="487" 
d="M242 -16q-91 0 -131.5 57t-40.5 149v366h88v-359q0 -134 86 -134t86 134v359h87v-366q0 -92 -42 -149t-133 -57zM339 704q0 -44 -27.5 -73.5t-68.5 -29.5t-67.5 29.5t-26.5 73.5t26.5 73.5t67.5 29.5t68.5 -29.5t27.5 -73.5zM299 704q0 28 -15 47t-41 19q-25 0 -39.5 -19
t-14.5 -47t14.5 -47t39.5 -19q26 0 41 19t15 47z" />
    <glyph glyph-name="i.sc" horiz-adv-x="237" 
d="M75 0v556h87v-556h-87z" />
    <glyph glyph-name="hcircumflex.sc" horiz-adv-x="502" 
d="M340 0v249h-178v-249h-87v556h87v-229h178v229h87v-556h-87zM398 616h-74l-71 101l-71 -101h-73l105 144h80z" />
    <glyph glyph-name="ograve.sc" horiz-adv-x="488" 
d="M245 -16q-93 0 -146.5 81.5t-53.5 213.5t52.5 212.5t147.5 80.5q93 0 145.5 -80.5t52.5 -212.5t-52.5 -213.5t-145.5 -81.5zM245 497q-52 0 -81 -60t-29 -158t29 -158t81 -60q51 0 79.5 60t28.5 158q0 97 -29 157.5t-79 60.5zM293 616h-67l-107 144h84z" />
    <glyph glyph-name="ycircumflex.sc" horiz-adv-x="373" 
d="M229 222v-222h-86v222l-143 334h95l92 -243l93 243h93zM335 616h-74l-71 101l-71 -101h-73l105 144h80z" />
    <glyph glyph-name="o.sc" horiz-adv-x="488" 
d="M245 -16q-93 0 -146.5 81.5t-53.5 213.5t52.5 212.5t147.5 80.5q93 0 145.5 -80.5t52.5 -212.5t-52.5 -213.5t-145.5 -81.5zM245 497q-52 0 -81 -60t-29 -158t29 -158t81 -60q51 0 79.5 60t28.5 158q0 97 -29 157.5t-79 60.5z" />
    <glyph glyph-name="scircumflex.sc" horiz-adv-x="367" 
d="M281 454q-30 43 -80 43q-31 0 -52 -22.5t-21 -63.5q0 -34 19 -54t59 -41q37 -20 59.5 -36.5t43 -50.5t20.5 -78q0 -76 -44.5 -121.5t-112.5 -45.5q-94 0 -152 71l53 60q42 -54 99 -54q33 0 53 23t20 63q0 20 -6.5 35.5t-21.5 28.5t-27 20.5t-34 19.5q-26 14 -41.5 24.5
t-34 29t-27.5 45t-9 60.5q0 78 46 120t110 42q84 0 134 -60zM343 616h-74l-71 101l-71 -101h-73l105 144h80z" />
    <glyph glyph-name="j.sc" horiz-adv-x="330" 
d="M121 -16q-108 0 -136 109l78 31q15 -61 58 -61q54 0 54 97v396h87v-402q0 -81 -35.5 -125.5t-105.5 -44.5z" />
    <glyph glyph-name="igrave.sc" horiz-adv-x="237" 
d="M75 0v556h87v-556h-87zM161 616h-67l-107 144h84z" />
    <glyph glyph-name="aring.sc" horiz-adv-x="399" 
d="M389 0h-86l-29 120h-151l-28 -120h-85l136 556h109zM262 191l-61 283h-3l-63 -283h127zM294 704q0 -44 -27.5 -73.5t-68.5 -29.5t-67.5 29.5t-26.5 73.5t26.5 73.5t67.5 29.5t68.5 -29.5t27.5 -73.5zM254 704q0 28 -15 47t-41 19q-25 0 -39.5 -19t-14.5 -47t14.5 -47
t39.5 -19q26 0 41 19t15 47z" />
    <glyph glyph-name="ring.sc" 
d="M213 704q0 -44 -27.5 -73.5t-68.5 -29.5t-67.5 29.5t-26.5 73.5t26.5 73.5t67.5 29.5t68.5 -29.5t27.5 -73.5zM173 704q0 28 -15 47t-41 19q-25 0 -39.5 -19t-14.5 -47t14.5 -47t39.5 -19q26 0 41 19t15 47z" />
    <glyph glyph-name="hungarumlaut.sc" 
d="M158 760l-108 -144h-65l90 144h83zM295 760l-107 -144h-65l90 144h82z" />
    <glyph glyph-name="sterling.sc" horiz-adv-x="436" 
d="M343 466q-25 27 -57 27q-74 0 -74 -108v-63h102v-69h-102v-175h154v-78h-312v78h73v175h-67v69h67v70q0 73 39.5 126t116.5 53q62 0 108 -41z" />
    <glyph glyph-name="nacute.sc" horiz-adv-x="497" 
d="M422 0h-103l-161 417h-2v-417h-81v556h108l158 -429h2v429h79v-556zM384 760l-107 -144h-67l90 144h84z" />
    <glyph glyph-name="ubreve.sc" horiz-adv-x="487" 
d="M242 -16q-91 0 -131.5 57t-40.5 149v366h88v-359q0 -134 86 -134t86 134v359h87v-366q0 -92 -42 -149t-133 -57zM379 753q-8 -68 -44.5 -100.5t-91.5 -32.5q-53 0 -90 33t-43 100h56q5 -37 26.5 -55.5t50.5 -18.5q68 0 80 74h56z" />
    <glyph glyph-name="seven.sc" horiz-adv-x="436" 
d="M194 0h-92l182 479h-227v77h314v-65z" />
    <glyph glyph-name="odieresis.sc" horiz-adv-x="488" 
d="M245 -16q-93 0 -146.5 81.5t-53.5 213.5t52.5 212.5t147.5 80.5q93 0 145.5 -80.5t52.5 -212.5t-52.5 -213.5t-145.5 -81.5zM245 497q-52 0 -81 -60t-29 -158t29 -158t81 -60q51 0 79.5 60t28.5 158q0 97 -29 157.5t-79 60.5zM369 695q0 -22 -14 -37t-34 -15t-34.5 15
t-14.5 37t14.5 37.5t34.5 15.5q21 0 34.5 -15.5t13.5 -37.5zM216 695q0 -22 -14.5 -37t-34.5 -15q-22 0 -35 14.5t-13 37.5q0 22 13.5 37.5t34.5 15.5q20 0 34.5 -15.5t14.5 -37.5z" />
    <glyph glyph-name="zcaron.sc" horiz-adv-x="360" 
d="M33 0v68l199 413h-187v75h279v-68l-196 -410h196v-78h-291zM333 759l-104 -144h-80l-105 144h73l71 -101l71 101h74z" />
    <glyph glyph-name="nine.onum" horiz-adv-x="490" 
d="M171 -160l-66 53q58 52 117 122t90 132l-1 1q-37 -34 -91 -34q-30 0 -59 11t-56 34.5t-43.5 70t-16.5 109.5q0 108 55 170.5t145 62.5q91 0 145 -63.5t54 -170.5t-68 -239t-205 -259zM135 338q0 -70 27.5 -112.5t79.5 -42.5q51 0 81.5 44.5t30.5 112.5q0 72 -29 114
t-81 42t-80.5 -43t-28.5 -115z" />
    <glyph glyph-name="germandbls.sc" horiz-adv-x="727" 
d="M281 450q-34 43 -80 43q-30 0 -51.5 -21.5t-21.5 -62.5q0 -34 19.5 -54.5t58.5 -39.5q57 -28 91 -64.5t34 -99.5q0 -76 -45.5 -121.5t-113.5 -45.5q-94 0 -152 71l53 62q42 -54 99 -54q32 0 52.5 22.5t20.5 61.5q0 20 -6.5 35t-22 28t-26 19.5t-34.5 19.5
q-26 14 -42 24.5t-35 29t-28 45t-9 60.5q0 78 46 121t110 43q86 0 136 -60zM641 450q-34 43 -80 43q-30 0 -51.5 -21.5t-21.5 -62.5q0 -34 19.5 -54.5t58.5 -39.5q57 -28 91 -64.5t34 -99.5q0 -76 -45.5 -121.5t-113.5 -45.5q-94 0 -152 71l53 62q42 -54 99 -54
q32 0 52.5 22.5t20.5 61.5q0 20 -6.5 35t-22 28t-26 19.5t-34.5 19.5q-26 14 -42 24.5t-35 29t-28 45t-9 60.5q0 78 46 121t110 43q86 0 136 -60z" />
    <glyph glyph-name="aacute.sc" horiz-adv-x="399" 
d="M389 0h-86l-29 120h-151l-28 -120h-85l136 556h109zM262 191l-61 283h-3l-63 -283h127zM330 760l-107 -144h-67l90 144h84z" />
    <glyph glyph-name="q.sc" horiz-adv-x="488" 
d="M442 288q0 -64 -19.5 -123.5t-50.5 -88.5h93v-76h-222q-91 0 -144.5 77t-53.5 206q0 131 52.5 210t147.5 79q93 0 145 -78t52 -206zM353 283q0 96 -29 155.5t-79 59.5q-52 0 -81 -59t-29 -156q0 -92 29.5 -149.5t81.5 -57.5q51 0 79 59t28 148z" />
    <glyph glyph-name="exclamdown.sc" horiz-adv-x="258" 
d="M86 390h85v-390h-85v390zM183 505q0 -24 -15.5 -41t-38.5 -17t-38.5 17t-15.5 41q0 25 16 41.5t39 16.5t38 -16.5t15 -41.5z" />
    <glyph glyph-name="jcircumflex.sc" horiz-adv-x="330" 
d="M121 -16q-108 0 -136 109l78 31q15 -61 58 -61q54 0 54 97v396h87v-402q0 -81 -35.5 -125.5t-105.5 -44.5zM362 616h-74l-71 101l-71 -101h-73l105 144h80z" />
    <glyph glyph-name="lacute.sc" horiz-adv-x="327" 
d="M75 0v556h87v-478h157v-78h-244zM257 760l-107 -144h-67l90 144h84z" />
    <glyph glyph-name="zacute.sc" horiz-adv-x="360" 
d="M33 0v68l199 413h-187v75h279v-68l-196 -410h196v-78h-291zM313 760l-107 -144h-67l90 144h84z" />
    <glyph glyph-name="six.onum" horiz-adv-x="490" 
d="M315 715l64 -53q-57 -50 -114 -118t-85 -129l1 -1q34 33 89 33q30 0 59 -11t56 -34.5t43.5 -70t16.5 -109.5q0 -108 -55 -171.5t-145 -63.5q-91 0 -145 63.5t-54 170.5t67.5 238.5t201.5 255.5zM355 223q0 70 -27.5 112.5t-79.5 42.5q-51 0 -81.5 -44.5t-30.5 -112.5
q0 -73 29.5 -115.5t80.5 -42.5q52 0 80.5 43.5t28.5 116.5z" />
    <glyph glyph-name="k.sc" horiz-adv-x="415" 
d="M413 0h-99l-153 270h-2v-270h-84v556h84v-241h2l143 241h97l-165 -256z" />
    <glyph glyph-name="tcommaaccent.sc" horiz-adv-x="299" 
d="M187 -45l-53 -185h-65l44 185h74zM193 481v-481h-87v481h-106v75h299v-75h-106z" />
    <glyph glyph-name="r.sc" horiz-adv-x="426" 
d="M305 0l-94 241h-50v-241h-86v556h152q69 0 113.5 -38t44.5 -117q0 -59 -27 -96t-64 -49l105 -256h-94zM216 481h-55v-170h56q37 0 59 22t22 64q0 84 -82 84z" />
    <glyph glyph-name="lslash.sc" horiz-adv-x="327" 
d="M162 370l112 115v-75l-112 -114v-216h157v-80h-244v230l-37 -39v75l37 38v252h87v-186z" />
    <glyph glyph-name="scaron.sc" horiz-adv-x="367" 
d="M281 454q-30 43 -80 43q-31 0 -52 -22.5t-21 -63.5q0 -34 19 -54t59 -41q37 -20 59.5 -36.5t43 -50.5t20.5 -78q0 -76 -44.5 -121.5t-112.5 -45.5q-94 0 -152 71l53 60q42 -54 99 -54q33 0 53 23t20 63q0 20 -6.5 35.5t-21.5 28.5t-27 20.5t-34 19.5q-26 14 -41.5 24.5
t-34 29t-27.5 45t-9 60.5q0 78 46 120t110 42q84 0 134 -60zM342 759l-104 -144h-80l-105 144h73l71 -101l71 101h74z" />
    <glyph glyph-name="icircumflex.sc" horiz-adv-x="237" 
d="M75 0v556h87v-556h-87zM263 616h-74l-71 101l-71 -101h-73l105 144h80z" />
    <glyph glyph-name="itilde.sc" horiz-adv-x="237" 
d="M75 0v556h87v-556h-87zM257 734q-3 -50 -23.5 -78t-53.5 -28q-29 0 -65 24q-33 22 -55 22q-28 0 -34 -46h-45q3 49 23.5 77.5t53.5 28.5q29 0 66 -24q36 -23 56 -23q15 0 22.5 11t10.5 36h44z" />
    <glyph glyph-name="s.sc" horiz-adv-x="367" 
d="M281 454q-30 43 -80 43q-31 0 -52 -22.5t-21 -63.5q0 -34 19 -54t59 -41q37 -20 59.5 -36.5t43 -50.5t20.5 -78q0 -76 -44.5 -121.5t-112.5 -45.5q-94 0 -152 71l53 60q42 -54 99 -54q33 0 53 23t20 63q0 20 -6.5 35.5t-21.5 28.5t-27 20.5t-34 19.5q-26 14 -41.5 24.5
t-34 29t-27.5 45t-9 60.5q0 78 46 120t110 42q84 0 134 -60z" />
    <glyph glyph-name="hbar.sc" horiz-adv-x="502" 
d="M340 0v249h-178v-249h-87v556h87v-96h178v96h87v-556h-87zM162 327h178v73h-178v-73z" />
    <glyph glyph-name="y.sc" horiz-adv-x="373" 
d="M229 222v-222h-86v222l-143 334h95l92 -243l93 243h93z" />
    <glyph glyph-name="kcommaaccent.sc" horiz-adv-x="415" 
d="M274 -45l-53 -185h-65l44 185h74zM413 0h-99l-153 270h-2v-270h-84v556h84v-241h2l143 241h97l-165 -256z" />
    <glyph glyph-name="zdotaccent.sc" horiz-adv-x="360" 
d="M33 0v68l199 413h-187v75h279v-68l-196 -410h196v-78h-291zM235 695q0 -24 -15 -40t-37 -16t-37 16t-15 40t15 40.5t37 16.5t37 -16.5t15 -40.5z" />
    <glyph glyph-name="exclam.sc" horiz-adv-x="258" 
d="M86 166v390h85v-390h-85zM183 51q0 -25 -15.5 -41.5t-38.5 -16.5t-38.5 16.5t-15.5 41.5q0 24 15.5 41t38.5 17t38.5 -17t15.5 -41z" />
    <glyph glyph-name="a.sc" horiz-adv-x="399" 
d="M389 0h-86l-29 120h-151l-28 -120h-85l136 556h109zM262 191l-61 283h-3l-63 -283h127z" />
    <glyph glyph-name="h.sc" horiz-adv-x="502" 
d="M340 0v249h-178v-249h-87v556h87v-229h178v229h87v-556h-87z" />
    <glyph glyph-name="m.sc" horiz-adv-x="624" 
d="M549 0h-84v437h-3l-117 -437h-74l-114 437h-3v-437h-79v556h127l107 -417h3l104 417h133v-556z" />
    <glyph glyph-name="tilde.sc" 
d="M253 734q-3 -50 -23.5 -78t-53.5 -28q-29 0 -65 24q-33 22 -55 22q-28 0 -34 -46h-45q3 49 23.5 77.5t53.5 28.5q29 0 66 -24q36 -23 56 -23q15 0 22.5 11t10.5 36h44z" />
    <glyph glyph-name="grave.cap" 
d="M174 764h-67l-107 144h84z" />
    <glyph glyph-name="seven.onum" horiz-adv-x="430" 
d="M396 556v-73q-152 -391 -233 -643l-85 18q117 342 229 618h-273v80h362z" />
    <glyph glyph-name="tbar.sc" horiz-adv-x="299" 
d="M193 481v-95h69v-50h-69v-336h-87v336h-69v50h69v95h-106v75h299v-75h-106z" />
    <glyph glyph-name="acute.cap" 
d="M235 908l-107 -144h-67l90 144h84z" />
    <glyph glyph-name="wcircumflex.sc" horiz-adv-x="634" 
d="M620 556l-115 -556h-107l-82 424h-2l-85 -424h-103l-112 556h91l79 -453h2l88 453h85l90 -453h2l81 453h88zM462 616h-74l-71 101l-71 -101h-73l105 144h80z" />
    <glyph glyph-name="ebreve.sc" horiz-adv-x="376" 
d="M75 0v556h251v-75h-166v-156h155v-73h-155v-174h174v-78h-259zM334 753q-8 -68 -44.5 -100.5t-91.5 -32.5q-53 0 -90 33t-43 100h56q5 -37 26.5 -55.5t50.5 -18.5q68 0 80 74h56z" />
    <glyph glyph-name="ncommaaccent.sc" horiz-adv-x="497" 
d="M296 -45l-53 -185h-65l44 185h74zM422 0h-103l-161 417h-2v-417h-81v556h108l158 -429h2v429h79v-556z" />
    <glyph glyph-name="three.onum" horiz-adv-x="430" 
d="M367 469q-70 -76 -186 -186l1 -3q10 3 27 3q80 0 128 -56.5t48 -140.5q0 -114 -67 -180t-176 -66q-55 0 -90 7l10 79q34 -8 75 -8q78 0 119.5 43t41.5 119q0 61 -34.5 97t-102.5 36q-42 0 -84 -13l-15 71q117 105 210 204v4h-228v77h323v-87z" />
    <glyph glyph-name="one.onum" horiz-adv-x="370" 
d="M174 0v452l-93 -68l-42 67l144 105h77v-556h-86z" />
    <glyph glyph-name="ntilde.sc" horiz-adv-x="497" 
d="M422 0h-103l-161 417h-2v-417h-81v556h108l158 -429h2v429h79v-556zM386 734q-3 -50 -23.5 -78t-53.5 -28q-29 0 -65 24q-33 22 -55 22q-28 0 -34 -46h-45q3 49 23.5 77.5t53.5 28.5q29 0 66 -24q36 -23 56 -23q15 0 22.5 11t10.5 36h44z" />
    <glyph glyph-name="w.sc" horiz-adv-x="634" 
d="M620 556l-115 -556h-107l-82 424h-2l-85 -424h-103l-112 556h91l79 -453h2l88 453h85l90 -453h2l81 453h88z" />
    <glyph glyph-name="acute.sc" 
d="M235 760l-107 -144h-67l90 144h84z" />
    <glyph glyph-name="four.sc" horiz-adv-x="436" 
d="M328 124v-124h-81v124h-200v72l170 360h111v-357h66v-75h-66zM249 459h-3l-113 -260h116v260z" />
    <glyph glyph-name="Euro.sc" horiz-adv-x="436" 
d="M365 480q-32 17 -72 17q-45 0 -76.5 -31.5t-44.5 -92.5h170l-16 -62h-166q-2 -22 -2 -35q0 -20 1 -30h157l-15 -62h-133q10 -58 42 -90.5t76 -32.5q41 0 83 24l13 -73q-43 -25 -103 -25q-80 0 -130.5 54t-66.5 143h-55l15 62h34q-1 10 -1 30q0 11 2 35h-48l14 62h41
q21 96 74 146t132 50q50 0 95 -19z" />
    <glyph glyph-name="dotaccent.cap" 
d="M169 843q0 -24 -15 -40t-37 -16t-37 16t-15 40t15 40.5t37 16.5t37 -16.5t15 -40.5z" />
    <glyph glyph-name="aogonek.sc" horiz-adv-x="399" 
d="M372 -144l20 -42q-36 -36 -85 -36q-39 0 -64.5 21.5t-25.5 61.5q0 66 86 139l-29 120h-151l-28 -120h-85l136 556h109l134 -556h-32q-41 -42 -58.5 -68.5t-17.5 -52.5q0 -19 12.5 -31.5t30.5 -12.5q28 0 48 21zM262 191l-61 283h-3l-63 -283h127z" />
    <glyph glyph-name="five.onum" horiz-adv-x="430" 
d="M157 477l-14 -186q26 6 48 6q84 0 135.5 -54.5t51.5 -154.5q0 -118 -64.5 -183t-168.5 -65q-50 0 -91 7l10 80q40 -9 74 -9q76 0 114.5 43t38.5 123q0 69 -35 106.5t-94 37.5q-54 0 -100 -18l27 346h279v-79h-211z" />
    <glyph glyph-name="florin.sc" horiz-adv-x="436" 
d="M366 476q-25 17 -43 17q-41 0 -52 -65l-15 -90h80v-66h-91l-45 -265q-19 -118 -115 -118q-35 0 -60 12l19 72q20 -10 30 -10q17 0 27 11.5t12.5 23t7.5 40.5l39 234h-73v66h82l15 86q11 66 39.5 105t90.5 39q43 0 77 -23z" />
    <glyph glyph-name="atilde.sc" horiz-adv-x="399" 
d="M389 0h-86l-29 120h-151l-28 -120h-85l136 556h109zM262 191l-61 283h-3l-63 -283h127zM337 734q-3 -50 -23.5 -78t-53.5 -28q-29 0 -65 24q-33 22 -55 22q-28 0 -34 -46h-45q3 49 23.5 77.5t53.5 28.5q29 0 66 -24q36 -23 56 -23q15 0 22.5 11t10.5 36h44z" />
    <glyph glyph-name="dollar.sc" horiz-adv-x="436" 
d="M240 0v-63h-51v63q-78 7 -131 60l47 64q41 -44 84 -49v173q-58 23 -88.5 56t-30.5 96q0 65 33.5 106t87.5 49v62h51v-61q75 -3 123 -57l-45 -63q-34 41 -78 46v-166q61 -25 94 -58.5t33 -99.5q0 -67 -35.5 -110t-93.5 -48zM189 479q-41 -14 -41 -72q0 -49 41 -71v143z
M242 229v-153q19 6 32 26t13 52q0 51 -45 75z" />
    <glyph glyph-name="ccedilla.sc" horiz-adv-x="414" 
d="M344 443q-36 54 -90 54q-57 0 -88 -60.5t-31 -157.5q0 -95 32 -156.5t89 -61.5q52 0 87 60l53 -56q-47 -71 -124 -80l-34 -57q8 3 30 3q31 0 54.5 -18t23.5 -54q0 -47 -34.5 -68t-79.5 -21q-52 0 -91 19l17 41q28 -14 68 -14q19 0 37.5 10t18.5 31q0 37 -47 37
q-22 0 -41 -8l-19 17l49 83q-84 12 -131.5 92.5t-47.5 199.5q0 128 55.5 211t150.5 83q96 0 147 -73z" />
    <glyph glyph-name="gbreve.sc" horiz-adv-x="464" 
d="M257 -16q-99 0 -155.5 81.5t-56.5 213.5q0 128 54.5 210.5t150.5 82.5q97 0 148 -74l-56 -60q-37 54 -89 54q-55 0 -85.5 -59.5t-30.5 -153.5q0 -98 32 -156.5t90 -58.5q38 0 58 15v158h-73v76h158v-279q-62 -50 -145 -50zM387 753q-8 -68 -44.5 -100.5t-91.5 -32.5
q-53 0 -90 33t-43 100h56q5 -37 26.5 -55.5t50.5 -18.5q68 0 80 74h56z" />
    <glyph glyph-name="lcaron.sc" horiz-adv-x="337" 
d="M334 556l-53 -185h-65l44 185h74zM75 0v556h87v-478h157v-78h-244z" />
    <glyph glyph-name="racute.sc" horiz-adv-x="426" 
d="M305 0l-94 241h-50v-241h-86v556h152q69 0 113.5 -38t44.5 -117q0 -59 -27 -96t-64 -49l105 -256h-94zM216 481h-55v-170h56q37 0 59 22t22 64q0 84 -82 84zM344 760l-107 -144h-67l90 144h84z" />
    <glyph glyph-name="dcroat.sc" horiz-adv-x="473" 
d="M75 260h-51v57h51v239h136q103 0 160 -73t57 -206q0 -132 -57 -204.5t-161 -72.5h-135v260zM162 317h116v-57h-116v-183h48q57 0 93.5 50.5t36.5 149.5q0 100 -36.5 151t-93.5 51h-48v-162z" />
    <glyph glyph-name="four.onum" horiz-adv-x="480" 
d="M287 88v248h81v-248h82v-76h-82v-172h-83v172h-255v81l229 479h92l-234 -484h170z" />
    <glyph glyph-name="tilde.cap" 
d="M253 882q-3 -50 -23.5 -78t-53.5 -28q-29 0 -65 24q-33 22 -55 22q-28 0 -34 -46h-45q3 49 23.5 77.5t53.5 28.5q29 0 66 -24q36 -23 56 -23q15 0 22.5 11t10.5 36h44z" />
    <glyph glyph-name="utilde.sc" horiz-adv-x="487" 
d="M242 -16q-91 0 -131.5 57t-40.5 149v366h88v-359q0 -134 86 -134t86 134v359h87v-366q0 -92 -42 -149t-133 -57zM382 734q-3 -50 -23.5 -78t-53.5 -28q-29 0 -65 24q-33 22 -55 22q-28 0 -34 -46h-45q3 49 23.5 77.5t53.5 28.5q29 0 66 -24q36 -23 56 -23q15 0 22.5 11
t10.5 36h44z" />
    <glyph glyph-name="acircumflex.sc" horiz-adv-x="399" 
d="M389 0h-86l-29 120h-151l-28 -120h-85l136 556h109zM262 191l-61 283h-3l-63 -283h127zM344 616h-74l-71 101l-71 -101h-73l105 144h80z" />
    <glyph glyph-name="fi.sc" horiz-adv-x="602" 
d="M162 477v-157h151v-76h-151v-244h-87v556h250v-79h-163zM440 0v556h87v-556h-87z" />
    <glyph glyph-name="ldot.sc" horiz-adv-x="337" 
d="M75 0v556h87v-478h157v-78h-244zM319 315q0 -24 -15 -40t-37 -16t-37 16t-15 40t15 40.5t37 16.5t37 -16.5t15 -40.5z" />
    <glyph glyph-name="zero.sc" horiz-adv-x="436" 
d="M218 -16q-52 0 -88.5 27.5t-54 74t-24.5 93t-7 99.5t7 99.5t24.5 93t54 74t88.5 27.5t88.5 -27.5t54 -74t24.5 -93t7 -99.5t-7 -99.5t-24.5 -93t-54 -74t-88.5 -27.5zM218 495q-84 0 -84 -217q0 -216 84 -216t84 216q0 217 -84 217z" />
    <glyph glyph-name="b.sc" horiz-adv-x="435" 
d="M301 294q38 -12 64.5 -47.5t26.5 -89.5q0 -80 -48.5 -118.5t-110.5 -38.5h-158v556h142q27 0 52.5 -6.5t50 -21.5t39.5 -44.5t15 -69.5q0 -45 -20.5 -75.5t-52.5 -44.5zM211 485h-54v-161h55q35 0 58 21.5t23 62.5q0 77 -82 77zM217 254h-60v-180h63q39 0 63.5 21.5
t24.5 65.5q0 47 -27.5 70t-63.5 23z" />
    <glyph glyph-name="caron.cap" 
d="M262 907l-104 -144h-80l-105 144h73l71 -101l71 101h74z" />
    <glyph glyph-name="two.sc" horiz-adv-x="436" 
d="M291 228l-118 -150h199v-78h-298v75l162 209q56 73 56 128q0 37 -17 60.5t-47 23.5q-64 0 -75 -84l-84 8q12 75 54 113.5t108 38.5q70 0 108 -44t38 -112q0 -48 -21 -90t-65 -98z" />
    <glyph glyph-name="dotaccent.sc" 
d="M169 695q0 -24 -15 -40t-37 -16t-37 16t-15 40t15 40.5t37 16.5t37 -16.5t15 -40.5z" />
    <glyph glyph-name="yen.sc" horiz-adv-x="436" 
d="M290 316h80v-62h-112v-62h112v-63h-112v-129h-84v129h-110v63h110v62h-110v63h82l-112 239h89l95 -224l95 224h88z" />
    <glyph glyph-name="scedilla.sc" horiz-adv-x="367" 
d="M281 454q-30 43 -80 43q-31 0 -52 -22.5t-21 -63.5q0 -34 19 -54t59 -41q37 -20 59.5 -36.5t43 -50.5t20.5 -78q0 -68 -36 -112t-95 -53l-34 -58q8 3 30 3q31 0 54.5 -18t23.5 -54q0 -47 -34.5 -68t-79.5 -21q-52 0 -91 19l17 41q28 -14 68 -14q19 0 37.5 10t18.5 31
q0 37 -47 37q-22 0 -41 -8l-19 17l49 82q-82 10 -130 70l53 60q42 -54 99 -54q33 0 53 23t20 63q0 20 -6.5 35.5t-21.5 28.5t-27 20.5t-34 19.5q-26 14 -41.5 24.5t-34 29t-27.5 45t-9 60.5q0 78 46 120t110 42q84 0 134 -60z" />
    <glyph glyph-name="cent.sc" horiz-adv-x="436" 
d="M389 43q-38 -51 -109 -54v-61h-44v61q-81 5 -125 76.5t-44 183.5t44 183.5t125 78.5v66h44v-66q70 -3 111 -47l-38 -59q-26 30 -73 34v-380q43 1 75 40zM237 58v381q-44 -5 -66 -59t-22 -133t21.5 -131.5t66.5 -57.5z" />
    <glyph glyph-name="uogonek.sc" horiz-adv-x="487" 
d="M313 -144l20 -42q-36 -36 -85 -36q-39 0 -64.5 21.5t-25.5 61.5q0 60 68 124q-156 9 -156 205v366h88v-359q0 -134 86 -134t86 134v359h87v-366q0 -79 -31.5 -133.5t-99.5 -67.5q-64 -69 -64 -110q0 -19 12.5 -31.5t30.5 -12.5q29 0 48 21z" />
    <glyph glyph-name="emacron.sc" horiz-adv-x="376" 
d="M75 0v556h251v-75h-166v-156h155v-73h-155v-174h174v-78h-259zM331 659h-258v57h258v-57z" />
    <glyph glyph-name="rcaron.sc" horiz-adv-x="426" 
d="M305 0l-94 241h-50v-241h-86v556h152q69 0 113.5 -38t44.5 -117q0 -59 -27 -96t-64 -49l105 -256h-94zM216 481h-55v-170h56q37 0 59 22t22 64q0 84 -82 84zM363 759l-104 -144h-80l-105 144h73l71 -101l71 101h74z" />
    <glyph glyph-name="eth.sc" horiz-adv-x="473" 
d="M75 260h-51v57h51v239h136q103 0 160 -73t57 -206q0 -132 -57 -204.5t-161 -72.5h-135v260zM162 317h116v-57h-116v-183h48q57 0 93.5 50.5t36.5 149.5q0 100 -36.5 151t-93.5 51h-48v-162z" />
    <glyph glyph-name="ampersand.sc" horiz-adv-x="441" 
d="M341 0l-40 58q-42 -71 -123 -71q-66 0 -105.5 44t-39.5 120q0 101 91 160q-42 63 -42 121q0 63 35.5 101.5t91.5 38.5q54 0 88 -36t34 -94q0 -86 -102 -150l64 -92l43 108h88l-79 -174l96 -134h-100zM209 501q-20 0 -33.5 -18t-13.5 -49q0 -42 29 -87q59 40 59 90
q0 64 -41 64zM165 252q-50 -37 -50 -95q0 -44 19.5 -69t49.5 -25q46 0 70 60z" />
    <glyph glyph-name="eight.onum" horiz-adv-x="482" 
d="M438 194q0 -93 -53.5 -150t-144.5 -57q-90 0 -143 57t-53 150q0 70 30.5 117t83.5 65v2q-97 41 -97 160q0 78 47 130.5t132 52.5q86 0 133.5 -52.5t47.5 -130.5q0 -120 -96 -160v-2q113 -41 113 -182zM332 532q0 54 -24.5 87.5t-67.5 33.5t-67 -33.5t-24 -87.5
q0 -51 25 -87t66 -36t66.5 36t25.5 87zM346 198q0 62 -29.5 101.5t-76.5 39.5q-46 0 -75.5 -39.5t-29.5 -101.5q0 -61 28.5 -100t76.5 -39q49 0 77.5 39t28.5 100z" />
    <glyph glyph-name="ncaron.sc" horiz-adv-x="497" 
d="M422 0h-103l-161 417h-2v-417h-81v556h108l158 -429h2v429h79v-556zM392 759l-104 -144h-80l-105 144h73l71 -101l71 101h74z" />
    <glyph glyph-name="x.sc" horiz-adv-x="395" 
d="M295 0l-99 215l-98 -215h-94l145 293l-131 263h94l87 -189l85 189h92l-130 -264l145 -292h-96z" />
    <glyph glyph-name="breve.sc" 
d="M252 753q-8 -68 -44.5 -100.5t-91.5 -32.5q-53 0 -90 33t-43 100h56q5 -37 26.5 -55.5t50.5 -18.5q68 0 80 74h56z" />
    <glyph glyph-name="fl.sc" horiz-adv-x="692" 
d="M162 477v-157h151v-76h-151v-244h-87v556h250v-79h-163zM440 0v556h87v-476h157v-80h-244z" />
    <glyph glyph-name="dcaron.sc" horiz-adv-x="473" 
d="M210 0h-135v556h136q103 0 160 -73t57 -206q0 -132 -57 -204.5t-161 -72.5zM210 479h-48v-402h48q57 0 93.5 50.5t36.5 149.5q0 100 -36.5 151t-93.5 51zM366 759l-104 -144h-80l-105 144h73l71 -101l71 101h74z" />
    <glyph glyph-name="agrave.sc" horiz-adv-x="399" 
d="M389 0h-86l-29 120h-151l-28 -120h-85l136 556h109zM262 191l-61 283h-3l-63 -283h127zM245 616h-67l-107 144h84z" />
    <glyph glyph-name="rcommaaccent.sc" horiz-adv-x="426" 
d="M269 -45l-53 -185h-65l44 185h74zM305 0l-94 241h-50v-241h-86v556h152q69 0 113.5 -38t44.5 -117q0 -59 -27 -96t-64 -49l105 -256h-94zM216 481h-55v-170h56q37 0 59 22t22 64q0 84 -82 84z" />
    <glyph glyph-name="u.sc" horiz-adv-x="487" 
d="M242 -16q-91 0 -131.5 57t-40.5 149v366h88v-359q0 -134 86 -134t86 134v359h87v-366q0 -92 -42 -149t-133 -57z" />
    <glyph glyph-name="uacute.sc" horiz-adv-x="487" 
d="M242 -16q-91 0 -131.5 57t-40.5 149v366h88v-359q0 -134 86 -134t86 134v359h87v-366q0 -92 -42 -149t-133 -57zM377 760l-107 -144h-67l90 144h84z" />
    <glyph glyph-name="zero.onum" horiz-adv-x="500" 
d="M251 -16q-93 0 -146.5 81.5t-53.5 213.5t52.5 212.5t147.5 80.5q93 0 145.5 -80.5t52.5 -212.5t-52.5 -213.5t-145.5 -81.5zM251 497q-52 0 -81 -60t-29 -158t29 -158t81 -60q51 0 79.5 60t28.5 158q0 97 -29 157.5t-79 60.5z" />
    <glyph glyph-name="eacute.sc" horiz-adv-x="376" 
d="M75 0v556h251v-75h-166v-156h155v-73h-155v-174h174v-78h-259zM336 760l-107 -144h-67l90 144h84z" />
    <glyph glyph-name="dotlessj" horiz-adv-x="233" 
d="M160 -62q0 -178 -143 -178q-17 0 -40 5l7 78q12 -4 27 -4q64 0 64 105v558h85v-564z" />
    <glyph glyph-name="eight.sc" horiz-adv-x="436" 
d="M387 152q0 -75 -45.5 -121.5t-123.5 -46.5t-123.5 46.5t-45.5 121.5q0 55 25 91.5t63 49.5v2q-75 32 -75 127q0 64 40.5 107t115.5 43q74 0 115.5 -43.5t41.5 -106.5q0 -44 -19.5 -77.5t-54.5 -49.5v-2q38 -14 62 -50t24 -91zM289 415q0 38 -19.5 62t-51.5 24
q-34 0 -54 -24t-20 -62q0 -35 21 -61.5t53 -26.5q31 0 51 26t20 62zM303 158q0 44 -24.5 71.5t-60.5 27.5q-35 0 -60 -28t-25 -71t23.5 -72t61.5 -29t61.5 29t23.5 72z" />
    <glyph glyph-name="dieresis.sc" 
d="M243 695q0 -22 -14 -37t-34 -15t-34.5 15t-14.5 37t14.5 37.5t34.5 15.5q21 0 34.5 -15.5t13.5 -37.5zM90 695q0 -22 -14.5 -37t-34.5 -15q-22 0 -35 14.5t-13 37.5q0 22 13.5 37.5t34.5 15.5q20 0 34.5 -15.5t14.5 -37.5z" />
    <glyph glyph-name="edieresis.sc" horiz-adv-x="376" 
d="M75 0v556h251v-75h-166v-156h155v-73h-155v-174h174v-78h-259zM326 695q0 -22 -14 -37t-34 -15t-34.5 15t-14.5 37t14.5 37.5t34.5 15.5q21 0 34.5 -15.5t13.5 -37.5zM173 695q0 -22 -14.5 -37t-34.5 -15q-22 0 -35 14.5t-13 37.5q0 22 13.5 37.5t34.5 15.5
q20 0 34.5 -15.5t14.5 -37.5z" />
    <glyph glyph-name="caron.alt" 
d="M184 708l-53 -185h-65l44 185h74z" />
    <glyph glyph-name="amacron.sc" horiz-adv-x="399" 
d="M389 0h-86l-29 120h-151l-28 -120h-85l136 556h109zM262 191l-61 283h-3l-63 -283h127zM328 659h-258v57h258v-57z" />
    <glyph glyph-name="ccircumflex.sc" horiz-adv-x="414" 
d="M344 443q-36 54 -90 54q-57 0 -88 -60.5t-31 -157.5q0 -95 32 -156.5t89 -61.5q52 0 87 60l53 -56q-52 -81 -145 -81q-96 0 -151 83t-55 211t55.5 211t150.5 83q96 0 147 -73zM398 616h-74l-71 101l-71 -101h-73l105 144h80z" />
    <glyph glyph-name="g.sc" horiz-adv-x="464" 
d="M257 -16q-99 0 -155.5 81.5t-56.5 213.5q0 128 54.5 210.5t150.5 82.5q97 0 148 -74l-56 -60q-37 54 -89 54q-55 0 -85.5 -59.5t-30.5 -153.5q0 -98 32 -156.5t90 -58.5q38 0 58 15v158h-73v76h158v-279q-62 -50 -145 -50z" />
    <glyph glyph-name="ecaron.sc" horiz-adv-x="376" 
d="M75 0v556h251v-75h-166v-156h155v-73h-155v-174h174v-78h-259zM348 759l-104 -144h-80l-105 144h73l71 -101l71 101h74z" />
    <glyph glyph-name="eogonek.sc" horiz-adv-x="376" 
d="M75 0v556h251v-78h-166v-153h155v-74h-155v-173h174v-78h-24q-41 -42 -58.5 -68.5t-17.5 -52.5q0 -19 12.5 -31.5t30.5 -12.5q29 0 48 21l20 -42q-36 -36 -85 -36q-39 0 -64.5 21.5t-25.5 61.5q0 66 86 139h-181z" />
    <glyph glyph-name="lcommaaccent.sc" horiz-adv-x="327" 
d="M242 -45l-53 -185h-65l44 185h74zM75 0v556h87v-478h157v-78h-244z" />
    <glyph glyph-name="ae.sc" horiz-adv-x="529" 
d="M239 0v125h-124l-43 -125h-89l204 556h293v-78h-158v-153h146v-74h-146v-173h165v-78h-248zM239 477h-4l-95 -280h99v280z" />
    <glyph glyph-name="ccaron.sc" horiz-adv-x="414" 
d="M344 443q-36 54 -90 54q-57 0 -88 -60.5t-31 -157.5q0 -95 32 -156.5t89 -61.5q52 0 87 60l53 -56q-52 -81 -145 -81q-96 0 -151 83t-55 211t55.5 211t150.5 83q96 0 147 -73zM397 759l-104 -144h-80l-105 144h73l71 -101l71 101h74z" />
    <glyph glyph-name="v.sc" horiz-adv-x="391" 
d="M387 556l-139 -556h-103l-141 556h93l101 -456h2l96 456h91z" />
    <glyph glyph-name="thorn.sc" horiz-adv-x="395" 
d="M228 131h-66v-131h-87v556h87v-100h62q63 0 109.5 -38t46.5 -122q0 -78 -44.5 -121.5t-107.5 -43.5zM217 381h-55v-177h55q35 0 55.5 23t20.5 68q0 86 -76 86z" />
    <glyph glyph-name="ring.cap" 
d="M213 852q0 -44 -27.5 -73.5t-68.5 -29.5t-67.5 29.5t-26.5 73.5t26.5 73.5t67.5 29.5t68.5 -29.5t27.5 -73.5zM173 852q0 28 -15 47t-41 19q-25 0 -39.5 -19t-14.5 -47t14.5 -47t39.5 -19q26 0 41 19t15 47z" />
    <glyph glyph-name="e.sc" horiz-adv-x="376" 
d="M75 0v556h251v-75h-166v-156h155v-73h-155v-174h174v-78h-259z" />
    <glyph glyph-name="abreve.sc" horiz-adv-x="399" 
d="M389 0h-86l-29 120h-151l-28 -120h-85l136 556h109zM262 191l-61 283h-3l-63 -283h127zM334 753q-8 -68 -44.5 -100.5t-91.5 -32.5q-53 0 -90 33t-43 100h56q5 -37 26.5 -55.5t50.5 -18.5q68 0 80 74h56z" />
    <glyph glyph-name="adieresis.sc" horiz-adv-x="399" 
d="M389 0h-86l-29 120h-151l-28 -120h-85l136 556h109zM262 191l-61 283h-3l-63 -283h127zM324 695q0 -22 -14 -37t-34 -15t-34.5 15t-14.5 37t14.5 37.5t34.5 15.5q21 0 34.5 -15.5t13.5 -37.5zM171 695q0 -22 -14.5 -37t-34.5 -15q-22 0 -35 14.5t-13 37.5q0 22 13.5 37.5
t34.5 15.5q20 0 34.5 -15.5t14.5 -37.5z" />
    <glyph glyph-name="five.sc" horiz-adv-x="436" 
d="M205 -16q-121 0 -158 118l78 28q21 -68 80 -68q35 0 56.5 29.5t21.5 82.5q0 52 -23 82.5t-67 30.5q-51 0 -109 -32l8 301h257v-75h-179l-5 -134q25 9 49 9q75 0 114.5 -49.5t39.5 -130.5q0 -89 -45 -140.5t-118 -51.5z" />
    <glyph glyph-name="ecircumflex.sc" horiz-adv-x="376" 
d="M75 0v556h251v-75h-166v-156h155v-73h-155v-174h174v-78h-259zM350 616h-74l-71 101l-71 -101h-73l105 144h80z" />
    <glyph glyph-name="circumflex.cap" 
d="M262 764h-74l-71 101l-71 -101h-73l105 144h80z" />
    <glyph glyph-name="commaaccent" 
d="M164 -45l-53 -185h-65l44 185h74z" />
    <glyph glyph-name="cacute.sc" horiz-adv-x="414" 
d="M344 443q-36 54 -90 54q-57 0 -88 -60.5t-31 -157.5q0 -95 32 -156.5t89 -61.5q52 0 87 60l53 -56q-52 -81 -145 -81q-96 0 -151 83t-55 211t55.5 211t150.5 83q96 0 147 -73zM382 760l-107 -144h-67l90 144h84z" />
    <glyph glyph-name="breve.cap" 
d="M252 901q-8 -68 -44.5 -100.5t-91.5 -32.5q-53 0 -90 33t-43 100h56q5 -37 26.5 -55.5t50.5 -18.5q68 0 80 74h56z" />
    <glyph glyph-name="edotaccent.sc" horiz-adv-x="376" 
d="M75 0v556h251v-75h-166v-156h155v-73h-155v-174h174v-78h-259zM255 695q0 -24 -15 -40t-37 -16t-37 16t-15 40t15 40.5t37 16.5t37 -16.5t15 -40.5z" />
    <glyph glyph-name="six.sc" horiz-adv-x="436" 
d="M194 341q20 10 44 10q58 0 103 -42.5t45 -137.5q0 -85 -46.5 -136t-121.5 -51q-76 0 -121 51t-45 135q0 75 42 157l116 229h95l-114 -214zM221 282q-36 0 -60 -31.5t-24 -80.5q0 -53 23 -82.5t59 -29.5t58.5 31t22.5 83q0 51 -21 80.5t-58 29.5z" />
    <glyph glyph-name="egrave.sc" horiz-adv-x="376" 
d="M75 0v556h251v-75h-166v-156h155v-73h-155v-174h174v-78h-259zM241 616h-67l-107 144h84z" />
    <glyph glyph-name="c.sc" horiz-adv-x="414" 
d="M344 443q-36 54 -90 54q-57 0 -88 -60.5t-31 -157.5q0 -95 32 -156.5t89 -61.5q52 0 87 60l53 -56q-52 -81 -145 -81q-96 0 -151 83t-55 211t55.5 211t150.5 83q96 0 147 -73z" />
    <glyph glyph-name="circumflex.sc" 
d="M262 616h-74l-71 101l-71 -101h-73l105 144h80z" />
    <glyph glyph-name="t.sc" horiz-adv-x="299" 
d="M193 481v-481h-87v481h-106v75h299v-75h-106z" />
    <glyph glyph-name="dieresis.cap" 
d="M90 843q0 -22 -14.5 -37t-34.5 -15q-22 0 -35 14.5t-13 37.5q0 22 13.5 37.5t34.5 15.5q20 0 34.5 -15.5t14.5 -37.5zM243 843q0 -22 -14 -37t-34 -15t-34.5 15t-14.5 37t14.5 37.5t34.5 15.5q21 0 34.5 -15.5t13.5 -37.5z" />
    <glyph glyph-name="sacute.sc" horiz-adv-x="367" 
d="M281 454q-30 43 -80 43q-31 0 -52 -22.5t-21 -63.5q0 -34 19 -54t59 -41q37 -20 59.5 -36.5t43 -50.5t20.5 -78q0 -76 -44.5 -121.5t-112.5 -45.5q-94 0 -152 71l53 60q42 -54 99 -54q33 0 53 23t20 63q0 20 -6.5 35.5t-21.5 28.5t-27 20.5t-34 19.5q-26 14 -41.5 24.5
t-34 29t-27.5 45t-9 60.5q0 78 46 120t110 42q84 0 134 -60zM332 760l-107 -144h-67l90 144h84z" />
    <glyph glyph-name="caron.sc" 
d="M262 759l-104 -144h-80l-105 144h73l71 -101l71 101h74z" />
    <glyph glyph-name="d.sc" horiz-adv-x="473" 
d="M210 0h-135v556h136q103 0 160 -73t57 -206q0 -132 -57 -204.5t-161 -72.5zM210 479h-48v-402h48q57 0 93.5 50.5t36.5 149.5q0 100 -36.5 151t-93.5 51z" />
    <glyph glyph-name="cdotaccent.sc" horiz-adv-x="414" 
d="M344 443q-36 54 -90 54q-57 0 -88 -60.5t-31 -157.5q0 -95 32 -156.5t89 -61.5q52 0 87 60l53 -56q-52 -81 -145 -81q-96 0 -151 83t-55 211t55.5 211t150.5 83q96 0 147 -73zM305 695q0 -24 -15 -40t-37 -16t-37 16t-15 40t15 40.5t37 16.5t37 -16.5t15 -40.5z" />
    <glyph glyph-name="f.sc" horiz-adv-x="365" 
d="M162 479v-159h151v-75h-151v-245h-87v556h250v-77h-163z" />
    <glyph glyph-name="commaaccent.alt" 
d="M57 571l53 185h65l-44 -185h-74z" />
    <glyph glyph-name="tcaron.sc" horiz-adv-x="299" 
d="M193 481v-481h-87v481h-106v75h299v-75h-106zM295 759l-104 -144h-80l-105 144h73l71 -101l71 101h74z" />
    <glyph glyph-name="gdotaccent.sc" horiz-adv-x="464" 
d="M257 -16q-99 0 -155.5 81.5t-56.5 213.5q0 128 54.5 210.5t150.5 82.5q97 0 148 -74l-56 -60q-37 54 -89 54q-55 0 -85.5 -59.5t-30.5 -153.5q0 -98 32 -156.5t90 -58.5q38 0 58 15v158h-73v76h158v-279q-62 -50 -145 -50zM304 695q0 -24 -15 -40t-37 -16t-37 16t-15 40
t15 40.5t37 16.5t37 -16.5t15 -40.5z" />
    <glyph glyph-name="gcommaaccent.sc" horiz-adv-x="464" 
d="M293 -45l-53 -185h-65l44 185h74zM257 -16q-99 0 -155.5 81.5t-56.5 213.5q0 128 54.5 210.5t150.5 82.5q97 0 148 -74l-56 -60q-37 54 -89 54q-55 0 -85.5 -59.5t-30.5 -153.5q0 -98 32 -156.5t90 -58.5q38 0 58 15v158h-73v76h158v-279q-62 -50 -145 -50z" />
    <glyph glyph-name="gcircumflex.sc" horiz-adv-x="464" 
d="M257 -16q-99 0 -155.5 81.5t-56.5 213.5q0 128 54.5 210.5t150.5 82.5q97 0 148 -74l-56 -60q-37 54 -89 54q-55 0 -85.5 -59.5t-30.5 -153.5q0 -98 32 -156.5t90 -58.5q38 0 58 15v158h-73v76h158v-279q-62 -50 -145 -50zM396 616h-74l-71 101l-71 -101h-73l105 144h80z
" />
    </font>
</defs>
</svg>
